CommissionerLoud-Light.ufo
<glyph name="numbersign" format="2">
  <advance width="678.6947368421053"/>
  <unicode hex="0023"/>
  <outline>
    <contour>
      <point x="18.210526315789473" y="156.65263157894736" type="line"/>
      <point x="79.25263157894737" y="158.01052631578946"/>
      <point x="147.86315789473684" y="159.3684210526316"/>
      <point x="186.8" y="159.7263157894737" type="curve"/>
      <point x="433.93684210526317" y="159.7263157894737" type="line"/>
      <point x="472.87368421052633" y="159.3684210526316"/>
      <point x="541.4842105263158" y="158.01052631578946"/>
      <point x="602.5263157894736" y="156.65263157894736" type="curve"/>
      <point x="602.5263157894736" y="214.42105263157896" type="line"/>
      <point x="541.4842105263158" y="213.06315789473686"/>
      <point x="472.87368421052633" y="211.70526315789473"/>
      <point x="433.93684210526317" y="211.34736842105264" type="curve"/>
      <point x="186.8" y="211.34736842105264" type="line"/>
      <point x="147.86315789473684" y="211.70526315789473"/>
      <point x="79.25263157894737" y="213.06315789473686"/>
      <point x="18.210526315789473" y="214.42105263157896" type="curve"/>
    </contour>
    <contour>
      <point x="118.69473684210527" y="0.0" type="curve"/>
      <point x="182.14736842105265" y="0.0" type="line"/>
      <point x="194.71578947368423" y="67.3578947368421"/>
      <point x="205.6421052631579" y="126.61052631578947"/>
      <point x="221.03157894736842" y="210.78947368421052" type="curve"/>
      <point x="267.88421052631577" y="437.0421052631579" type="line"/>
      <point x="287.06315789473683" y="524.7578947368421"/>
      <point x="300.88421052631577" y="583.578947368421"/>
      <point x="316.8842105263158" y="656.578947368421" type="curve"/>
      <point x="253.7894736842105" y="656.578947368421" type="line"/>
      <point x="241.04210526315788" y="585.1473684210526"/>
      <point x="230.4736842105263" y="526.8631578947368"/>
      <point x="213.44210526315788" y="438.6842105263158" type="curve"/>
      <point x="166.58947368421053" y="210.78947368421052" type="line"/>
      <point x="147.2315789473684" y="126.25263157894737"/>
      <point x="133.69473684210524" y="66.64210526315789"/>
    </contour>
    <contour>
      <point x="76.16842105263157" y="439.1578947368421" type="line"/>
      <point x="137.21052631578948" y="440.5157894736842"/>
      <point x="205.82105263157897" y="441.8736842105263"/>
      <point x="244.7578947368421" y="442.2315789473684" type="curve"/>
      <point x="491.89473684210526" y="442.2315789473684" type="line"/>
      <point x="530.8315789473684" y="441.8736842105263"/>
      <point x="599.4421052631579" y="440.5157894736842"/>
      <point x="660.4842105263158" y="439.1578947368421" type="curve"/>
      <point x="660.4842105263158" y="496.9263157894737" type="line"/>
      <point x="599.4421052631579" y="495.56842105263155"/>
      <point x="530.8315789473684" y="494.2105263157895"/>
      <point x="491.89473684210526" y="493.85263157894735" type="curve"/>
      <point x="244.7578947368421" y="493.85263157894735" type="line"/>
      <point x="205.82105263157897" y="494.2105263157895"/>
      <point x="137.21052631578948" y="495.56842105263155"/>
      <point x="76.16842105263157" y="496.9263157894737" type="curve"/>
    </contour>
    <contour>
      <point x="354.0631578947369" y="0.0" type="curve"/>
      <point x="417.5157894736842" y="0.0" type="line"/>
      <point x="430.08421052631576" y="67.3578947368421"/>
      <point x="441.0105263157895" y="126.61052631578947"/>
      <point x="456.4" y="210.78947368421052" type="curve"/>
      <point x="503.2526315789474" y="437.0421052631579" type="line"/>
      <point x="522.4315789473684" y="524.7578947368421"/>
      <point x="536.2526315789473" y="583.578947368421"/>
      <point x="552.2526315789473" y="656.578947368421" type="curve"/>
      <point x="489.15789473684214" y="656.578947368421" type="line"/>
      <point x="476.41052631578947" y="585.1473684210526"/>
      <point x="465.84210526315786" y="526.8631578947368"/>
      <point x="448.8105263157895" y="438.6842105263158" type="curve"/>
      <point x="401.9578947368421" y="210.78947368421052" type="line"/>
      <point x="382.59999999999997" y="126.25263157894737"/>
      <point x="369.06315789473683" y="66.64210526315789"/>
    </contour>
  </outline>
</glyph>
<glyph name="ampersand" format="2">
  <advance width="726.4137931034483"/>
  <unicode hex="0026"/>
  <outline>
    <contour>
      <point x="617.3333333333334" y="0.0" type="curve"/>
      <point x="713.448275862069" y="0.0" type="line"/>
      <point x="654.1494252873564" y="57.47126436781609"/>
      <point x="594.8505747126437" y="115.55172413793103"/>
      <point x="534.551724137931" y="173.632183908046" type="curve"/>
      <point x="303.14942528735634" y="403.8965517241379" type="line" smooth="yes"/>
      <point x="240.79310344827587" y="465.42528735632186"/>
      <point x="213.09195402298852" y="507.2988505747126"/>
      <point x="213.09195402298852" y="561.4827586206897" type="curve" smooth="yes"/>
      <point x="213.09195402298852" y="624.4942528735633"/>
      <point x="252.01149425287355" y="670.1149425287356"/>
      <point x="318.0689655172414" y="672.5057471264367" type="curve"/>
      <point x="376.8620689655172" y="670.1149425287356"/>
      <point x="419.5632183908046" y="631.8045977011494"/>
      <point x="419.5632183908046" y="569.528735632184" type="curve" smooth="yes"/>
      <point x="419.5632183908046" y="519.8160919540229"/>
      <point x="352.5977011494253" y="469.0344827586207"/>
      <point x="281.7586206896552" y="417.1609195402299" type="curve"/>
      <point x="318.7356321839081" y="377.74712643678157" type="line"/>
      <point x="397.51724137931035" y="436.99999999999994"/>
      <point x="481.04597701149424" y="498.3448275862069"/>
      <point x="481.04597701149424" y="570.7011494252873" type="curve" smooth="yes"/>
      <point x="481.04597701149424" y="668.0"/>
      <point x="406.8390804597701" y="725.7816091954023"/>
      <point x="315.7241379310345" y="725.7816091954023" type="curve" smooth="yes"/>
      <point x="222.73563218390805" y="725.7816091954023"/>
      <point x="147.70114942528735" y="662.5632183908046"/>
      <point x="147.70114942528735" y="561.0919540229885" type="curve" smooth="yes"/>
      <point x="147.70114942528735" y="487.4367816091954"/>
      <point x="187.7471264367816" y="433.04597701149424"/>
      <point x="251.83908045977012" y="369.0" type="curve" smooth="yes"/>
      <point x="485.58620689655174" y="136.0" type="line"/>
      <point x="529.6321839080459" y="91.0"/>
      <point x="574.2873563218392" y="44.0"/>
    </contour>
    <contour>
      <point x="271.3103448275862" y="-9.781609195402298" type="curve" smooth="yes"/>
      <point x="335.6091954022989" y="-9.781609195402298"/>
      <point x="399.48275862068965" y="35.264367816091955"/>
      <point x="500.35632183908046" y="113.49425287356323" type="curve"/>
      <point x="512.7471264367816" y="113.49425287356323" type="line"/>
      <point x="509.18390804597703" y="129.183908045977" type="line"/>
      <point x="473.632183908046" y="165.33333333333334" type="line"/>
      <point x="377.57471264367814" y="87.183908045977"/>
      <point x="315.18390804597703" y="47.40229885057471"/>
      <point x="277.95402298850576" y="47.40229885057471" type="curve"/>
      <point x="175.75862068965517" y="49.79310344827586"/>
      <point x="116.79310344827587" y="103.54022988505747"/>
      <point x="116.79310344827587" y="188.42528735632183" type="curve" smooth="yes"/>
      <point x="116.79310344827587" y="275.13793103448273"/>
      <point x="180.67816091954023" y="329.8390804597701"/>
      <point x="266.1264367816092" y="368.7586206896552" type="curve"/>
      <point x="237.05747126436782" y="413.1264367816092" type="line"/>
      <point x="148.49425287356323" y="373.1264367816092"/>
      <point x="52.96551724137931" y="305.3448275862069"/>
      <point x="52.96551724137931" y="183.3448275862069" type="curve" smooth="yes"/>
      <point x="52.96551724137931" y="76.82758620689656"/>
      <point x="125.74712643678161" y="-9.781609195402298"/>
    </contour>
    <contour>
      <point x="542.4597701149426" y="158.94252873563218" type="line"/>
      <point x="586.9770114942529" y="220.37931034482756"/>
      <point x="630.1034482758621" y="279.816091954023"/>
      <point x="674.2298850574713" y="341.64367816091954" type="curve"/>
      <point x="612.9195402298851" y="379.57471264367814" type="line"/>
      <point x="575.7011494252873" y="317.35632183908046"/>
      <point x="540.4827586206897" y="259.35632183908046"/>
      <point x="502.04597701149424" y="194.91954022988506" type="curve"/>
    </contour>
  </outline>
</glyph>
<glyph name="quotesingle" format="2">
  <advance width="195.34736842105264"/>
  <unicode hex="0027"/>
  <outline>
    <contour>
      <point x="61.06315789473684" y="446.85263157894735" type="curve"/>
      <point x="111.0421052631579" y="447.85263157894735" type="line"/>
      <point x="113.01052631578948" y="547.4736842105264"/>
      <point x="120.08421052631577" y="646.7368421052631"/>
      <point x="126.8" y="744.1789473684211" type="curve"/>
      <point x="44.305263157894736" y="742.4631578947368" type="line"/>
      <point x="52.02105263157895" y="645.2"/>
      <point x="59.09473684210526" y="546.9368421052632"/>
    </contour>
  </outline>
</glyph>
<glyph name="parenleft" format="2">
  <advance width="377.77894736842103"/>
  <unicode hex="0028"/>
  <outline>
    <contour>
      <point x="278.2421052631579" y="-117.90526315789474" type="curve"/>
      <point x="336.65263157894736" y="-94.49473684210527" type="line"/>
      <point x="234.83157894736843" y="27.97894736842105"/>
      <point x="129.2" y="165.78947368421052"/>
      <point x="129.2" y="323.82105263157894" type="curve" smooth="yes"/>
      <point x="129.2" y="482.6736842105263"/>
      <point x="234.83157894736843" y="619.6631578947369"/>
      <point x="336.65263157894736" y="742.1368421052632" type="curve"/>
      <point x="278.2421052631579" y="765.5473684210526" type="line"/>
      <point x="182.56842105263158" y="644.5157894736841"/>
      <point x="62.8421052631579" y="500.1578947368421"/>
      <point x="62.8421052631579" y="323.82105263157894" type="curve" smooth="yes"/>
      <point x="62.8421052631579" y="148.30526315789473"/>
      <point x="182.56842105263158" y="3.126315789473682"/>
    </contour>
  </outline>
</glyph>
<glyph name="asterisk" format="2">
  <advance width="467.8421052631579"/>
  <unicode hex="002A"/>
  <outline>
    <contour>
      <point x="412.32631578947365" y="376.0526315789474" type="curve"/>
      <point x="440.98947368421057" y="423.23157894736846" type="line"/>
      <point x="375.37894736842105" y="459.8"/>
      <point x="308.7684210526316" y="496.0105263157895"/>
      <point x="243.1578947368421" y="532.578947368421" type="curve"/>
      <point x="180.33684210526314" y="575.6526315789474"/>
      <point x="117.51578947368421" y="618.2631578947369"/>
      <point x="55.51578947368421" y="660.5157894736842" type="curve"/>
      <point x="26.852631578947367" y="613.1578947368421" type="line"/>
      <point x="92.46315789473685" y="576.5894736842105"/>
      <point x="158.89473684210526" y="540.378947368421"/>
      <point x="225.50526315789475" y="502.9894736842105" type="curve"/>
      <point x="287.5052631578947" y="460.7368421052631"/>
      <point x="350.32631578947365" y="418.30526315789473"/>
    </contour>
    <contour>
      <point x="55.694736842105264" y="375.87368421052633" type="line"/>
      <point x="117.69473684210526" y="418.30526315789473"/>
      <point x="180.33684210526314" y="460.7368421052631"/>
      <point x="243.1578947368421" y="503.9894736842105" type="curve"/>
      <point x="308.7684210526316" y="540.378947368421"/>
      <point x="375.2" y="576.9473684210526"/>
      <point x="440.8105263157895" y="613.3368421052631" type="curve"/>
      <point x="412.1473684210526" y="660.6947368421053" type="line"/>
      <point x="350.1473684210526" y="618.2631578947369"/>
      <point x="287.5052631578947" y="575.8315789473685"/>
      <point x="225.50526315789475" y="533.4" type="curve"/>
      <point x="159.07368421052632" y="496.18947368421055"/>
      <point x="92.46315789473685" y="459.8"/>
      <point x="26.852631578947367" y="423.4105263157895" type="curve"/>
    </contour>
    <contour>
      <point x="205.9894736842105" y="291.6736842105263" type="curve"/>
      <point x="261.85263157894735" y="291.6736842105263" type="line"/>
      <point x="258.24210526315795" y="367.2105263157895"/>
      <point x="254.45263157894738" y="442.7473684210526"/>
      <point x="250.8421052631579" y="519.1052631578947" type="curve"/>
      <point x="254.45263157894738" y="593.8210526315789"/>
      <point x="258.0631578947369" y="669.3578947368421"/>
      <point x="261.67368421052635" y="744.8947368421053" type="curve"/>
      <point x="205.9894736842105" y="744.8947368421053" type="line"/>
      <point x="209.6" y="669.3578947368421"/>
      <point x="213.38947368421051" y="593.8210526315789"/>
      <point x="217.0" y="519.1052631578947" type="curve"/>
      <point x="213.38947368421051" y="442.7473684210526"/>
      <point x="209.6" y="367.2105263157895"/>
    </contour>
  </outline>
</glyph>
<glyph name="plus" format="2">
  <advance width="585.3684210526316"/>
  <unicode hex="002B"/>
  <outline>
    <contour>
      <point x="259.7578947368421" y="61.242105263157896" type="curve"/>
      <point x="325.61052631578946" y="61.242105263157896" type="line"/>
      <point x="324.25263157894733" y="122.28421052631579"/>
      <point x="322.89473684210526" y="190.89473684210526"/>
      <point x="322.53684210526313" y="229.83157894736843" type="curve"/>
      <point x="322.53684210526313" y="365.17894736842106" type="line"/>
      <point x="322.89473684210526" y="404.11578947368423"/>
      <point x="324.25263157894733" y="472.7263157894737"/>
      <point x="325.61052631578946" y="533.7684210526315" type="curve"/>
      <point x="259.7578947368421" y="533.7684210526315" type="line"/>
      <point x="261.11578947368423" y="472.7263157894737"/>
      <point x="262.4736842105263" y="404.11578947368423"/>
      <point x="262.8315789473684" y="365.17894736842106" type="curve"/>
      <point x="262.8315789473684" y="229.83157894736843" type="line"/>
      <point x="262.4736842105263" y="190.89473684210526"/>
      <point x="261.11578947368423" y="122.28421052631579"/>
    </contour>
    <contour>
      <point x="64.63157894736842" y="265.1157894736842" type="line"/>
      <point x="125.67368421052632" y="266.4736842105263"/>
      <point x="194.2842105263158" y="267.83157894736837"/>
      <point x="233.22105263157894" y="268.1894736842105" type="curve"/>
      <point x="352.14736842105265" y="268.1894736842105" type="line"/>
      <point x="391.0842105263158" y="267.83157894736837"/>
      <point x="459.69473684210527" y="266.4736842105263"/>
      <point x="520.7368421052631" y="265.1157894736842" type="curve"/>
      <point x="520.7368421052631" y="329.89473684210526" type="line"/>
      <point x="459.69473684210527" y="328.53684210526313"/>
      <point x="391.0842105263158" y="327.17894736842106"/>
      <point x="352.14736842105265" y="326.82105263157894" type="curve"/>
      <point x="233.22105263157894" y="326.82105263157894" type="line"/>
      <point x="194.2842105263158" y="327.17894736842106"/>
      <point x="125.67368421052632" y="328.53684210526313"/>
      <point x="64.63157894736842" y="329.89473684210526" type="curve"/>
    </contour>
  </outline>
</glyph>
<glyph name="comma" format="2">
  <advance width="224.9157894736842"/>
  <unicode hex="002C"/>
  <outline>
    <contour>
      <point x="49.41052631578947" y="-157.0" type="curve"/>
      <point x="86.72631578947369" y="-155.82105263157894" type="line"/>
      <point x="116.33684210526317" y="-92.57894736842105"/>
      <point x="169.53684210526316" y="11.68421052631579"/>
      <point x="169.53684210526316" y="51.694736842105264" type="curve" smooth="yes"/>
      <point x="169.53684210526316" y="83.74736842105263"/>
      <point x="154.95789473684212" y="107.36842105263158"/>
      <point x="123.47368421052632" y="109.97894736842105" type="curve"/>
      <point x="81.54736842105264" y="107.54736842105262" type="line"/>
      <point x="83.80000000000001" y="78.0"/>
      <point x="86.69473684210527" y="48.45263157894737"/>
      <point x="88.41052631578948" y="19.978947368421053" type="curve"/>
      <point x="76.76842105263158" y="-38.09473684210526"/>
      <point x="63.873684210526314" y="-98.17894736842105"/>
    </contour>
  </outline>
</glyph>
<glyph name="hyphen" format="2">
  <advance width="421.7894736842105"/>
  <unicode hex="002D"/>
  <outline>
    <contour>
      <point x="64.63157894736842" y="264.2210526315789" type="line"/>
      <point x="117.77894736842106" y="265.57894736842104"/>
      <point x="176.85263157894735" y="266.9368421052631"/>
      <point x="210.89473684210526" y="267.29473684210524" type="curve"/>
      <point x="244.93684210526317" y="266.9368421052631"/>
      <point x="304.0105263157895" y="265.57894736842104"/>
      <point x="357.1578947368421" y="264.2210526315789" type="curve"/>
      <point x="357.1578947368421" y="329.0" type="line"/>
      <point x="304.0105263157895" y="327.6421052631579"/>
      <point x="244.93684210526317" y="326.2842105263158"/>
      <point x="210.89473684210526" y="325.9263157894737" type="curve"/>
      <point x="176.85263157894735" y="326.2842105263158"/>
      <point x="117.77894736842106" y="327.6421052631579"/>
      <point x="64.63157894736842" y="329.0" type="curve"/>
    </contour>
  </outline>
</glyph>
<glyph name="slash" format="2">
  <advance width="446.41052631578947"/>
  <unicode hex="002F"/>
  <outline>
    <contour>
      <point x="30.48421052631579" y="0.0" type="curve"/>
      <point x="104.52631578947368" y="0.0" type="line"/>
      <point x="135.37894736842105" y="74.0"/>
      <point x="161.41052631578947" y="136.0"/>
      <point x="199.7263157894737" y="228.0" type="curve"/>
      <point x="307.0736842105263" y="474.0" type="line"/>
      <point x="350.17894736842106" y="569.0"/>
      <point x="379.46315789473687" y="632.8210526315789"/>
      <point x="415.9263157894737" y="713.0" type="curve"/>
      <point x="342.0631578947369" y="713.0" type="line"/>
      <point x="310.2105263157895" y="636.8210526315789"/>
      <point x="283.17894736842106" y="571.8210526315789"/>
      <point x="243.0421052631579" y="476.0" type="curve"/>
      <point x="134.69473684210527" y="228.0" type="line"/>
      <point x="92.58947368421053" y="136.53684210526316"/>
      <point x="64.1263157894737" y="73.53684210526316"/>
    </contour>
  </outline>
</glyph>
<glyph name="one" format="2">
  <advance width="422.6736842105263"/>
  <unicode hex="0031"/>
  <outline>
    <contour>
      <point x="53.04210526315789" y="496.5157894736842" type="line"/>
      <point x="126.11578947368422" y="538.978947368421"/>
      <point x="199.65263157894736" y="581.2631578947368"/>
      <point x="273.0842105263158" y="623.9052631578948" type="curve"/>
      <point x="274.69473684210527" y="687.7894736842105" type="line"/>
      <point x="194.0421052631579" y="645.3263157894737"/>
      <point x="113.74736842105264" y="603.8631578947368"/>
      <point x="33.09473684210527" y="561.4" type="curve"/>
    </contour>
    <contour>
      <point x="236.86315789473684" y="0.0" type="curve"/>
      <point x="313.2" y="0.0" type="line"/>
      <point x="311.30526315789473" y="74.10526315789474"/>
      <point x="309.58947368421053" y="138.03157894736842"/>
      <point x="307.5157894736842" y="219.56842105263158" type="curve"/>
      <point x="307.5157894736842" y="447.3578947368421" type="line"/>
      <point x="309.41052631578947" y="531.2842105263157"/>
      <point x="311.30526315789473" y="611.1052631578947"/>
      <point x="313.2" y="685.0736842105263" type="curve"/>
      <point x="274.69473684210527" y="687.7894736842105" type="line"/>
      <point x="239.1157894736842" y="655.2947368421053" type="line"/>
      <point x="239.65263157894736" y="582.7263157894737"/>
      <point x="241.18947368421053" y="502.12631578947367"/>
      <point x="241.7263157894737" y="438.58947368421053" type="curve"/>
      <point x="241.7263157894737" y="219.56842105263158" type="line"/>
      <point x="239.65263157894736" y="138.03157894736842"/>
      <point x="238.75789473684213" y="74.10526315789474"/>
    </contour>
  </outline>
</glyph>
<glyph name="two" format="2">
  <advance width="550.5157894736842"/>
  <unicode hex="0032"/>
  <outline>
    <contour>
      <point x="50.136842105263156" y="0.0" type="line"/>
      <point x="494.9894736842105" y="0.0" type="line"/>
      <point x="494.9894736842105" y="65.74736842105264" type="line"/>
      <point x="417.2842105263158" y="63.67368421052632"/>
      <point x="338.9368421052631" y="61.6"/>
      <point x="260.5157894736842" y="59.347368421052636" type="curve"/>
      <point x="117.21052631578948" y="59.347368421052636" type="line"/>
      <point x="128.43157894736842" y="45.084210526315786" type="line"/>
      <point x="242.98947368421054" y="144.31578947368422" type="line"/>
      <point x="397.65263157894736" y="278.4"/>
      <point x="480.4947368421053" y="389.0"/>
      <point x="480.4947368421053" y="504.42105263157896" type="curve" smooth="yes"/>
      <point x="480.4947368421053" y="623.3578947368421"/>
      <point x="404.4526315789474" y="697.7894736842105"/>
      <point x="270.11578947368423" y="697.7894736842105" type="curve" smooth="yes"/>
      <point x="225.83157894736843" y="697.7894736842105"/>
      <point x="102.46315789473684" y="658.578947368421"/>
      <point x="46.95789473684211" y="639.2947368421053" type="curve"/>
      <point x="55.10526315789474" y="569.9052631578948" type="line"/>
      <point x="140.09473684210525" y="605.2947368421053"/>
      <point x="237.67368421052632" y="637.5157894736842"/>
      <point x="261.1684210526316" y="637.5157894736842" type="curve"/>
      <point x="362.3578947368421" y="636.1578947368421"/>
      <point x="412.63157894736844" y="590.421052631579"/>
      <point x="412.63157894736844" y="497.87368421052633" type="curve" smooth="yes"/>
      <point x="412.63157894736844" y="391.38947368421054"/>
      <point x="324.0315789473684" y="291.0842105263158"/>
      <point x="176.33684210526314" y="159.85263157894738" type="curve"/>
      <point x="134.4842105263158" y="124.89473684210526"/>
      <point x="91.98947368421052" y="89.29473684210527"/>
      <point x="50.136842105263156" y="54.33684210526316" type="curve"/>
    </contour>
  </outline>
</glyph>
<glyph name="four" format="2">
  <advance width="596.0344827586207"/>
  <unicode hex="0034"/>
  <outline>
    <contour>
      <point x="363.1954022988506" y="0.0" type="curve"/>
      <point x="439.6206896551724" y="0.0" type="line"/>
      <point x="437.8390804597701" y="62.5632183908046"/>
      <point x="436.0574712643678" y="111.51724137931035"/>
      <point x="433.88505747126436" y="187.4712643678161" type="curve"/>
      <point x="433.88505747126436" y="444.17241379310343" type="line"/>
      <point x="436.0574712643678" y="522.1724137931035"/>
      <point x="437.8390804597701" y="602.1724137931035"/>
      <point x="439.6206896551724" y="685.1724137931035" type="curve"/>
      <point x="363.14942528735634" y="685.1724137931035" type="line"/>
      <point x="332.71264367816093" y="639.735632183908"/>
      <point x="301.27586206896547" y="592.9080459770115"/>
      <point x="270.8390804597701" y="547.471264367816" type="curve"/>
      <point x="181.57471264367817" y="420.98850574712645" type="line"/>
      <point x="135.13793103448276" y="357.11494252873564"/>
      <point x="74.0919540229885" y="273.02298850574715"/>
      <point x="31.873563218390803" y="214.97701149425288" type="curve"/>
      <point x="31.873563218390803" y="161.9655172413793" type="line"/>
      <point x="399.7011494252874" y="161.9655172413793" type="line"/>
      <point x="450.2183908045977" y="161.183908045977"/>
      <point x="523.9080459770115" y="159.79310344827584"/>
      <point x="570.0344827586207" y="158.4022988505747" type="curve"/>
      <point x="570.0344827586207" y="225.22988505747128" type="line"/>
      <point x="523.9080459770115" y="223.83908045977014"/>
      <point x="450.2183908045977" y="222.05747126436782"/>
      <point x="399.7011494252874" y="221.27586206896552" type="curve"/>
      <point x="385.91954022988506" y="221.27586206896552" type="line"/>
      <point x="86.83908045977012" y="221.27586206896552" type="line"/>
      <point x="93.79310344827586" y="196.33333333333334" type="line"/>
      <point x="125.22988505747126" y="242.3793103448276"/>
      <point x="155.27586206896552" y="287.4252873563218"/>
      <point x="186.71264367816093" y="333.86206896551727" type="curve"/>
      <point x="309.02298850574715" y="507.2183908045977" type="line"/>
      <point x="346.45977011494256" y="559.0919540229885"/>
      <point x="383.8965517241379" y="611.5747126436781"/>
      <point x="421.7241379310345" y="663.8390804597701" type="curve"/>
      <point x="366.14942528735634" y="650.2758620689655" type="line"/>
      <point x="367.32183908045977" y="578.448275862069"/>
      <point x="369.10344827586204" y="506.2298850574712"/>
      <point x="369.88505747126436" y="435.18390804597703" type="curve"/>
      <point x="369.88505747126436" y="201.5977011494253" type="line"/>
      <point x="368.32183908045977" y="187.4712643678161" type="line"/>
      <point x="366.14942528735634" y="111.51724137931035"/>
      <point x="364.97701149425285" y="62.5632183908046"/>
    </contour>
  </outline>
</glyph>
<glyph name="six" format="2">
  <advance width="604.080459770115"/>
  <unicode hex="0036"/>
  <outline>
    <contour>
      <point x="315.51724137931035" y="-10.172413793103448" type="curve" smooth="yes"/>
      <point x="470.9425287356322" y="-10.172413793103448"/>
      <point x="549.9425287356322" y="103.95402298850574"/>
      <point x="549.9425287356322" y="226.08045977011494" type="curve" smooth="yes"/>
      <point x="549.9425287356322" y="351.81609195402297"/>
      <point x="467.1609195402299" y="440.86206896551727"/>
      <point x="332.45977011494256" y="440.86206896551727" type="curve" smooth="yes"/>
      <point x="259.9310344827586" y="440.86206896551727"/>
      <point x="190.4022988505747" y="397.9425287356322"/>
      <point x="133.70114942528735" y="358.5057471264368" type="curve"/>
      <point x="120.13793103448276" y="359.5057471264368" type="line"/>
      <point x="109.14942528735632" y="333.7816091954023"/>
      <point x="108.75862068965517" y="316.5632183908046"/>
      <point x="120.52873563218391" y="288.5287356321839" type="curve"/>
      <point x="187.58620689655172" y="349.75862068965523"/>
      <point x="266.8620689655172" y="382.0689655172414"/>
      <point x="318.39080459770116" y="383.0689655172414" type="curve"/>
      <point x="433.41379310344826" y="381.28735632183907"/>
      <point x="483.7701149425287" y="311.62068965517244"/>
      <point x="483.7701149425287" y="223.3448275862069" type="curve" smooth="yes"/>
      <point x="483.7701149425287" y="134.67816091954023"/>
      <point x="432.41379310344826" y="52.356321839080465"/>
      <point x="313.5632183908046" y="49.96551724137932" type="curve"/>
      <point x="190.32183908045977" y="53.52873563218392"/>
      <point x="124.13793103448276" y="143.24137931034483"/>
      <point x="124.13793103448276" y="324.51724137931035" type="curve" smooth="yes"/>
      <point x="124.13793103448276" y="527.7126436781609"/>
      <point x="186.5402298850575" y="634.6436781609195"/>
      <point x="327.2068965517241" y="637.4252873563219" type="curve"/>
      <point x="347.2528735632184" y="637.4252873563219"/>
      <point x="429.9425287356322" y="611.2528735632184"/>
      <point x="501.2068965517241" y="581.5977011494252" type="curve"/>
      <point x="510.1609195402299" y="648.0804597701149" type="line"/>
      <point x="464.2068965517241" y="664.9080459770115"/>
      <point x="360.6896551724138" y="697.9540229885057"/>
      <point x="324.08045977011494" y="697.9540229885057" type="curve" smooth="yes"/>
      <point x="152.29885057471265" y="697.9540229885057"/>
      <point x="58.747126436781606" y="564.9425287356322"/>
      <point x="58.747126436781606" y="326.2988505747126" type="curve" smooth="yes"/>
      <point x="58.747126436781606" y="108.2183908045977"/>
      <point x="150.91954022988506" y="-10.172413793103448"/>
    </contour>
  </outline>
</glyph>
<glyph name="seven" format="2">
  <advance width="522.0947368421052"/>
  <unicode hex="0037"/>
  <outline>
    <contour>
      <point x="112.26315789473684" y="0.0" type="curve"/>
      <point x="195.56842105263158" y="0.0" type="line"/>
      <point x="231.52631578947367" y="83.3157894736842"/>
      <point x="267.1263157894737" y="166.9157894736842"/>
      <point x="302.2631578947368" y="248.58947368421053" type="curve"/>
      <point x="367.22105263157897" y="390.11578947368423" type="line"/>
      <point x="406.2526315789474" y="474.6421052631579"/>
      <point x="442.46315789473687" y="551.7052631578947"/>
      <point x="480.6736842105263" y="632.9473684210526" type="curve"/>
      <point x="480.6736842105263" y="685.0736842105263" type="line"/>
      <point x="25.0" y="685.0736842105263" type="line"/>
      <point x="25.0" y="618.7894736842105" type="line"/>
      <point x="110.42105263157895" y="621.042105263158"/>
      <point x="196.02105263157895" y="623.4736842105264"/>
      <point x="280.62105263157895" y="625.7263157894737" type="curve"/>
      <point x="423.89473684210526" y="625.7263157894737" type="line"/>
      <point x="406.5894736842105" y="641.6315789473684" type="line"/>
      <point x="383.55789473684206" y="589.6"/>
      <point x="361.34736842105264" y="538.2105263157895"/>
      <point x="339.13684210526316" y="486.17894736842106" type="curve"/>
      <point x="241.43157894736842" y="274.5157894736842" type="line"/>
      <point x="199.04210526315788" y="184.55789473684212"/>
      <point x="155.65263157894736" y="91.77894736842106"/>
    </contour>
  </outline>
</glyph>
<glyph name="eight" format="2">
  <advance width="603.8620689655172"/>
  <unicode hex="0038"/>
  <outline>
    <contour>
      <point x="302.1264367816092" y="-10.172413793103448" type="curve" smooth="yes"/>
      <point x="469.7701149425287" y="-10.172413793103448"/>
      <point x="549.7241379310345" y="79.04597701149426"/>
      <point x="549.7241379310345" y="191.7816091954023" type="curve" smooth="yes"/>
      <point x="549.7241379310345" y="304.82758620689657"/>
      <point x="466.632183908046" y="357.04597701149424"/>
      <point x="406.67816091954023" y="369.82758620689657" type="curve"/>
      <point x="406.67816091954023" y="377.39080459770116" type="line"/>
      <point x="467.2413793103448" y="394.0"/>
      <point x="525.6781609195402" y="447.4367816091954"/>
      <point x="525.6781609195402" y="529.0459770114943" type="curve" smooth="yes"/>
      <point x="525.6781609195402" y="630.3908045977012"/>
      <point x="437.7241379310345" y="697.9540229885057"/>
      <point x="302.1264367816092" y="697.9540229885057" type="curve" smooth="yes"/>
      <point x="166.13793103448276" y="697.9540229885057"/>
      <point x="78.183908045977" y="630.3908045977012"/>
      <point x="78.183908045977" y="529.0459770114943" type="curve" smooth="yes"/>
      <point x="78.183908045977" y="447.4367816091954"/>
      <point x="136.6206896551724" y="394.0"/>
      <point x="196.57471264367817" y="377.39080459770116" type="curve"/>
      <point x="196.57471264367817" y="369.82758620689657" type="line"/>
      <point x="137.22988505747128" y="357.04597701149424"/>
      <point x="54.13793103448276" y="305.2183908045977"/>
      <point x="54.13793103448276" y="191.7816091954023" type="curve" smooth="yes"/>
      <point x="54.13793103448276" y="79.04597701149426"/>
      <point x="134.09195402298852" y="-10.172413793103448"/>
    </contour>
    <contour>
      <point x="302.1264367816092" y="50.356321839080465" type="curve"/>
      <point x="173.88505747126436" y="52.13793103448276"/>
      <point x="120.3103448275862" y="112.97701149425288"/>
      <point x="120.3103448275862" y="196.4712643678161" type="curve" smooth="yes"/>
      <point x="120.3103448275862" y="294.8390804597701"/>
      <point x="199.80459770114942" y="339.8045977011494"/>
      <point x="301.735632183908" y="341.97701149425285" type="curve"/>
      <point x="404.0574712643678" y="339.8045977011494"/>
      <point x="483.55172413793105" y="294.8390804597701"/>
      <point x="483.55172413793105" y="196.4712643678161" type="curve" smooth="yes"/>
      <point x="483.55172413793105" y="112.97701149425288"/>
      <point x="429.97701149425285" y="52.13793103448276"/>
    </contour>
    <contour>
      <point x="302.1264367816092" y="396.98850574712645" type="curve"/>
      <point x="200.367816091954" y="399.1609195402299"/>
      <point x="143.57471264367817" y="449.17241379310343"/>
      <point x="143.57471264367817" y="522.6206896551724" type="curve" smooth="yes"/>
      <point x="143.57471264367817" y="597.4597701149426"/>
      <point x="205.58620689655172" y="636.8160919540229"/>
      <point x="302.1264367816092" y="638.5977011494252" type="curve"/>
      <point x="397.6666666666667" y="636.8160919540229"/>
      <point x="460.67816091954023" y="597.4597701149426"/>
      <point x="460.67816091954023" y="522.6206896551724" type="curve" smooth="yes"/>
      <point x="460.67816091954023" y="449.17241379310343"/>
      <point x="402.88505747126436" y="399.1609195402299"/>
    </contour>
  </outline>
</glyph>
<glyph name="less" format="2">
  <advance width="565.3684210526316"/>
  <unicode hex="003C"/>
  <outline>
    <contour>
      <point x="500.7368421052632" y="74.72631578947369" type="curve"/>
      <point x="500.7368421052632" y="145.93684210526317" type="line"/>
      <point x="427.4631578947368" y="176.0"/>
      <point x="347.62105263157895" y="209.34736842105264"/>
      <point x="272.70526315789476" y="240.23157894736843" type="curve"/>
      <point x="151.90526315789475" y="292.7894736842105" type="line"/>
      <point x="151.90526315789475" y="300.57894736842104" type="line"/>
      <point x="272.70526315789476" y="353.13684210526316" type="line"/>
      <point x="347.62105263157895" y="384.0210526315789"/>
      <point x="427.4631578947368" y="417.3684210526316"/>
      <point x="500.7368421052632" y="447.43157894736845" type="curve"/>
      <point x="500.7368421052632" y="518.6421052631579" type="line"/>
      <point x="439.33684210526314" y="490.9263157894737"/>
      <point x="379.36842105263156" y="463.7473684210526"/>
      <point x="331.3263157894737" y="442.0315789473684" type="curve"/>
      <point x="232.4" y="399.17894736842106" type="line"/>
      <point x="181.89473684210526" y="378.53684210526313"/>
      <point x="124.85263157894737" y="354.89473684210526"/>
      <point x="64.63157894736842" y="330.25263157894733" type="curve"/>
      <point x="64.63157894736842" y="263.11578947368423" type="line"/>
      <point x="124.85263157894737" y="239.29473684210524"/>
      <point x="183.53684210526316" y="214.83157894736843"/>
      <point x="232.4" y="194.18947368421053" type="curve"/>
      <point x="331.3263157894737" y="151.33684210526314" type="line"/>
      <point x="381.0105263157895" y="128.79999999999998"/>
      <point x="440.9789473684211" y="101.62105263157895"/>
    </contour>
  </outline>
</glyph>
<glyph name="equal" format="2">
  <advance width="565.3684210526316"/>
  <unicode hex="003D"/>
  <outline>
    <contour>
      <point x="66.42105263157895" y="155.64210526315787" type="line"/>
      <point x="127.46315789473684" y="156.99999999999997"/>
      <point x="196.07368421052632" y="158.3578947368421"/>
      <point x="235.01052631578946" y="158.7157894736842" type="curve"/>
      <point x="330.3578947368421" y="158.7157894736842" type="line"/>
      <point x="369.2947368421053" y="158.3578947368421"/>
      <point x="437.90526315789475" y="156.99999999999997"/>
      <point x="498.94736842105266" y="155.64210526315787" type="curve"/>
      <point x="498.94736842105266" y="220.42105263157896" type="line"/>
      <point x="437.90526315789475" y="219.06315789473686"/>
      <point x="369.2947368421053" y="217.70526315789473"/>
      <point x="330.3578947368421" y="217.34736842105264" type="curve"/>
      <point x="235.01052631578946" y="217.34736842105264" type="line"/>
      <point x="196.07368421052632" y="217.70526315789473"/>
      <point x="127.46315789473684" y="219.06315789473686"/>
      <point x="66.42105263157895" y="220.42105263157896" type="curve"/>
    </contour>
    <contour>
      <point x="66.42105263157895" y="374.58947368421053" type="line"/>
      <point x="127.46315789473684" y="375.94736842105266"/>
      <point x="196.07368421052632" y="377.30526315789473"/>
      <point x="235.01052631578946" y="377.66315789473686" type="curve"/>
      <point x="330.3578947368421" y="377.66315789473686" type="line"/>
      <point x="369.2947368421053" y="377.30526315789473"/>
      <point x="437.90526315789475" y="375.94736842105266"/>
      <point x="498.94736842105266" y="374.58947368421053" type="curve"/>
      <point x="498.94736842105266" y="439.36842105263156" type="line"/>
      <point x="437.90526315789475" y="438.01052631578943"/>
      <point x="369.2947368421053" y="436.65263157894736"/>
      <point x="330.3578947368421" y="436.29473684210524" type="curve"/>
      <point x="235.01052631578946" y="436.29473684210524" type="line"/>
      <point x="196.07368421052632" y="436.65263157894736"/>
      <point x="127.46315789473684" y="438.01052631578943"/>
      <point x="66.42105263157895" y="439.36842105263156" type="curve"/>
    </contour>
  </outline>
</glyph>
<glyph name="greater" format="2">
  <advance width="565.3684210526316"/>
  <unicode hex="003E"/>
  <outline>
    <contour>
      <point x="64.63157894736842" y="74.72631578947369" type="line"/>
      <point x="126.03157894736842" y="102.4421052631579"/>
      <point x="186.0" y="129.62105263157895"/>
      <point x="234.0421052631579" y="151.33684210526314" type="curve"/>
      <point x="332.9684210526316" y="194.18947368421053" type="line"/>
      <point x="383.4736842105263" y="214.83157894736843"/>
      <point x="440.5157894736842" y="238.4736842105263"/>
      <point x="500.7368421052632" y="263.11578947368423" type="curve"/>
      <point x="500.7368421052632" y="330.25263157894733" type="line"/>
      <point x="440.5157894736842" y="354.0736842105263"/>
      <point x="381.8315789473684" y="378.53684210526313"/>
      <point x="332.9684210526316" y="399.17894736842106" type="curve"/>
      <point x="234.0421052631579" y="442.0315789473684" type="line"/>
      <point x="184.3578947368421" y="464.56842105263155"/>
      <point x="124.38947368421053" y="491.7473684210526"/>
      <point x="64.63157894736842" y="518.6421052631579" type="curve"/>
      <point x="64.63157894736842" y="447.43157894736845" type="line"/>
      <point x="137.90526315789475" y="417.3684210526316"/>
      <point x="217.7473684210526" y="384.0210526315789"/>
      <point x="292.66315789473686" y="353.13684210526316" type="curve"/>
      <point x="413.46315789473687" y="300.57894736842104" type="line"/>
      <point x="413.46315789473687" y="292.7894736842105" type="line"/>
      <point x="292.66315789473686" y="240.23157894736843" type="line"/>
      <point x="217.7473684210526" y="209.34736842105264"/>
      <point x="137.90526315789475" y="176.0"/>
      <point x="64.63157894736842" y="145.93684210526317" type="curve"/>
    </contour>
  </outline>
</glyph>
<glyph name="at" format="2">
  <advance width="879.8315789473684"/>
  <unicode hex="0040"/>
  <outline>
    <contour>
      <point x="471.7894736842105" y="-128.26315789473685" type="curve" smooth="yes"/>
      <point x="536.1473684210526" y="-128.26315789473685"/>
      <point x="662.6105263157896" y="-84.51578947368421"/>
      <point x="754.1473684210526" y="-54.768421052631574" type="curve"/>
      <point x="754.1473684210526" y="0.6631578947368416" type="line"/>
      <point x="641.0" y="-42.231578947368426"/>
      <point x="519.9263157894737" y="-79.15789473684211"/>
      <point x="471.7894736842105" y="-81.33684210526316" type="curve"/>
      <point x="191.2315789473684" y="-77.97894736842106"/>
      <point x="65.73684210526315" y="117.3578947368421"/>
      <point x="111.45263157894738" y="333.89473684210526" type="curve" smooth="yes"/>
      <point x="153.30526315789473" y="532.0842105263158"/>
      <point x="291.0" y="619.9157894736842"/>
      <point x="466.7894736842105" y="623.2736842105263" type="curve"/>
      <point x="685.7052631578947" y="619.9157894736842"/>
      <point x="808.4842105263158" y="460.1894736842105"/>
      <point x="770.2" y="254.97894736842105" type="curve" smooth="yes"/>
      <point x="763.0947368421052" y="217.45263157894738"/>
      <point x="673.2210526315789" y="113.4"/>
      <point x="640.1157894736842" y="110.89473684210526" type="curve"/>
      <point x="588.2315789473685" y="114.07368421052631"/>
      <point x="567.0947368421052" y="143.96842105263158"/>
      <point x="579.5578947368421" y="205.56842105263158" type="curve"/>
      <point x="608.8" y="346.3157894736842" type="line"/>
      <point x="620.2315789473686" y="386.3578947368421"/>
      <point x="634.1263157894737" y="435.2526315789474"/>
      <point x="647.2" y="480.14736842105265" type="curve"/>
      <point x="590.5052631578947" y="476.2526315789474" type="line"/>
      <point x="574.9684210526316" y="421.2210526315789" type="line"/>
      <point x="568.5368421052632" y="421.2210526315789" type="line"/>
      <point x="533.7157894736841" y="451.65263157894736"/>
      <point x="475.8315789473684" y="485.9684210526316"/>
      <point x="434.58947368421053" y="485.9684210526316" type="curve" smooth="yes"/>
      <point x="340.94736842105266" y="485.9684210526316"/>
      <point x="269.2736842105263" y="413.9263157894737"/>
      <point x="246.16842105263157" y="302.5052631578947" type="curve" smooth="yes"/>
      <point x="220.98947368421054" y="182.17894736842106"/>
      <point x="269.13684210526316" y="71.92631578947369"/>
      <point x="387.63157894736844" y="71.92631578947369" type="curve" smooth="yes"/>
      <point x="419.12631578947367" y="71.92631578947369"/>
      <point x="474.08421052631576" y="102.67368421052632"/>
      <point x="519.621052631579" y="141.42105263157896" type="curve"/>
      <point x="525.8736842105263" y="141.42105263157896" type="line"/>
      <point x="536.0947368421052" y="101.31578947368422"/>
      <point x="568.8947368421053" y="62.28421052631579"/>
      <point x="646.578947368421" y="62.28421052631579" type="curve" smooth="yes"/>
      <point x="683.5473684210526" y="62.28421052631579"/>
      <point x="804.8421052631579" y="177.46315789473684"/>
      <point x="817.7368421052631" y="245.4" type="curve" smooth="yes"/>
      <point x="861.9894736842106" y="477.2315789473684"/>
      <point x="711.8736842105263" y="670.2"/>
      <point x="467.9684210526316" y="670.2" type="curve" smooth="yes"/>
      <point x="276.53684210526313" y="670.2"/>
      <point x="109.52631578947368" y="568.1263157894737"/>
      <point x="63.27368421052631" y="342.36842105263156" type="curve" smooth="yes"/>
      <point x="13.76842105263158" y="102.70526315789473"/>
      <point x="161.2421052631579" y="-128.26315789473685"/>
    </contour>
    <contour>
      <point x="400.7578947368421" y="123.57894736842105" type="curve"/>
      <point x="314.0736842105263" y="125.57894736842105"/>
      <point x="281.7263157894737" y="199.45263157894738"/>
      <point x="301.6842105263158" y="294.3157894736842" type="curve" smooth="yes"/>
      <point x="318.53684210526313" y="373.4736842105263"/>
      <point x="365.4526315789474" y="430.77894736842103"/>
      <point x="444.6421052631579" y="432.9578947368421" type="curve"/>
      <point x="477.98947368421057" y="431.6"/>
      <point x="526.042105263158" y="405.4315789473684"/>
      <point x="559.7789473684211" y="377.2631578947369" type="curve"/>
      <point x="521.8947368421053" y="202.05263157894737" type="line"/>
      <point x="481.6947368421052" y="155.38947368421051"/>
      <point x="429.35789473684207" y="126.11578947368422"/>
    </contour>
  </outline>
</glyph>
<glyph name="A" format="2">
  <advance width="683.2105263157895"/>
  <unicode hex="0041"/>
  <anchor x="341.69473684210527" y="0.0" name="bottom"/>
  <anchor x="656.9368421052632" y="0.0" name="ogonek"/>
  <anchor x="341.69473684210527" y="713.0" name="top"/>
  <outline>
    <contour>
      <point x="24.736842105263158" y="0.0" type="curve"/>
      <point x="110.39999999999999" y="0.0" type="line"/>
      <point x="139.56842105263158" y="86.2421052631579"/>
      <point x="171.20000000000002" y="178.41052631578947"/>
      <point x="199.54736842105262" y="263.0105263157895" type="curve"/>
      <point x="339.0842105263158" y="647.1157894736842" type="line"/>
      <point x="346.87368421052633" y="647.1157894736842" type="line"/>
      <point x="485.41052631578947" y="259.8315789473684" type="line"/>
      <point x="512.1157894736842" y="179.23157894736843"/>
      <point x="543.1052631578948" y="84.70526315789473"/>
      <point x="571.4526315789474" y="0.0" type="curve"/>
      <point x="658.0105263157894" y="0.0" type="line"/>
      <point x="628.3684210526316" y="76.17894736842105"/>
      <point x="594.9052631578948" y="161.17894736842106"/>
      <point x="563.4421052631579" y="241.0" type="curve"/>
      <point x="473.5578947368421" y="486.82105263157894" type="line"/>
      <point x="444.24210526315795" y="573.4631578947368"/>
      <point x="421.3894736842105" y="641.2842105263157"/>
      <point x="397.35789473684207" y="713.0" type="curve"/>
      <point x="289.67368421052635" y="713.0" type="line"/>
      <point x="264.8210526315789" y="639.6421052631579"/>
      <point x="242.61052631578946" y="575.1052631578947"/>
      <point x="212.4736842105263" y="486.82105263157894" type="curve"/>
      <point x="121.76842105263157" y="241.82105263157894" type="line"/>
      <point x="91.30526315789473" y="165.6421052631579"/>
      <point x="56.02105263157895" y="77.82105263157895"/>
    </contour>
    <contour>
      <point x="153.46315789473684" y="187.43157894736842" type="line"/>
      <point x="535.578947368421" y="187.43157894736842" type="line"/>
      <point x="531.4631578947368" y="244.2736842105263" type="line"/>
      <point x="158.4736842105263" y="244.2736842105263" type="line"/>
    </contour>
  </outline>
</glyph>
<glyph name="B" format="2">
  <advance width="642.3793103448276"/>
  <unicode hex="0042"/>
  <outline>
    <contour>
      <point x="313.9080459770115" y="-2.5632183908045976" type="curve"/>
      <point x="529.2873563218391" y="-2.5632183908045976"/>
      <point x="598.4597701149426" y="85.04597701149426"/>
      <point x="598.4597701149426" y="194.95402298850576" type="curve" smooth="yes"/>
      <point x="598.4597701149426" y="306.60919540229884"/>
      <point x="525.1494252873564" y="352.0"/>
      <point x="454.89655172413796" y="365.3448275862069" type="curve"/>
      <point x="454.89655172413796" y="373.2988505747126" type="line"/>
      <point x="525.4597701149426" y="396.3448275862069"/>
      <point x="578.632183908046" y="452.95402298850576"/>
      <point x="578.632183908046" y="543.9540229885057" type="curve" smooth="yes"/>
      <point x="578.632183908046" y="651.1724137931034"/>
      <point x="510.41379310344826" y="715.1724137931035"/>
      <point x="354.7356321839081" y="715.1724137931035" type="curve"/>
      <point x="261.82758620689657" y="715.1724137931035"/>
      <point x="173.79310344827587" y="713.0"/>
      <point x="94.32183908045977" y="713.0" type="curve"/>
      <point x="96.10344827586208" y="632.7816091954023"/>
      <point x="97.27586206896552" y="563.9540229885058"/>
      <point x="99.44827586206897" y="475.0" type="curve"/>
      <point x="99.44827586206897" y="236.4367816091954" type="line"/>
      <point x="97.27586206896552" y="148.6551724137931"/>
      <point x="96.10344827586208" y="79.4367816091954"/>
      <point x="94.32183908045977" y="0.0" type="curve"/>
      <point x="165.6206896551724" y="0.0"/>
      <point x="216.0" y="-2.5632183908045976"/>
    </contour>
    <contour>
      <point x="170.96551724137933" y="59.91954022988506" type="line"/>
      <point x="169.96551724137933" y="120.49425287356323"/>
      <point x="169.57471264367817" y="178.02298850574712"/>
      <point x="168.57471264367817" y="247.3793103448276" type="curve"/>
      <point x="168.57471264367817" y="463.2758620689655" type="line"/>
      <point x="169.57471264367817" y="534.1954022988506"/>
      <point x="169.96551724137933" y="592.1149425287357"/>
      <point x="170.96551724137933" y="653.0804597701149" type="curve"/>
      <point x="349.6091954022989" y="653.0804597701149" type="line" smooth="yes"/>
      <point x="452.7586206896552" y="653.0804597701149"/>
      <point x="506.1609195402299" y="616.5977011494252"/>
      <point x="506.1609195402299" y="531.0574712643678" type="curve" smooth="yes"/>
      <point x="506.1609195402299" y="457.2183908045977"/>
      <point x="457.02298850574715" y="390.5057471264368"/>
      <point x="336.1724137931035" y="390.5057471264368" type="curve" smooth="yes"/>
      <point x="153.19540229885058" y="390.5057471264368" type="line"/>
      <point x="153.19540229885058" y="332.7586206896552" type="line"/>
      <point x="334.68965517241384" y="332.7586206896552" type="line" smooth="yes"/>
      <point x="454.71264367816093" y="332.7586206896552"/>
      <point x="525.5977011494253" y="295.44827586206895"/>
      <point x="525.5977011494253" y="199.2528735632184" type="curve" smooth="yes"/>
      <point x="525.5977011494253" y="113.14942528735632"/>
      <point x="469.41379310344826" y="59.91954022988506"/>
      <point x="319.2068965517241" y="59.91954022988506" type="curve" smooth="yes"/>
    </contour>
  </outline>
</glyph>
<glyph name="C" format="2">
  <advance width="685.1052631578947"/>
  <unicode hex="0043"/>
  <anchor x="399.5684210526316" y="0.0" name="bottom"/>
  <anchor x="391.3578947368421" y="713.0" name="top"/>
  <outline>
    <contour>
      <point x="416.10526315789474" y="-10.25263157894737" type="curve" smooth="yes"/>
      <point x="462.3157894736842" y="-10.25263157894737"/>
      <point x="566.4000000000001" y="16.957894736842103"/>
      <point x="628.0421052631579" y="38.88421052631579" type="curve"/>
      <point x="621.1473684210526" y="111.52631578947368" type="line"/>
      <point x="549.2947368421053" y="78.77894736842106"/>
      <point x="451.7578947368421" y="52.27368421052631"/>
      <point x="420.5473684210526" y="52.27368421052631" type="curve"/>
      <point x="226.90526315789475" y="55.45263157894736"/>
      <point x="126.46315789473684" y="189.2842105263158"/>
      <point x="126.46315789473684" y="357.46315789473687" type="curve" smooth="yes"/>
      <point x="126.46315789473684" y="544.0736842105263"/>
      <point x="243.18947368421053" y="658.7578947368421"/>
      <point x="401.2842105263158" y="661.9368421052632" type="curve"/>
      <point x="427.67368421052635" y="661.9368421052632"/>
      <point x="529.8210526315789" y="634.2210526315789"/>
      <point x="626.3578947368421" y="599.6842105263158" type="curve"/>
      <point x="633.5052631578948" y="671.5052631578948" type="line"/>
      <point x="570.4947368421052" y="690.578947368421"/>
      <point x="448.0315789473684" y="725.7157894736843"/>
      <point x="402.46315789473687" y="725.7157894736843" type="curve" smooth="yes"/>
      <point x="197.33684210526314" y="725.7157894736843"/>
      <point x="53.5578947368421" y="574.3894736842105"/>
      <point x="53.5578947368421" y="358.10526315789474" type="curve" smooth="yes"/>
      <point x="53.5578947368421" y="147.98947368421054"/>
      <point x="191.2421052631579" y="-10.25263157894737"/>
    </contour>
  </outline>
</glyph>
<glyph name="E" format="2">
  <advance width="593.344827586207"/>
  <unicode hex="0045"/>
  <anchor x="316.8735632183908" y="0.0" name="bottom"/>
  <anchor x="533.471264367816" y="0.0" name="ogonek"/>
  <anchor x="316.8735632183908" y="713.0" name="top"/>
  <anchor x="37.0" y="713.0" name="topleft"/>
  <outline>
    <contour>
      <point x="94.32183908045977" y="0.0" type="curve"/>
      <point x="174.70114942528735" y="0.0" type="line"/>
      <point x="174.70114942528735" y="9.64367816091954" type="line"/>
      <point x="172.52873563218392" y="89.47126436781609"/>
      <point x="170.74712643678163" y="159.29885057471265"/>
      <point x="168.57471264367817" y="246.68965517241378" type="curve"/>
      <point x="168.57471264367817" y="465.35632183908046" type="line"/>
      <point x="170.74712643678163" y="553.528735632184"/>
      <point x="172.52873563218392" y="623.1379310344828"/>
      <point x="174.70114942528735" y="703.3563218390805" type="curve"/>
      <point x="174.70114942528735" y="713.0" type="line"/>
      <point x="94.32183908045977" y="713.0" type="line"/>
      <point x="96.10344827586208" y="632.7816091954023"/>
      <point x="97.27586206896552" y="563.9540229885058"/>
      <point x="99.44827586206897" y="475.0" type="curve"/>
      <point x="99.44827586206897" y="236.4367816091954" type="line"/>
      <point x="97.27586206896552" y="148.6551724137931"/>
      <point x="96.10344827586208" y="79.4367816091954"/>
    </contour>
    <contour>
      <point x="159.05747126436782" y="0.0" type="line"/>
      <point x="534.6436781609195" y="0.0" type="line"/>
      <point x="534.6436781609195" y="68.2183908045977" type="line"/>
      <point x="460.7701149425288" y="66.04597701149426"/>
      <point x="382.2873563218391" y="63.65517241379311"/>
      <point x="293.1954022988506" y="61.48275862068966" type="curve"/>
      <point x="159.05747126436782" y="61.48275862068966" type="line"/>
    </contour>
    <contour>
      <point x="153.58620689655172" y="331.7586206896552" type="line"/>
      <point x="293.67816091954023" y="331.7586206896552" type="line"/>
      <point x="384.9425287356322" y="330.97701149425285"/>
      <point x="446.3793103448276" y="329.5862068965517"/>
      <point x="513.4252873563219" y="329.1954022988506" type="curve"/>
      <point x="513.4252873563219" y="396.2413793103448" type="line"/>
      <point x="449.98850574712645" y="394.8505747126437"/>
      <point x="387.33333333333337" y="393.45977011494256"/>
      <point x="294.2873563218391" y="391.67816091954023" type="curve"/>
      <point x="153.58620689655172" y="391.67816091954023" type="line"/>
    </contour>
    <contour>
      <point x="156.3218390804598" y="651.5172413793103" type="line"/>
      <point x="286.8505747126437" y="651.5172413793103" type="line"/>
      <point x="392.55172413793105" y="648.9540229885057"/>
      <point x="465.816091954023" y="646.9540229885057"/>
      <point x="534.080459770115" y="644.7816091954023" type="curve"/>
      <point x="534.080459770115" y="713.0" type="line"/>
      <point x="156.3218390804598" y="713.0" type="line"/>
    </contour>
  </outline>
</glyph>
<glyph name="F" format="2">
  <advance width="573.6842105263158"/>
  <unicode hex="0046"/>
  <outline>
    <contour>
      <point x="94.39999999999999" y="0.0" type="curve"/>
      <point x="174.5263157894737" y="0.0" type="line"/>
      <point x="172.63157894736844" y="79.74736842105263"/>
      <point x="170.73684210526318" y="148.67368421052632"/>
      <point x="168.66315789473686" y="236.38947368421051" type="curve"/>
      <point x="168.66315789473686" y="465.2" type="line"/>
      <point x="170.73684210526318" y="553.6315789473684"/>
      <point x="172.63157894736844" y="623.0947368421052"/>
      <point x="174.5263157894737" y="703.3789473684211" type="curve"/>
      <point x="174.5263157894737" y="713.0" type="line"/>
      <point x="94.39999999999999" y="713.0" type="line"/>
      <point x="96.29473684210527" y="632.7157894736843"/>
      <point x="97.18947368421051" y="563.7894736842105"/>
      <point x="99.44210526315788" y="474.82105263157894" type="curve"/>
      <point x="99.44210526315788" y="236.38947368421051" type="line"/>
      <point x="97.36842105263158" y="148.49473684210525"/>
      <point x="96.29473684210527" y="79.56842105263158"/>
    </contour>
    <contour>
      <point x="152.46315789473684" y="328.7473684210526" type="line"/>
      <point x="284.3157894736842" y="328.7473684210526" type="line"/>
      <point x="375.63157894736844" y="327.85263157894735"/>
      <point x="437.0210526315789" y="326.4947368421052"/>
      <point x="504.05263157894734" y="325.9578947368421" type="curve"/>
      <point x="504.05263157894734" y="393.34736842105264" type="line"/>
      <point x="440.8421052631579" y="391.98947368421057"/>
      <point x="377.8105263157895" y="390.4526315789474"/>
      <point x="285.13684210526316" y="388.7368421052632" type="curve"/>
      <point x="152.46315789473684" y="388.7368421052632" type="line"/>
    </contour>
    <contour>
      <point x="155.32631578947368" y="651.4" type="line"/>
      <point x="277.9263157894737" y="651.4" type="line"/>
      <point x="383.63157894736844" y="649.1473684210526"/>
      <point x="456.7684210526316" y="646.6105263157893"/>
      <point x="525.0842105263158" y="644.8947368421052" type="curve"/>
      <point x="525.0842105263158" y="713.0" type="line"/>
      <point x="155.32631578947368" y="713.0" type="line"/>
    </contour>
  </outline>
</glyph>
<glyph name="G" format="2">
  <advance width="734.3157894736842"/>
  <unicode hex="0047"/>
  <anchor x="399.5684210526316" y="0.0" name="bottom"/>
  <anchor x="399.5684210526316" y="713.0" name="top"/>
  <outline>
    <contour>
      <point x="432.06315789473683" y="-10.073684210526316" type="curve" smooth="yes"/>
      <point x="481.55789473684206" y="-10.073684210526316"/>
      <point x="598.7263157894737" y="13.31578947368421"/>
      <point x="665.3684210526316" y="31.063157894736843" type="curve"/>
      <point x="653.2842105263157" y="102.09473684210526" type="line"/>
      <point x="575.5368421052632" y="73.34736842105262"/>
      <point x="470.2842105263158" y="51.37894736842105"/>
      <point x="436.17894736842106" y="51.37894736842105" type="curve"/>
      <point x="220.97894736842105" y="54.5578947368421"/>
      <point x="126.10526315789474" y="186.10526315789474"/>
      <point x="126.10526315789474" y="358.10526315789474" type="curve" smooth="yes"/>
      <point x="126.10526315789474" y="546.0736842105263"/>
      <point x="243.44210526315788" y="658.9368421052632"/>
      <point x="406.2105263157895" y="661.9368421052632" type="curve"/>
      <point x="433.7789473684211" y="661.9368421052632"/>
      <point x="540.5368421052631" y="634.4"/>
      <point x="642.1473684210526" y="599.8631578947369" type="curve"/>
      <point x="649.2947368421053" y="670.9684210526316" type="line"/>
      <point x="583.2105263157895" y="690.4"/>
      <point x="454.4947368421053" y="725.7157894736843"/>
      <point x="406.56842105263155" y="725.7157894736843" type="curve" smooth="yes"/>
      <point x="194.8421052631579" y="725.7157894736843"/>
      <point x="53.5578947368421" y="572.7157894736843"/>
      <point x="53.5578947368421" y="358.2842105263158" type="curve" smooth="yes"/>
      <point x="53.5578947368421" y="149.77894736842106"/>
      <point x="184.13684210526316" y="-10.073684210526316"/>
    </contour>
    <contour>
      <point x="591.2526315789474" y="31.06315789473684" type="curve"/>
      <point x="665.3684210526316" y="31.063157894736843" type="line"/>
      <point x="663.8315789473685" y="100.49473684210527"/>
      <point x="663.1157894736842" y="149.46315789473684"/>
      <point x="661.7578947368421" y="201.25263157894736" type="curve"/>
      <point x="663.8315789473684" y="262.6842105263158"/>
      <point x="664.9052631578946" y="306.11578947368423"/>
      <point x="666.8" y="354.7263157894737" type="curve"/>
      <point x="588.642105263158" y="354.7263157894737" type="line"/>
      <point x="590.5368421052632" y="306.11578947368423"/>
      <point x="592.4315789473685" y="262.6842105263158"/>
      <point x="594.5052631578948" y="201.25263157894736" type="curve"/>
      <point x="593.1473684210526" y="149.46315789473684"/>
      <point x="592.7894736842105" y="100.85263157894738"/>
    </contour>
  </outline>
</glyph>
<glyph name="H" format="2">
  <advance width="751.9684210526316"/>
  <unicode hex="0048"/>
  <anchor x="376.0736842105263" y="0.0" name="bottom"/>
  <anchor x="376.0736842105263" y="357.0" name="center"/>
  <anchor x="376.0736842105263" y="713.0" name="top"/>
  <anchor x="37.252631578947366" y="713.0" name="topleft"/>
  <outline>
    <contour>
      <point x="576.3684210526316" y="0.0" type="curve"/>
      <point x="657.5684210526316" y="0.0" type="line"/>
      <point x="655.6736842105264" y="79.74736842105263"/>
      <point x="653.7789473684211" y="148.67368421052632"/>
      <point x="651.7052631578948" y="236.38947368421051" type="curve"/>
      <point x="651.7052631578948" y="474.82105263157894" type="line"/>
      <point x="653.9578947368421" y="563.7894736842105"/>
      <point x="655.6736842105264" y="632.7157894736843"/>
      <point x="657.5684210526316" y="713.0" type="curve"/>
      <point x="576.3684210526316" y="713.0" type="line"/>
      <point x="578.2631578947368" y="632.7157894736843"/>
      <point x="579.1578947368422" y="563.7894736842105"/>
      <point x="581.4105263157895" y="474.82105263157894" type="curve"/>
      <point x="581.4105263157895" y="236.38947368421051" type="line"/>
      <point x="579.3368421052633" y="148.49473684210525"/>
      <point x="578.2631578947368" y="79.56842105263158"/>
    </contour>
    <contour>
      <point x="94.39999999999999" y="0.0" type="curve"/>
      <point x="175.6" y="0.0" type="line"/>
      <point x="173.70526315789473" y="79.74736842105263"/>
      <point x="171.81052631578947" y="148.67368421052632"/>
      <point x="169.73684210526315" y="236.38947368421051" type="curve"/>
      <point x="169.73684210526315" y="474.82105263157894" type="line"/>
      <point x="171.9894736842105" y="563.7894736842105"/>
      <point x="173.70526315789473" y="632.7157894736843"/>
      <point x="175.6" y="713.0" type="curve"/>
      <point x="94.39999999999999" y="713.0" type="line"/>
      <point x="96.29473684210527" y="632.7157894736843"/>
      <point x="97.18947368421051" y="563.7894736842105"/>
      <point x="99.44210526315788" y="474.82105263157894" type="curve"/>
      <point x="99.44210526315788" y="236.38947368421051" type="line"/>
      <point x="97.36842105263158" y="148.49473684210525"/>
      <point x="96.29473684210527" y="79.56842105263158"/>
    </contour>
    <contour>
      <point x="141.57894736842104" y="330.7157894736842" type="line"/>
      <point x="612.2105263157895" y="330.7157894736842" type="line"/>
      <point x="612.2105263157895" y="392.3157894736842" type="line"/>
      <point x="141.57894736842104" y="392.3157894736842" type="line"/>
    </contour>
  </outline>
</glyph>
<glyph name="I" format="2">
  <advance width="272.6842105263158"/>
  <unicode hex="0049"/>
  <anchor x="135.1263157894737" y="0.0" name="bottom"/>
  <anchor x="176.49473684210525" y="0.0" name="ogonek"/>
  <anchor x="135.1263157894737" y="713.0" name="top"/>
  <anchor x="35.92631578947368" y="713.0" name="topleft"/>
  <outline>
    <contour>
      <point x="95.29473684210527" y="0.0" type="curve"/>
      <point x="177.38947368421051" y="0.0" type="line"/>
      <point x="175.49473684210525" y="79.74736842105263"/>
      <point x="173.6" y="148.67368421052632"/>
      <point x="171.52631578947367" y="236.38947368421051" type="curve"/>
      <point x="171.52631578947367" y="474.82105263157894" type="line"/>
      <point x="173.77894736842103" y="563.7894736842105"/>
      <point x="175.49473684210525" y="632.7157894736843"/>
      <point x="177.38947368421051" y="713.0" type="curve"/>
      <point x="95.29473684210527" y="713.0" type="line"/>
      <point x="97.18947368421054" y="632.7157894736843"/>
      <point x="98.08421052631579" y="563.7894736842105"/>
      <point x="100.33684210526316" y="474.82105263157894" type="curve"/>
      <point x="100.33684210526316" y="236.38947368421051" type="line"/>
      <point x="98.26315789473685" y="148.49473684210525"/>
      <point x="97.18947368421054" y="79.56842105263158"/>
    </contour>
  </outline>
</glyph>
<glyph name="J" format="2">
  <advance width="286.38947368421054"/>
  <unicode hex="004A"/>
  <anchor x="148.7263157894737" y="0.0" name="bottom"/>
  <anchor x="148.7263157894737" y="713.0" name="top"/>
  <outline>
    <contour>
      <point x="28.242105263157896" y="-158.56842105263158" type="curve"/>
      <point x="99.37894736842105" y="-158.56842105263158" type="line"/>
      <point x="126.2736842105263" y="-107.46315789473685"/>
      <point x="188.55789473684212" y="16.13684210526316"/>
      <point x="188.55789473684212" y="42.873684210526314" type="curve" smooth="yes"/>
      <point x="188.55789473684212" y="122.37894736842107"/>
      <point x="185.23157894736843" y="205.42105263157896"/>
      <point x="185.23157894736843" y="286.53684210526313" type="curve"/>
      <point x="185.23157894736843" y="474.82105263157894" type="line"/>
      <point x="186.66315789473686" y="563.7894736842105"/>
      <point x="187.5578947368421" y="632.7157894736843"/>
      <point x="191.09473684210528" y="713.0" type="curve"/>
      <point x="109.89473684210526" y="713.0" type="line"/>
      <point x="112.61052631578949" y="632.7157894736843"/>
      <point x="113.50526315789473" y="563.7894736842105"/>
      <point x="114.93684210526315" y="474.82105263157894" type="curve"/>
      <point x="114.93684210526315" y="261.0842105263158" type="line"/>
      <point x="112.57894736842104" y="38.30526315789474" type="line"/>
      <point x="82.1578947368421" y="-33.02105263157895"/>
      <point x="55.199999999999996" y="-95.8842105263158"/>
    </contour>
  </outline>
</glyph>
<glyph name="K" format="2">
  <advance width="662.5684210526315"/>
  <unicode hex="004B"/>
  <anchor x="339.87368421052633" y="0.0" name="bottom"/>
  <anchor x="339.87368421052633" y="713.0" name="top"/>
  <outline>
    <contour>
      <point x="535.0526315789474" y="0.0" type="curve"/>
      <point x="638.9052631578948" y="0.0" type="line"/>
      <point x="576.021052631579" y="61.147368421052626"/>
      <point x="477.28421052631575" y="157.90526315789472"/>
      <point x="403.29473684210524" y="230.41052631578947" type="curve"/>
      <point x="247.10526315789474" y="388.6736842105263" type="line"/>
      <point x="248.0" y="357.85263157894735" type="line"/>
      <point x="387.62105263157895" y="494.10526315789474" type="line"/>
      <point x="462.7894736842105" y="565.8210526315789"/>
      <point x="538.4210526315788" y="637.0"/>
      <point x="618.8736842105262" y="713.0" type="curve"/>
      <point x="518.1684210526316" y="713.0" type="line"/>
      <point x="442.33684210526314" y="636.9368421052632"/>
      <point x="389.7473684210526" y="584.0842105263158"/>
      <point x="330.87368421052633" y="524.4105263157895" type="curve"/>
      <point x="201.58947368421053" y="398.0315789473684" type="line"/>
      <point x="160.1263157894737" y="398.0315789473684" type="line"/>
      <point x="160.1263157894737" y="338.7578947368421" type="line"/>
      <point x="201.4842105263158" y="338.7578947368421" type="line"/>
      <point x="351.4736842105263" y="188.8421052631579" type="line"/>
      <point x="408.1684210526316" y="130.81052631578947"/>
      <point x="465.6842105263158" y="71.13684210526316"/>
    </contour>
    <contour>
      <point x="94.39999999999999" y="0.0" type="curve"/>
      <point x="175.42105263157896" y="0.0" type="line"/>
      <point x="173.5263157894737" y="79.74736842105263"/>
      <point x="171.63157894736844" y="148.67368421052632"/>
      <point x="169.55789473684212" y="236.38947368421051" type="curve"/>
      <point x="169.55789473684212" y="474.82105263157894" type="line"/>
      <point x="171.81052631578947" y="563.7894736842105"/>
      <point x="173.5263157894737" y="632.7157894736843"/>
      <point x="175.42105263157896" y="713.0" type="curve"/>
      <point x="94.39999999999999" y="713.0" type="line"/>
      <point x="96.29473684210527" y="632.7157894736843"/>
      <point x="97.18947368421051" y="563.7894736842105"/>
      <point x="99.44210526315788" y="474.82105263157894" type="curve"/>
      <point x="99.44210526315788" y="236.38947368421051" type="line"/>
      <point x="97.36842105263158" y="148.49473684210525"/>
      <point x="96.29473684210527" y="79.56842105263158"/>
    </contour>
  </outline>
</glyph>
<glyph name="L" format="2">
  <advance width="568.3263157894736"/>
  <unicode hex="004C"/>
  <anchor x="315.2421052631579" y="0.0" name="bottom"/>
  <anchor x="419.69473684210527" y="357.53684210526313" name="center"/>
  <anchor x="195.42105263157896" y="713.0" name="top"/>
  <anchor x="278.37894736842105" y="495.4315789473684" name="topright"/>
  <outline>
    <contour>
      <point x="94.39999999999999" y="0.0" type="curve"/>
      <point x="175.6" y="0.0" type="line"/>
      <point x="175.6" y="9.621052631578948" type="line"/>
      <point x="173.70526315789473" y="89.36842105263158"/>
      <point x="171.81052631578947" y="158.29473684210527"/>
      <point x="169.73684210526315" y="246.0105263157895" type="curve"/>
      <point x="169.73684210526315" y="474.82105263157894" type="line"/>
      <point x="171.9894736842105" y="563.7894736842105"/>
      <point x="173.70526315789473" y="632.7157894736843"/>
      <point x="175.6" y="713.0" type="curve"/>
      <point x="94.39999999999999" y="713.0" type="line"/>
      <point x="96.29473684210527" y="632.7157894736843"/>
      <point x="97.18947368421051" y="563.7894736842105"/>
      <point x="99.44210526315788" y="474.82105263157894" type="curve"/>
      <point x="99.44210526315788" y="236.38947368421051" type="line"/>
      <point x="97.36842105263158" y="148.49473684210525"/>
      <point x="96.29473684210527" y="79.56842105263158"/>
    </contour>
    <contour>
      <point x="159.0842105263158" y="0.0" type="line"/>
      <point x="532.8315789473685" y="0.0" type="line"/>
      <point x="532.8315789473685" y="71.14736842105263" type="line"/>
      <point x="452.58947368421053" y="68.89473684210527"/>
      <point x="384.81052631578945" y="67.0"/>
      <point x="267.7157894736842" y="63.38947368421053" type="curve"/>
      <point x="159.0842105263158" y="63.38947368421053" type="line"/>
    </contour>
  </outline>
</glyph>
<glyph name="M" format="2">
  <advance width="953.7578947368421"/>
  <unicode hex="004D"/>
  <anchor x="476.7894736842105" y="0.0" name="bottom"/>
  <anchor x="476.7894736842105" y="713.0" name="top"/>
  <outline>
    <contour>
      <point x="65.08421052631579" y="0.0" type="curve"/>
      <point x="145.24210526315792" y="0.0" type="line"/>
      <point x="159.02105263157895" y="135.0421052631579"/>
      <point x="171.15789473684208" y="254.8736842105263"/>
      <point x="181.65263157894736" y="359.3157894736842" type="curve"/>
      <point x="208.96842105263158" y="584.5894736842105" type="line"/>
      <point x="214.29473684210527" y="584.5894736842105" type="line"/>
      <point x="314.58947368421053" y="339.82105263157894" type="line"/>
      <point x="359.61052631578946" y="225.27368421052628"/>
      <point x="410.37894736842105" y="95.58947368421053"/>
      <point x="447.8315789473684" y="0.0" type="curve"/>
      <point x="508.5368421052632" y="0.0" type="line"/>
      <point x="547.9157894736842" y="102.15789473684211"/>
      <point x="595.042105263158" y="222.81052631578945"/>
      <point x="641.1684210526316" y="341.46315789473687" type="curve"/>
      <point x="739.4947368421053" y="584.5894736842105" type="line"/>
      <point x="744.8210526315789" y="584.5894736842105" type="line"/>
      <point x="772.1368421052632" y="359.3157894736842" type="line"/>
      <point x="782.6315789473684" y="254.05263157894737"/>
      <point x="794.9473684210527" y="132.4"/>
      <point x="807.9052631578948" y="0.0" type="curve"/>
      <point x="888.6736842105263" y="0.0" type="line"/>
      <point x="877.7789473684211" y="79.56842105263158"/>
      <point x="866.8842105263158" y="150.21052631578948"/>
      <point x="854.6315789473684" y="236.38947368421051" type="curve"/>
      <point x="825.9157894736842" y="472.82105263157894" type="line"/>
      <point x="816.6315789473684" y="560.4631578947368"/>
      <point x="809.1684210526316" y="632.5368421052632"/>
      <point x="800.8842105263158" y="713.0" type="curve"/>
      <point x="718.7578947368421" y="713.0" type="line"/>
      <point x="677.8421052631578" y="606.3052631578947"/>
      <point x="639.2842105263157" y="506.57894736842104"/>
      <point x="601.1894736842105" y="408.77894736842103" type="curve"/>
      <point x="481.40000000000003" y="116.2" type="line"/>
      <point x="475.43157894736845" y="116.2" type="line"/>
      <point x="354.74736842105267" y="408.77894736842103" type="line"/>
      <point x="316.4736842105263" y="507.4"/>
      <point x="277.5578947368421" y="606.4842105263158"/>
      <point x="236.46315789473684" y="713.0" type="curve"/>
      <point x="152.62105263157895" y="713.0" type="line"/>
      <point x="144.33684210526317" y="630.7157894736843"/>
      <point x="137.05263157894737" y="556.3578947368421"/>
      <point x="128.76842105263157" y="472.82105263157894" type="curve"/>
      <point x="99.58947368421052" y="236.38947368421051" type="line"/>
      <point x="86.69473684210526" y="149.74736842105264"/>
      <point x="76.62105263157895" y="79.21052631578948"/>
    </contour>
  </outline>
</glyph>
<glyph name="P" format="2">
  <advance width="622.1149425287357"/>
  <unicode hex="0050"/>
  <outline>
    <contour>
      <point x="316.32183908045977" y="292.0229885057471" type="curve"/>
      <point x="515.4597701149426" y="292.0229885057471"/>
      <point x="577.5862068965517" y="386.97701149425285"/>
      <point x="577.5862068965517" y="514.448275862069" type="curve" smooth="yes"/>
      <point x="577.5862068965517" y="649.3448275862069"/>
      <point x="502.11494252873564" y="715.1724137931035"/>
      <point x="342.6436781609196" y="715.1724137931035" type="curve"/>
      <point x="237.04597701149427" y="714.5632183908046"/>
      <point x="153.01149425287358" y="713.0"/>
      <point x="94.32183908045977" y="713.0" type="curve"/>
      <point x="157.183908045977" y="653.0804597701149" type="line"/>
      <point x="337.9080459770115" y="653.0804597701149" type="line" smooth="yes"/>
      <point x="410.3103448275862" y="653.0804597701149"/>
      <point x="505.89655172413796" y="642.1264367816092"/>
      <point x="505.89655172413796" y="514.0574712643678" type="curve" smooth="yes"/>
      <point x="505.89655172413796" y="398.86206896551727"/>
      <point x="444.66666666666663" y="352.7241379310345"/>
      <point x="304.7701149425288" y="352.7241379310345" type="curve" smooth="yes"/>
      <point x="159.27586206896552" y="352.7241379310345" type="line"/>
      <point x="159.27586206896552" y="293.41379310344826" type="line"/>
      <point x="198.49425287356323" y="293.41379310344826"/>
      <point x="266.1034482758621" y="292.0229885057471"/>
    </contour>
    <contour>
      <point x="94.32183908045977" y="0.0" type="curve"/>
      <point x="174.70114942528735" y="0.0" type="line"/>
      <point x="172.91954022988506" y="79.82758620689656"/>
      <point x="170.7471264367816" y="148.6551724137931"/>
      <point x="168.9655172413793" y="236.4367816091954" type="curve"/>
      <point x="168.9655172413793" y="465.35632183908046" type="line"/>
      <point x="170.7471264367816" y="553.528735632184"/>
      <point x="172.91954022988506" y="623.1379310344828"/>
      <point x="174.70114942528735" y="703.3563218390805" type="curve"/>
      <point x="94.32183908045977" y="713.0" type="line"/>
      <point x="96.10344827586208" y="632.7816091954023"/>
      <point x="97.27586206896552" y="563.9540229885058"/>
      <point x="99.44827586206897" y="475.0" type="curve"/>
      <point x="99.44827586206897" y="236.4367816091954" type="line"/>
      <point x="97.27586206896552" y="148.6551724137931"/>
      <point x="96.10344827586208" y="79.4367816091954"/>
    </contour>
  </outline>
</glyph>
<glyph name="S" format="2">
  <advance width="582.4252873563219"/>
  <unicode hex="0053"/>
  <anchor x="295.735632183908" y="0.0" name="bottom"/>
  <anchor x="295.735632183908" y="713.0" name="top"/>
  <outline>
    <contour>
      <point x="300.4367816091954" y="-10.172413793103448" type="curve" smooth="yes"/>
      <point x="466.5977011494253" y="-10.172413793103448"/>
      <point x="539.5057471264367" y="78.04597701149426"/>
      <point x="539.5057471264367" y="190.4712643678161" type="curve" smooth="yes"/>
      <point x="539.5057471264367" y="292.0689655172414"/>
      <point x="485.11494252873564" y="340.0689655172414"/>
      <point x="313.5057471264368" y="395.5057471264368" type="curve" smooth="yes"/>
      <point x="186.35632183908046" y="436.64367816091954"/>
      <point x="132.2183908045977" y="465.9080459770115"/>
      <point x="132.2183908045977" y="538.7471264367816" type="curve" smooth="yes"/>
      <point x="132.2183908045977" y="625.551724137931"/>
      <point x="206.10344827586206" y="661.0804597701149"/>
      <point x="290.5977011494253" y="663.0804597701149" type="curve"/>
      <point x="312.81609195402297" y="663.0804597701149"/>
      <point x="404.3793103448276" y="636.4712643678162"/>
      <point x="487.7241379310345" y="605.8620689655172" type="curve"/>
      <point x="494.67816091954023" y="676.2988505747126" type="line"/>
      <point x="438.5977011494253" y="692.9080459770114"/>
      <point x="329.86206896551727" y="725.7816091954023"/>
      <point x="286.95402298850576" y="725.7816091954023" type="curve" smooth="yes"/>
      <point x="137.7471264367816" y="725.7816091954023"/>
      <point x="58.57471264367816" y="643.8275862068965"/>
      <point x="58.57471264367816" y="536.4022988505748" type="curve" smooth="yes"/>
      <point x="58.57471264367816" y="427.1954022988506"/>
      <point x="137.4022988505747" y="382.02298850574715"/>
      <point x="275.2758620689655" y="338.367816091954" type="curve" smooth="yes"/>
      <point x="396.9425287356322" y="300.0574712643678"/>
      <point x="466.2528735632184" y="268.18390804597703"/>
      <point x="466.2528735632184" y="187.3448275862069" type="curve" smooth="yes"/>
      <point x="466.2528735632184" y="89.05747126436782"/>
      <point x="391.97701149425285" y="54.13793103448276"/>
      <point x="300.04597701149424" y="52.13793103448276" type="curve"/>
      <point x="254.9080459770115" y="52.13793103448276"/>
      <point x="170.04597701149424" y="76.13793103448276"/>
      <point x="75.3103448275862" y="107.13793103448276" type="curve"/>
      <point x="67.74712643678161" y="36.91954022988505" type="line"/>
      <point x="152.31034482758622" y="12.873563218390803"/>
      <point x="249.82758620689654" y="-10.172413793103448"/>
    </contour>
  </outline>
</glyph>
<glyph name="T" format="2">
  <advance width="639.5052631578948"/>
  <unicode hex="0054"/>
  <anchor x="320.2526315789474" y="0.0" name="bottom"/>
  <anchor x="320.2526315789474" y="346.62105263157895" name="center"/>
  <anchor x="320.2526315789474" y="713.0" name="top"/>
  <outline>
    <contour>
      <point x="280.06315789473683" y="0.0" type="curve"/>
      <point x="361.0842105263158" y="0.0" type="line"/>
      <point x="359.18947368421055" y="79.74736842105263"/>
      <point x="357.2947368421053" y="148.67368421052632"/>
      <point x="355.22105263157897" y="236.38947368421051" type="curve"/>
      <point x="355.22105263157897" y="465.2" type="line"/>
      <point x="357.2947368421053" y="553.6315789473684"/>
      <point x="359.18947368421055" y="623.0947368421052"/>
      <point x="361.0842105263158" y="703.3789473684211" type="curve"/>
      <point x="361.0842105263158" y="713.0" type="line"/>
      <point x="279.2421052631579" y="713.0" type="line"/>
      <point x="279.2421052631579" y="703.3789473684211" type="line"/>
      <point x="281.13684210526316" y="623.0947368421052"/>
      <point x="283.0315789473684" y="553.6315789473684"/>
      <point x="285.10526315789474" y="465.2" type="curve"/>
      <point x="285.10526315789474" y="236.38947368421051" type="line"/>
      <point x="283.0315789473684" y="148.49473684210525"/>
      <point x="281.9578947368421" y="79.56842105263158"/>
    </contour>
    <contour>
      <point x="32.31578947368421" y="641.8526315789474" type="line"/>
      <point x="89.34736842105264" y="643.9263157894737"/>
      <point x="149.37894736842105" y="647.0"/>
      <point x="231.69473684210527" y="649.6105263157895" type="curve"/>
      <point x="296.5473684210526" y="649.6105263157895" type="line"/>
      <point x="296.5473684210526" y="713.0" type="line"/>
      <point x="32.31578947368421" y="713.0" type="line"/>
    </contour>
    <contour>
      <point x="342.9578947368421" y="649.6105263157895" type="line"/>
      <point x="407.8105263157895" y="649.6105263157895" type="line"/>
      <point x="490.12631578947367" y="647.0"/>
      <point x="550.1578947368421" y="643.9263157894737"/>
      <point x="607.1894736842105" y="641.8526315789474" type="curve"/>
      <point x="607.1894736842105" y="713.0" type="line"/>
      <point x="342.9578947368421" y="713.0" type="line"/>
    </contour>
  </outline>
</glyph>
<glyph name="V" format="2">
  <advance width="680.8842105263159"/>
  <unicode hex="0056"/>
  <anchor x="341.2631578947369" y="0.0" name="bottom"/>
  <anchor x="341.2631578947369" y="713.0" name="top"/>
  <outline>
    <contour>
      <point x="288.1684210526316" y="0.0" type="curve"/>
      <point x="395.10526315789474" y="0.0" type="line"/>
      <point x="420.6" y="73.82105263157894"/>
      <point x="448.9157894736842" y="155.82105263157897"/>
      <point x="472.7684210526316" y="225.17894736842106" type="curve"/>
      <point x="554.9368421052632" y="450.0" type="line"/>
      <point x="585.221052631579" y="526.6421052631579"/>
      <point x="623.8631578947368" y="626.178947368421"/>
      <point x="658.1473684210526" y="713.0" type="curve"/>
      <point x="569.0105263157894" y="713.0" type="line"/>
      <point x="531.6315789473684" y="603.9789473684211"/>
      <point x="491.6105263157895" y="483.8842105263158"/>
      <point x="455.0526315789474" y="376.86315789473684" type="curve"/>
      <point x="345.62105263157895" y="73.7578947368421" type="line"/>
      <point x="337.8315789473684" y="73.7578947368421" type="line"/>
      <point x="228.65263157894736" y="375.86315789473684" type="line"/>
      <point x="192.27368421052628" y="481.4210526315789"/>
      <point x="148.96842105263158" y="607.0842105263158"/>
      <point x="112.41052631578947" y="713.0" type="curve"/>
      <point x="21.736842105263158" y="713.0" type="line"/>
      <point x="56.2" y="626.2842105263159"/>
      <point x="96.12631578947368" y="525.8210526315789"/>
      <point x="126.41052631578947" y="450.0" type="curve"/>
      <point x="209.86315789473684" y="226.0" type="line"/>
      <point x="233.53684210526316" y="157.82105263157894"/>
      <point x="264.4947368421053" y="69.3578947368421"/>
    </contour>
  </outline>
</glyph>
<glyph name="W" format="2">
  <advance width="1012.7789473684211"/>
  <unicode hex="0057"/>
  <anchor x="504.90526315789475" y="0.0" name="bottom"/>
  <anchor x="504.90526315789475" y="713.0" name="top"/>
  <outline>
    <contour>
      <point x="232.57894736842104" y="0.0" type="curve"/>
      <point x="335.13684210526316" y="0.0" type="line"/>
      <point x="360.4842105263158" y="99.41052631578945"/>
      <point x="392.57894736842104" y="222.77894736842103"/>
      <point x="418.7473684210526" y="323.4736842105263" type="curve"/>
      <point x="499.7578947368421" y="615.8105263157895" type="line"/>
      <point x="507.5473684210526" y="615.8105263157895" type="line"/>
      <point x="589.7368421052631" y="323.65263157894736" type="line"/>
      <point x="615.9052631578946" y="222.9578947368421"/>
      <point x="648.1789473684211" y="101.87368421052632"/>
      <point x="674.3473684210526" y="0.0" type="curve"/>
      <point x="780.1263157894737" y="0.0" type="line"/>
      <point x="797.8736842105264" y="67.3578947368421"/>
      <point x="821.0842105263158" y="153.99999999999997"/>
      <point x="840.6526315789474" y="225.82105263157894" type="curve"/>
      <point x="907.3263157894737" y="450.0" type="line"/>
      <point x="932.3263157894737" y="528.2842105263157"/>
      <point x="964.0421052631579" y="626.1789473684211"/>
      <point x="992.4" y="713.0" type="curve"/>
      <point x="902.1894736842106" y="713.0" type="line"/>
      <point x="874.378947368421" y="608.5157894736842"/>
      <point x="841.6421052631579" y="485.10526315789474"/>
      <point x="814.0105263157894" y="381.9789473684211" type="curve"/>
      <point x="729.7894736842105" y="82.63157894736842" type="line"/>
      <point x="722.0" y="82.63157894736842" type="line"/>
      <point x="639.8105263157895" y="380.9789473684211" type="line"/>
      <point x="612.0" y="486.74736842105267"/>
      <point x="581.3684210526316" y="606.8736842105263"/>
      <point x="553.5578947368422" y="713.0" type="curve"/>
      <point x="457.4" y="713.0" type="line"/>
      <point x="431.0526315789474" y="609.1578947368421"/>
      <point x="398.9578947368421" y="483.4631578947368"/>
      <point x="372.7894736842105" y="381.9789473684211" type="curve"/>
      <point x="291.77894736842103" y="82.63157894736842" type="line"/>
      <point x="283.9894736842105" y="82.63157894736842" type="line"/>
      <point x="200.58947368421053" y="379.33684210526314" type="line"/>
      <point x="172.13684210526318" y="485.9263157894737"/>
      <point x="140.0421052631579" y="606.2315789473685"/>
      <point x="111.58947368421052" y="713.0" type="curve"/>
      <point x="21.200000000000003" y="713.0" type="line"/>
      <point x="48.73684210526316" y="627.4631578947368"/>
      <point x="81.73684210526316" y="526.0"/>
      <point x="106.73684210526315" y="448.3578947368421" type="curve"/>
      <point x="172.23157894736843" y="225.0" type="line"/>
      <point x="190.79999999999998" y="156.17894736842106"/>
      <point x="213.18947368421053" y="71.17894736842105"/>
    </contour>
  </outline>
</glyph>
<glyph name="X" format="2">
  <advance width="676.7157894736841"/>
  <unicode hex="0058"/>
  <outline>
    <contour>
      <point x="34.48421052631579" y="0.0" type="curve"/>
      <point x="127.90526315789475" y="0.0" type="line"/>
      <point x="168.56842105263158" y="64.81052631578946"/>
      <point x="202.66315789473683" y="120.58947368421053"/>
      <point x="237.39999999999998" y="177.1157894736842" type="curve"/>
      <point x="324.69473684210527" y="312.09473684210525" type="line"/>
      <point x="332.4842105263158" y="312.09473684210525" type="line"/>
      <point x="425.88421052631577" y="177.93684210526317" type="line"/>
      <point x="462.62105263157895" y="122.87368421052632"/>
      <point x="501.35789473684207" y="64.63157894736841"/>
      <point x="544.8421052631579" y="0.0" type="curve"/>
      <point x="642.7684210526317" y="0.0" type="line"/>
      <point x="586.5578947368421" y="76.0"/>
      <point x="537.1684210526316" y="142.00000000000003"/>
      <point x="479.9578947368421" y="219.17894736842106" type="curve"/>
      <point x="371.0421052631579" y="374.53684210526313" type="line"/>
      <point x="371.0421052631579" y="349.8421052631579" type="line"/>
      <point x="476.4947368421052" y="511.2421052631579" type="line"/>
      <point x="516.242105263158" y="568.6"/>
      <point x="564.1684210526315" y="637.6736842105264"/>
      <point x="616.6315789473684" y="713.0" type="curve"/>
      <point x="522.3894736842105" y="713.0" type="line"/>
      <point x="482.0105263157895" y="648.4"/>
      <point x="441.1684210526316" y="582.8736842105263"/>
      <point x="405.25263157894733" y="524.9894736842106" type="curve"/>
      <point x="332.6315789473684" y="413.3263157894737" type="line"/>
      <point x="324.84210526315786" y="413.3263157894737" type="line"/>
      <point x="250.22105263157894" y="524.1684210526316" type="line"/>
      <point x="214.12631578947367" y="580.4105263157894"/>
      <point x="172.9263157894737" y="645.4736842105264"/>
      <point x="129.90526315789472" y="713.0" type="curve"/>
      <point x="34.76842105263158" y="713.0" type="line"/>
      <point x="91.97894736842105" y="632.4631578947368"/>
      <point x="138.54736842105265" y="566.1052631578947"/>
      <point x="185.93684210526314" y="499.7473684210526" type="curve"/>
      <point x="285.0315789473684" y="353.2105263157895" type="line"/>
      <point x="285.0315789473684" y="376.4736842105263" type="line"/>
      <point x="172.01052631578946" y="201.68421052631578" type="line"/>
      <point x="122.62105263157896" y="129.61052631578949"/>
      <point x="78.58947368421052" y="64.78947368421052"/>
    </contour>
  </outline>
</glyph>
<glyph name="Y" format="2">
  <advance width="644.3894736842105"/>
  <unicode hex="0059"/>
  <anchor x="323.23157894736846" y="0.0" name="bottom"/>
  <anchor x="323.23157894736846" y="713.0" name="top"/>
  <anchor x="20.0" y="713.0" name="topleft"/>
  <outline>
    <contour>
      <point x="289.8" y="286.0421052631579" type="line"/>
      <point x="356.4842105263158" y="286.0421052631579" type="line"/>
      <point x="514.6526315789474" y="545.4526315789474" type="line"/>
      <point x="549.0105263157894" y="598.421052631579"/>
      <point x="585.2947368421053" y="654.7789473684211"/>
      <point x="622.3684210526316" y="713.0" type="curve"/>
      <point x="529.8736842105263" y="713.0" type="line"/>
      <point x="474.2526315789474" y="614.4421052631578"/>
      <point x="445.62105263157895" y="563.4842105263158"/>
      <point x="400.2105263157895" y="484.7473684210526" type="curve"/>
      <point x="327.3052631578948" y="363.1578947368421" type="line"/>
      <point x="319.15789473684214" y="363.1578947368421" type="line"/>
      <point x="243.96842105263158" y="489.0315789473684" type="line"/>
      <point x="201.02105263157895" y="564.4842105263158"/>
      <point x="173.21052631578945" y="614.2631578947368"/>
      <point x="117.58947368421053" y="713.0" type="curve"/>
      <point x="23.484210526315792" y="713.0" type="line"/>
      <point x="66.55789473684212" y="646.3157894736842"/>
      <point x="98.5578947368421" y="597.421052631579"/>
      <point x="132.09473684210525" y="545.4526315789474" type="curve"/>
    </contour>
    <contour>
      <point x="283.0421052631579" y="0.0" type="curve"/>
      <point x="364.2421052631579" y="0.0" type="line"/>
      <point x="362.3473684210526" y="79.74736842105263"/>
      <point x="360.4526315789474" y="148.67368421052632"/>
      <point x="358.37894736842105" y="236.38947368421051" type="curve"/>
      <point x="358.37894736842105" y="344.4315789473684" type="line"/>
      <point x="288.0842105263158" y="344.4315789473684" type="line"/>
      <point x="288.0842105263158" y="236.38947368421051" type="line"/>
      <point x="286.0105263157895" y="148.49473684210525"/>
      <point x="284.93684210526317" y="79.56842105263158"/>
    </contour>
  </outline>
</glyph>
<glyph name="Z" format="2">
  <advance width="667.0526315789474"/>
  <unicode hex="005A"/>
  <anchor x="333.93684210526317" y="0.0" name="bottom"/>
  <anchor x="333.93684210526317" y="357.0" name="center"/>
  <anchor x="333.93684210526317" y="713.0" name="top"/>
  <outline>
    <contour>
      <point x="50.526315789473685" y="0.0" type="line"/>
      <point x="612.421052631579" y="0.0" type="line"/>
      <point x="612.421052631579" y="70.17894736842105" type="line"/>
      <point x="529.2526315789473" y="68.10526315789474"/>
      <point x="395.021052631579" y="64.49473684210525"/>
      <point x="302.5684210526316" y="61.421052631578945" type="curve"/>
      <point x="110.37894736842105" y="61.421052631578945" type="line"/>
      <point x="124.02105263157895" y="27.54736842105263" type="line"/>
      <point x="420.87368421052633" y="414.2736842105263" type="line"/>
      <point x="484.4736842105263" y="495.01052631578943"/>
      <point x="546.5368421052632" y="575.0315789473684"/>
      <point x="608.7052631578947" y="654.3368421052631" type="curve"/>
      <point x="608.7052631578947" y="713.0" type="line"/>
      <point x="57.77894736842105" y="713.0" type="line"/>
      <point x="57.77894736842105" y="642.9263157894736" type="line"/>
      <point x="162.8736842105263" y="645.7157894736843"/>
      <point x="260.7894736842105" y="649.1473684210526"/>
      <point x="347.6" y="651.578947368421" type="curve"/>
      <point x="558.0736842105263" y="651.578947368421" type="line"/>
      <point x="536.1473684210526" y="678.8842105263158" type="line"/>
      <point x="256.89473684210526" y="312.4315789473684" type="line"/>
      <point x="193.4" y="231.62105263157895"/>
      <point x="105.23157894736843" y="120.21052631578948"/>
      <point x="50.526315789473685" y="50.189473684210526" type="curve"/>
    </contour>
  </outline>
</glyph>
<glyph name="bracketleft" format="2">
  <advance width="362.89473684210526"/>
  <unicode hex="005B"/>
  <outline>
    <contour>
      <point x="96.47368421052632" y="-115.22105263157894" type="curve"/>
      <point x="168.0842105263158" y="-115.22105263157894" type="line"/>
      <point x="168.0842105263158" y="-105.60000000000001" type="line"/>
      <point x="166.18947368421053" y="-25.852631578947367"/>
      <point x="164.29473684210527" y="43.89473684210526"/>
      <point x="162.22105263157894" y="131.61052631578949" type="curve"/>
      <point x="162.22105263157894" y="516.3157894736842" type="line"/>
      <point x="164.29473684210527" y="604.7473684210527"/>
      <point x="166.18947368421053" y="674.2105263157895"/>
      <point x="168.0842105263158" y="754.4947368421052" type="curve"/>
      <point x="168.0842105263158" y="764.1157894736842" type="line"/>
      <point x="96.47368421052632" y="764.1157894736842" type="line"/>
      <point x="98.18947368421051" y="683.4736842105262"/>
      <point x="98.90526315789474" y="614.9052631578948"/>
      <point x="100.97894736842105" y="525.9368421052632" type="curve"/>
      <point x="100.97894736842105" y="121.16842105263157" type="line"/>
      <point x="99.08421052631579" y="33.45263157894737"/>
      <point x="98.18947368421051" y="-35.83157894736842"/>
    </contour>
    <contour>
      <point x="152.6421052631579" y="-115.22105263157894" type="line"/>
      <point x="348.4947368421053" y="-115.22105263157894" type="line"/>
      <point x="348.4947368421053" y="-56.48421052631579" type="line"/>
      <point x="300.3894736842105" y="-57.20000000000001"/>
      <point x="249.0" y="-58.736842105263165"/>
      <point x="190.7157894736842" y="-59.631578947368425" type="curve"/>
      <point x="152.6421052631579" y="-59.631578947368425" type="line"/>
    </contour>
    <contour>
      <point x="149.77894736842106" y="708.5263157894736" type="line"/>
      <point x="186.10526315789474" y="708.5263157894736" type="line"/>
      <point x="255.03157894736842" y="707.6315789473683"/>
      <point x="303.95789473684215" y="706.0947368421052"/>
      <point x="348.42105263157896" y="705.378947368421" type="curve"/>
      <point x="348.42105263157896" y="764.1157894736842" type="line"/>
      <point x="149.77894736842106" y="764.1157894736842" type="line"/>
    </contour>
  </outline>
</glyph>
<glyph name="underscore" format="2">
  <advance width="394.31578947368416"/>
  <unicode hex="005F"/>
  <outline>
    <contour>
      <point x="-10.0" y="-112.54736842105262" type="line"/>
      <point x="51.04210526315789" y="-111.18947368421053"/>
      <point x="119.65263157894736" y="-109.83157894736841"/>
      <point x="158.58947368421053" y="-109.47368421052632" type="curve"/>
      <point x="235.7263157894737" y="-109.47368421052632" type="line"/>
      <point x="274.66315789473686" y="-109.83157894736841"/>
      <point x="343.2736842105263" y="-111.18947368421053"/>
      <point x="404.3157894736842" y="-112.54736842105262" type="curve"/>
      <point x="404.3157894736842" y="-51.55789473684211" type="line"/>
      <point x="343.2736842105263" y="-52.915789473684214"/>
      <point x="274.66315789473686" y="-54.27368421052632"/>
      <point x="235.7263157894737" y="-54.631578947368425" type="curve"/>
      <point x="158.58947368421053" y="-54.631578947368425" type="line"/>
      <point x="119.65263157894736" y="-54.27368421052632"/>
      <point x="51.04210526315789" y="-52.915789473684214"/>
      <point x="-10.0" y="-51.55789473684211" type="curve"/>
    </contour>
  </outline>
</glyph>
<glyph name="a" format="2">
  <advance width="522.6436781609195"/>
  <unicode hex="0061"/>
  <anchor x="263.39080459770116" y="0.0" name="bottom"/>
  <anchor x="441.2413793103448" y="0.0" name="ogonek"/>
  <anchor x="263.39080459770116" y="495.5632183908046" name="top"/>
  <outline>
    <contour>
      <point x="206.22988505747128" y="-9.781609195402298" type="curve" smooth="yes"/>
      <point x="250.58620689655174" y="-9.781609195402298"/>
      <point x="321.2413793103448" y="29.011494252873558"/>
      <point x="379.1954022988506" y="74.40229885057472" type="curve"/>
      <point x="386.367816091954" y="74.40229885057472" type="line"/>
      <point x="406.5862068965517" y="0.0" type="line"/>
      <point x="472.02298850574715" y="0.0" type="line"/>
      <point x="459.02298850574715" y="50.29885057471265"/>
      <point x="450.2413793103448" y="88.77011494252875"/>
      <point x="440.632183908046" y="133.5057471264368" type="curve"/>
      <point x="440.632183908046" y="211.0" type="line" smooth="yes"/>
      <point x="440.632183908046" y="254.6551724137931"/>
      <point x="443.02298850574715" y="304.4367816091954"/>
      <point x="443.02298850574715" y="334.0" type="curve" smooth="yes"/>
      <point x="443.02298850574715" y="454.95402298850576"/>
      <point x="372.2068965517241" y="506.3448275862069"/>
      <point x="267.735632183908" y="506.3448275862069" type="curve" smooth="yes"/>
      <point x="232.29885057471262" y="506.3448275862069"/>
      <point x="123.57471264367815" y="482.1264367816092"/>
      <point x="78.40229885057471" y="470.90804597701157" type="curve"/>
      <point x="82.183908045977" y="405.5977011494253" type="line"/>
      <point x="154.0574712643678" y="427.4252873563218"/>
      <point x="237.52873563218392" y="448.55172413793105"/>
      <point x="257.57471264367814" y="448.55172413793105" type="curve" smooth="yes"/>
      <point x="325.32183908045977" y="448.55172413793105"/>
      <point x="382.632183908046" y="426.9425287356322"/>
      <point x="378.41379310344826" y="314.735632183908" type="curve"/>
      <point x="216.7471264367816" y="284.5977011494253" type="line" smooth="yes"/>
      <point x="143.44827586206895" y="271.37931034482756"/>
      <point x="56.40229885057471" y="238.0344827586207"/>
      <point x="56.40229885057471" y="131.29885057471265" type="curve" smooth="yes"/>
      <point x="56.40229885057471" y="44.4367816091954"/>
      <point x="114.91954022988506" y="-9.781609195402298"/>
    </contour>
    <contour>
      <point x="221.86206896551724" y="45.44827586206897" type="curve" smooth="yes"/>
      <point x="165.14942528735634" y="45.44827586206897"/>
      <point x="122.183908045977" y="69.97701149425288"/>
      <point x="122.183908045977" y="133.86206896551724" type="curve" smooth="yes"/>
      <point x="122.183908045977" y="196.79310344827587"/>
      <point x="170.94252873563218" y="225.01149425287358"/>
      <point x="234.2183908045977" y="236.66666666666666" type="curve" smooth="yes"/>
      <point x="334.71264367816093" y="254.9310344827586"/>
      <point x="360.1954022988506" y="263.58620689655174"/>
      <point x="377.2413793103448" y="272.58620689655174" type="curve"/>
      <point x="376.632183908046" y="133.9425287356322" type="line"/>
      <point x="323.6206896551724" y="84.32183908045977"/>
      <point x="253.70114942528735" y="45.44827586206897"/>
    </contour>
  </outline>
</glyph>
<glyph name="b" format="2">
  <advance width="591.4315789473684"/>
  <unicode hex="0062"/>
  <outline>
    <contour>
      <point x="321.85263157894735" y="-10.25263157894737" type="curve" smooth="yes"/>
      <point x="465.1684210526316" y="-10.25263157894737"/>
      <point x="536.9473684210526" y="110.3578947368421"/>
      <point x="536.9473684210526" y="249.3578947368421" type="curve" smooth="yes"/>
      <point x="536.9473684210526" y="396.7157894736842"/>
      <point x="457.06315789473683" y="506.5052631578947"/>
      <point x="320.0315789473684" y="506.5052631578947" type="curve" smooth="yes"/>
      <point x="266.4736842105263" y="506.5052631578947"/>
      <point x="210.4421052631579" y="469.36842105263156"/>
      <point x="164.69473684210527" y="435.0105263157895" type="curve"/>
      <point x="156.90526315789475" y="435.0105263157895" type="line"/>
      <point x="156.90526315789475" y="493.82105263157894" type="line"/>
      <point x="159.33684210526317" y="580.7894736842105"/>
      <point x="161.58947368421053" y="661.0421052631579"/>
      <point x="163.66315789473686" y="742.1473684210526" type="curve"/>
      <point x="81.3578947368421" y="729.5368421052632" type="line"/>
      <point x="85.32631578947368" y="655.5684210526316"/>
      <point x="89.1157894736842" y="577.7473684210527"/>
      <point x="92.54736842105262" y="493.82105263157894" type="curve"/>
      <point x="92.54736842105262" y="219.56842105263158" type="line"/>
      <point x="90.47368421052632" y="138.03157894736842"/>
      <point x="89.57894736842105" y="74.10526315789474"/>
      <point x="87.6842105263158" y="0.0" type="curve"/>
      <point x="144.67368421052632" y="0.0" type="line"/>
      <point x="151.43157894736842" y="67.60000000000001" type="line"/>
      <point x="158.6842105263158" y="67.60000000000001" type="line"/>
      <point x="211.0105263157895" y="24.16842105263158"/>
      <point x="276.17894736842106" y="-10.25263157894737"/>
    </contour>
    <contour>
      <point x="305.5684210526316" y="49.12631578947368" type="curve"/>
      <point x="258.2631578947369" y="51.30526315789473"/>
      <point x="198.74736842105264" y="89.22105263157894"/>
      <point x="156.90526315789475" y="130.49473684210525" type="curve"/>
      <point x="156.90526315789475" y="371.11578947368423" type="line"/>
      <point x="206.95789473684212" y="419.34736842105264"/>
      <point x="266.29473684210524" y="445.2315789473684"/>
      <point x="303.9263157894737" y="446.58947368421053" type="curve"/>
      <point x="416.8526315789474" y="443.58947368421053"/>
      <point x="470.87368421052633" y="357.6842105263158"/>
      <point x="470.87368421052633" y="249.0" type="curve" smooth="yes"/>
      <point x="470.87368421052633" y="144.9578947368421"/>
      <point x="421.13684210526316" y="52.12631578947368"/>
    </contour>
  </outline>
</glyph>
<glyph name="d" format="2">
  <advance width="575.9368421052632"/>
  <unicode hex="0064"/>
  <anchor x="308.86315789473684" y="0.0" name="bottom"/>
  <anchor x="290.2526315789474" y="247.7157894736842" name="center"/>
  <anchor x="308.86315789473684" y="724.7894736842105" name="top"/>
  <anchor x="550.7263157894737" y="495.4315789473684" name="topright"/>
  <outline>
    <contour>
      <point x="269.57894736842104" y="-10.25263157894737" type="curve" smooth="yes"/>
      <point x="315.25263157894733" y="-10.25263157894737"/>
      <point x="379.8842105263158" y="23.989473684210527"/>
      <point x="431.85263157894735" y="67.6" type="curve"/>
      <point x="439.10526315789474" y="67.6" type="line"/>
      <point x="443.4315789473684" y="0.0" type="line"/>
      <point x="504.56842105263155" y="0.0" type="line"/>
      <point x="502.6736842105263" y="74.10526315789474"/>
      <point x="500.9578947368421" y="138.03157894736842"/>
      <point x="498.88421052631577" y="219.56842105263158" type="curve"/>
      <point x="498.88421052631577" y="493.82105263157894" type="line"/>
      <point x="501.31578947368416" y="580.7894736842105"/>
      <point x="503.56842105263155" y="661.0421052631579"/>
      <point x="505.6421052631579" y="742.1473684210526" type="curve"/>
      <point x="423.33684210526314" y="729.5368421052632" type="line"/>
      <point x="427.30526315789473" y="655.5684210526316"/>
      <point x="431.0947368421053" y="577.7473684210527"/>
      <point x="434.5263157894737" y="493.82105263157894" type="curve"/>
      <point x="434.5263157894737" y="435.0105263157895" type="line"/>
      <point x="426.7368421052632" y="435.0105263157895" type="line"/>
      <point x="380.98947368421057" y="469.36842105263156"/>
      <point x="324.9578947368421" y="506.5052631578947"/>
      <point x="271.4" y="506.5052631578947" type="curve" smooth="yes"/>
      <point x="134.3684210526316" y="506.5052631578947"/>
      <point x="54.48421052631579" y="396.7157894736842"/>
      <point x="54.48421052631579" y="249.3578947368421" type="curve" smooth="yes"/>
      <point x="54.48421052631579" y="110.3578947368421"/>
      <point x="126.26315789473685" y="-10.25263157894737"/>
    </contour>
    <contour>
      <point x="285.86315789473684" y="49.12631578947368" type="curve"/>
      <point x="170.29473684210527" y="52.12631578947368"/>
      <point x="120.5578947368421" y="144.9578947368421"/>
      <point x="120.5578947368421" y="249.0" type="curve" smooth="yes"/>
      <point x="120.5578947368421" y="357.6842105263158"/>
      <point x="174.57894736842104" y="443.58947368421053"/>
      <point x="287.5052631578947" y="446.58947368421053" type="curve"/>
      <point x="325.13684210526316" y="445.2315789473684"/>
      <point x="384.4736842105263" y="419.34736842105264"/>
      <point x="434.5263157894737" y="371.11578947368423" type="curve"/>
      <point x="434.5263157894737" y="130.49473684210525" type="line"/>
      <point x="392.6842105263158" y="89.22105263157894"/>
      <point x="333.1684210526316" y="51.30526315789473"/>
    </contour>
  </outline>
</glyph>
<glyph name="e" format="2">
  <advance width="527.6091954022988"/>
  <unicode hex="0065"/>
  <anchor x="286.264367816092" y="0.0" name="bottom"/>
  <anchor x="381.8965517241379" y="0.0" name="ogonek"/>
  <anchor x="278.2183908045977" y="495.5632183908046" name="top"/>
  <outline>
    <contour>
      <point x="309.7816091954023" y="-10.172413793103448" type="curve" smooth="yes"/>
      <point x="346.3448275862069" y="-10.172413793103448"/>
      <point x="422.47126436781605" y="8.045977011494253"/>
      <point x="469.2528735632184" y="23.655172413793103" type="curve"/>
      <point x="465.86206896551727" y="86.44827586206897" type="line"/>
      <point x="410.6896551724138" y="65.01149425287356"/>
      <point x="339.08045977011494" y="48.01149425287356"/>
      <point x="314.86206896551727" y="48.01149425287356" type="curve" smooth="yes"/>
      <point x="181.93103448275863" y="48.01149425287356"/>
      <point x="119.57471264367817" y="125.45977011494253"/>
      <point x="119.57471264367817" y="249.0" type="curve"/>
      <point x="119.57471264367817" y="255.68965517241378" type="line"/>
      <point x="119.57471264367817" y="368.44827586206895"/>
      <point x="179.75862068965517" y="447.8965517241379"/>
      <point x="281.4367816091954" y="451.28735632183907" type="curve"/>
      <point x="362.5862068965517" y="448.28735632183907"/>
      <point x="418.37931034482756" y="399.5862068965517"/>
      <point x="418.37931034482756" y="296.17241379310343" type="curve" smooth="yes"/>
      <point x="418.37931034482756" y="286.5632183908046"/>
      <point x="418.37931034482756" y="276.95402298850576"/>
      <point x="417.37931034482756" y="266.735632183908" type="curve"/>
      <point x="474.86206896551727" y="233.48275862068965" type="line"/>
      <point x="477.86206896551727" y="252.8735632183908"/>
      <point x="478.86206896551727" y="271.264367816092"/>
      <point x="478.86206896551727" y="295.4367816091954" type="curve" smooth="yes"/>
      <point x="478.86206896551727" y="430.9080459770115"/>
      <point x="402.9080459770115" y="506.3448275862069"/>
      <point x="280.4367816091954" y="506.3448275862069" type="curve" smooth="yes"/>
      <point x="141.22988505747128" y="506.3448275862069"/>
      <point x="54.18390804597701" y="399.95402298850576"/>
      <point x="54.18390804597701" y="251.0" type="curve" smooth="yes"/>
      <point x="54.18390804597701" y="99.82758620689656"/>
      <point x="135.9655172413793" y="-10.172413793103448"/>
    </contour>
    <contour>
      <point x="82.29885057471265" y="233.48275862068965" type="line"/>
      <point x="474.86206896551727" y="233.48275862068965" type="line"/>
      <point x="474.86206896551727" y="273.4712643678161" type="line"/>
      <point x="434.1034482758621" y="285.367816091954" type="line"/>
      <point x="82.29885057471265" y="283.41379310344826" type="line"/>
    </contour>
  </outline>
</glyph>
<glyph name="f" format="2">
  <advance width="390.5157894736842"/>
  <unicode hex="0066"/>
  <outline>
    <contour>
      <point x="118.18947368421053" y="0.0" type="curve"/>
      <point x="193.09473684210525" y="0.0" type="line"/>
      <point x="191.2" y="74.10526315789474"/>
      <point x="189.4842105263158" y="138.03157894736842"/>
      <point x="187.41052631578947" y="219.56842105263158" type="curve"/>
      <point x="187.41052631578947" y="478.2105263157895" type="line"/>
      <point x="188.1263157894737" y="495.4315789473684" type="line"/>
      <point x="186.1578947368421" y="507.89473684210526"/>
      <point x="182.7578947368421" y="541.4947368421052"/>
      <point x="182.7578947368421" y="564.5578947368421" type="curve" smooth="yes"/>
      <point x="182.7578947368421" y="645.0315789473684"/>
      <point x="219.43157894736842" y="686.5894736842105"/>
      <point x="304.0842105263158" y="686.5894736842105" type="curve" smooth="yes"/>
      <point x="310.08421052631576" y="686.5894736842105"/>
      <point x="345.8" y="681.0526315789474"/>
      <point x="378.2315789473684" y="674.5157894736842" type="curve"/>
      <point x="384.37894736842105" y="736.7157894736841" type="line"/>
      <point x="360.2631578947369" y="740.0736842105264"/>
      <point x="312.2526315789474" y="744.8947368421053"/>
      <point x="299.0736842105263" y="744.8947368421053" type="curve" smooth="yes"/>
      <point x="202.49473684210525" y="744.8947368421053"/>
      <point x="120.08421052631579" y="700.9684210526316"/>
      <point x="120.08421052631579" y="564.3789473684211" type="curve" smooth="yes"/>
      <point x="120.08421052631579" y="445.5473684210526"/>
      <point x="123.05263157894737" y="351.3157894736842"/>
      <point x="123.05263157894737" y="268.74736842105267" type="curve"/>
      <point x="123.05263157894737" y="219.56842105263158" type="line"/>
      <point x="120.97894736842106" y="138.03157894736842"/>
      <point x="120.08421052631579" y="74.10526315789474"/>
    </contour>
    <contour>
      <point x="25.957894736842107" y="437.58947368421053" type="line"/>
      <point x="141.7157894736842" y="445.63157894736844" type="line"/>
      <point x="166.53684210526316" y="445.63157894736844" type="line"/>
      <point x="231.85263157894738" y="443.5578947368421"/>
      <point x="296.63157894736844" y="440.66315789473686"/>
      <point x="364.30526315789473" y="437.58947368421053" type="curve"/>
      <point x="364.30526315789473" y="495.4315789473684" type="line"/>
      <point x="25.957894736842107" y="495.4315789473684" type="line"/>
    </contour>
  </outline>
</glyph>
<glyph name="g" format="2">
  <advance width="540.6896551724138"/>
  <unicode hex="0067"/>
  <anchor x="268.7356321839081" y="-192.0" name="bottom"/>
  <anchor x="258.3793103448276" y="495.5632183908046" name="top"/>
  <outline>
    <contour>
      <point x="244.65517241379308" y="-202.7816091954023" type="curve" smooth="yes"/>
      <point x="357.6896551724138" y="-202.7816091954023"/>
      <point x="490.11494252873564" y="-147.3448275862069"/>
      <point x="490.11494252873564" y="-37.40229885057471" type="curve" smooth="yes"/>
      <point x="490.11494252873564" y="41.195402298850574"/>
      <point x="432.6896551724138" y="71.41379310344828"/>
      <point x="291.55172413793105" y="71.41379310344828" type="curve" smooth="yes"/>
      <point x="269.3333333333333" y="71.41379310344828" type="line" smooth="yes"/>
      <point x="191.54022988505747" y="71.41379310344828"/>
      <point x="160.88505747126436" y="81.06896551724138"/>
      <point x="160.88505747126436" y="113.42528735632185" type="curve" smooth="yes"/>
      <point x="160.88505747126436" y="144.39080459770116"/>
      <point x="195.14942528735634" y="155.4367816091954"/>
      <point x="269.9425287356322" y="173.09195402298852" type="curve" smooth="yes"/>
      <point x="368.816091954023" y="196.5287356321839"/>
      <point x="431.33333333333337" y="243.48275862068965"/>
      <point x="431.33333333333337" y="340.82758620689657" type="curve" smooth="yes"/>
      <point x="431.33333333333337" y="398.4367816091954"/>
      <point x="405.67816091954023" y="448.3103448275862"/>
      <point x="342.88505747126436" y="476.91954022988506" type="curve"/>
      <point x="323.67816091954023" y="452.8045977011495" type="line"/>
      <point x="388.33333333333337" y="447.8505747126437"/>
      <point x="451.816091954023" y="444.2873563218391"/>
      <point x="518.8620689655172" y="439.33333333333337" type="curve"/>
      <point x="518.8620689655172" y="495.95402298850576" type="line"/>
      <point x="359.8505747126437" y="495.95402298850576" type="line" smooth="yes"/>
      <point x="307.5977011494253" y="495.95402298850576"/>
      <point x="286.64367816091954" y="506.3448275862069"/>
      <point x="241.34482758620692" y="506.3448275862069" type="curve" smooth="yes"/>
      <point x="130.05747126436782" y="506.3448275862069"/>
      <point x="52.57471264367816" y="442.82758620689657"/>
      <point x="52.57471264367816" y="346.0" type="curve" smooth="yes"/>
      <point x="52.57471264367816" y="268.90804597701145"/>
      <point x="130.58620689655174" y="217.25287356321837"/>
      <point x="174.88505747126436" y="191.17241379310346" type="curve"/>
      <point x="174.88505747126436" y="185.0" type="line"/>
      <point x="122.88505747126436" y="167.87356321839079"/>
      <point x="99.40229885057471" y="140.70114942528735"/>
      <point x="99.40229885057471" y="104.04597701149426" type="curve" smooth="yes"/>
      <point x="99.40229885057471" y="58.264367816091955"/>
      <point x="133.57471264367817" y="39.264367816091955"/>
      <point x="154.62068965517244" y="32.87356321839081" type="curve"/>
      <point x="154.62068965517244" y="26.310344827586206" type="line"/>
      <point x="111.79310344827586" y="4.310344827586207"/>
      <point x="56.13793103448276" y="-37.735632183908045"/>
      <point x="56.13793103448276" y="-84.95402298850574" type="curve" smooth="yes"/>
      <point x="56.13793103448276" y="-141.73563218390805"/>
      <point x="98.0919540229885" y="-202.7816091954023"/>
    </contour>
    <contour>
      <point x="250.86206896551724" y="-147.72413793103448" type="curve"/>
      <point x="150.05747126436782" y="-145.72413793103448"/>
      <point x="116.83908045977012" y="-112.58620689655173"/>
      <point x="116.83908045977012" y="-73.40229885057471" type="curve" smooth="yes"/>
      <point x="116.83908045977012" y="-41.2183908045977"/>
      <point x="180.9770114942529" y="-2.034482758620691"/>
      <point x="228.37931034482756" y="15.402298850574713" type="curve"/>
      <point x="279.2643678160919" y="15.402298850574713" type="line" smooth="yes"/>
      <point x="398.0229885057471" y="15.402298850574713"/>
      <point x="427.85057471264366" y="-3.03448275862069"/>
      <point x="427.85057471264366" y="-46.4367816091954" type="curve" smooth="yes"/>
      <point x="427.85057471264366" y="-91.44827586206897"/>
      <point x="364.1034482758621" y="-143.77011494252872"/>
    </contour>
    <contour>
      <point x="233.3448275862069" y="217.19540229885058" type="curve"/>
      <point x="175.89655172413794" y="245.632183908046"/>
      <point x="114.05747126436782" y="289.9885057471264"/>
      <point x="114.05747126436782" y="342.0919540229885" type="curve" smooth="yes"/>
      <point x="114.05747126436782" y="415.2413793103448"/>
      <point x="173.06896551724137" y="447.551724137931"/>
      <point x="242.39080459770116" y="449.3333333333333" type="curve"/>
      <point x="298.7011494252874" y="446.3333333333333"/>
      <point x="369.8505747126437" y="417.2413793103448"/>
      <point x="369.8505747126437" y="337.3103448275862" type="curve" smooth="yes"/>
      <point x="369.8505747126437" y="250.24137931034483"/>
      <point x="289.7471264367816" y="229.632183908046"/>
    </contour>
  </outline>
</glyph>
<glyph name="h" format="2">
  <advance width="573.3684210526317"/>
  <unicode hex="0068"/>
  <guideline x="110.94736842105263" y="733.1473684210526" angle="4.470799999999997"/>
  <anchor x="291.32631578947365" y="0.0" name="bottom"/>
  <anchor x="291.32631578947365" y="409.0" name="center"/>
  <anchor x="272.17894736842106" y="724.7894736842105" name="top"/>
  <outline>
    <contour>
      <point x="87.6842105263158" y="0.0" type="curve"/>
      <point x="162.58947368421053" y="0.0" type="line"/>
      <point x="160.69473684210524" y="73.92631578947369"/>
      <point x="158.8" y="138.03157894736842"/>
      <point x="156.90526315789475" y="217.2421052631579" type="curve"/>
      <point x="156.90526315789475" y="340.2631578947368" type="line"/>
      <point x="214.8842105263158" y="399.8842105263158"/>
      <point x="285.22105263157897" y="444.4421052631579"/>
      <point x="321.42105263157896" y="444.4421052631579" type="curve" smooth="yes"/>
      <point x="402.0736842105263" y="444.4421052631579"/>
      <point x="428.13684210526316" y="398.9157894736842"/>
      <point x="428.13684210526316" y="310.2526315789474" type="curve"/>
      <point x="428.13684210526316" y="217.2421052631579" type="line"/>
      <point x="426.42105263157896" y="138.03157894736842"/>
      <point x="425.5263157894737" y="73.92631578947369"/>
      <point x="423.81052631578945" y="0.0" type="curve"/>
      <point x="498.3578947368421" y="0.0" type="line"/>
      <point x="496.46315789473687" y="73.92631578947369"/>
      <point x="494.5684210526316" y="138.03157894736842"/>
      <point x="492.4947368421053" y="219.56842105263158" type="curve"/>
      <point x="492.4947368421053" y="247.8947368421053"/>
      <point x="494.2105263157895" y="285.5052631578947"/>
      <point x="494.2105263157895" y="328.6842105263158" type="curve" smooth="yes"/>
      <point x="494.2105263157895" y="443.7578947368421"/>
      <point x="448.8105263157895" y="506.5052631578947"/>
      <point x="340.4947368421053" y="506.5052631578947" type="curve" smooth="yes"/>
      <point x="285.86315789473684" y="506.5052631578947"/>
      <point x="207.1263157894737" y="446.30526315789473"/>
      <point x="164.87368421052633" y="407.58947368421053" type="curve"/>
      <point x="156.90526315789475" y="407.58947368421053" type="line"/>
      <point x="156.90526315789475" y="493.82105263157894" type="line"/>
      <point x="159.33684210526317" y="580.7894736842105"/>
      <point x="161.58947368421053" y="661.042105263158"/>
      <point x="163.66315789473686" y="742.1473684210526" type="curve"/>
      <point x="81.3578947368421" y="729.5368421052632" type="line"/>
      <point x="85.32631578947368" y="655.5684210526316"/>
      <point x="89.1157894736842" y="577.7473684210527"/>
      <point x="92.54736842105262" y="493.82105263157894" type="curve"/>
      <point x="92.54736842105262" y="219.56842105263158" type="line"/>
      <point x="90.47368421052632" y="138.03157894736842"/>
      <point x="89.57894736842105" y="74.10526315789474"/>
    </contour>
  </outline>
</glyph>
<glyph name="k" format="2">
  <advance width="534.0736842105263"/>
  <unicode hex="006B"/>
  <anchor x="274.4421052631579" y="0.0" name="bottom"/>
  <anchor x="274.4421052631579" y="724.7894736842105" name="top"/>
  <outline>
    <contour>
      <point x="418.3894736842105" y="0.0" type="curve"/>
      <point x="516.5157894736842" y="0.0" type="line"/>
      <point x="450.88421052631577" y="58.07368421052632"/>
      <point x="386.7157894736842" y="115.50526315789473"/>
      <point x="321.0842105263158" y="173.57894736842104" type="curve"/>
      <point x="217.16842105263157" y="270.09473684210525" type="line"/>
      <point x="219.13684210526316" y="237.49473684210525" type="line"/>
      <point x="308.62105263157895" y="321.9263157894737" type="line"/>
      <point x="372.6105263157895" y="379.82105263157894"/>
      <point x="433.31578947368416" y="436.7157894736842"/>
      <point x="498.3052631578948" y="495.4315789473684" type="curve"/>
      <point x="404.86315789473684" y="495.4315789473684" type="line"/>
      <point x="357.0947368421053" y="448.0421052631579"/>
      <point x="308.68421052631584" y="400.0105263157895"/>
      <point x="260.91578947368424" y="352.62105263157895" type="curve"/>
      <point x="180.0842105263158" y="275.30526315789473" type="line"/>
      <point x="148.29473684210527" y="275.30526315789473" type="line"/>
      <point x="148.29473684210527" y="226.90526315789475" type="line"/>
      <point x="174.33684210526317" y="226.90526315789475" type="line"/>
      <point x="271.41052631578947" y="140.02105263157895" type="line"/>
      <point x="320.46315789473687" y="93.34736842105264"/>
      <point x="369.5157894736842" y="46.67368421052632"/>
    </contour>
    <contour>
      <point x="87.6842105263158" y="0.0" type="curve"/>
      <point x="162.58947368421053" y="0.0" type="line"/>
      <point x="160.69473684210524" y="71.77894736842106"/>
      <point x="158.8" y="134.09473684210525"/>
      <point x="156.90526315789475" y="211.1578947368421" type="curve"/>
      <point x="156.90526315789475" y="493.82105263157894" type="line"/>
      <point x="159.33684210526317" y="580.7894736842105"/>
      <point x="161.58947368421053" y="661.042105263158"/>
      <point x="163.66315789473686" y="742.1473684210526" type="curve"/>
      <point x="81.3578947368421" y="729.5368421052632" type="line"/>
      <point x="85.32631578947368" y="655.5684210526316"/>
      <point x="89.1157894736842" y="577.7473684210527"/>
      <point x="92.54736842105262" y="493.82105263157894" type="curve"/>
      <point x="92.54736842105262" y="219.56842105263158" type="line"/>
      <point x="90.47368421052632" y="138.03157894736842"/>
      <point x="89.57894736842105" y="74.10526315789474"/>
    </contour>
  </outline>
</glyph>
<glyph name="l" format="2">
  <advance width="249.45263157894735"/>
  <unicode hex="006C"/>
  <anchor x="124.72631578947367" y="0.0" name="bottom"/>
  <anchor x="125.62105263157893" y="409.0" name="center"/>
  <anchor x="124.72631578947367" y="724.7894736842105" name="top"/>
  <anchor x="208.67368421052632" y="495.4315789473684" name="topright"/>
  <outline>
    <contour>
      <point x="87.6842105263158" y="0.0" type="curve"/>
      <point x="162.58947368421053" y="0.0" type="line"/>
      <point x="160.69473684210524" y="74.10526315789474"/>
      <point x="158.97894736842107" y="138.03157894736842"/>
      <point x="156.90526315789475" y="219.56842105263158" type="curve"/>
      <point x="156.90526315789475" y="493.82105263157894" type="line"/>
      <point x="159.33684210526317" y="580.7894736842105"/>
      <point x="161.58947368421053" y="661.0421052631579"/>
      <point x="163.66315789473686" y="742.1473684210526" type="curve"/>
      <point x="81.3578947368421" y="729.5368421052632" type="line"/>
      <point x="85.32631578947368" y="655.5684210526316"/>
      <point x="89.1157894736842" y="577.7473684210527"/>
      <point x="92.54736842105262" y="493.82105263157894" type="curve"/>
      <point x="92.54736842105262" y="219.56842105263158" type="line"/>
      <point x="90.47368421052632" y="138.03157894736842"/>
      <point x="89.57894736842105" y="74.10526315789474"/>
    </contour>
  </outline>
</glyph>
<glyph name="m" format="2">
  <advance width="879.5052631578948"/>
  <unicode hex="006D"/>
  <anchor x="450.4631578947368" y="0.0" name="bottom"/>
  <anchor x="450.4631578947368" y="495.4315789473684" name="top"/>
  <outline>
    <contour>
      <point x="93.32631578947368" y="0.0" type="curve"/>
      <point x="168.23157894736843" y="0.0" type="line"/>
      <point x="166.33684210526314" y="73.92631578947369"/>
      <point x="164.44210526315788" y="138.03157894736842"/>
      <point x="162.54736842105262" y="217.2421052631579" type="curve"/>
      <point x="162.54736842105262" y="340.2631578947368" type="line"/>
      <point x="220.52631578947367" y="399.8842105263158"/>
      <point x="282.29473684210524" y="444.4421052631579"/>
      <point x="317.85263157894735" y="444.4421052631579" type="curve" smooth="yes"/>
      <point x="393.86315789473684" y="444.4421052631579"/>
      <point x="418.2842105263158" y="398.9157894736842"/>
      <point x="418.2842105263158" y="310.2526315789474" type="curve"/>
      <point x="418.2842105263158" y="217.2421052631579" type="line"/>
      <point x="416.5684210526316" y="138.03157894736842"/>
      <point x="415.67368421052635" y="73.92631578947369"/>
      <point x="413.95789473684215" y="0.0" type="curve"/>
      <point x="488.5052631578947" y="0.0" type="line"/>
      <point x="486.61052631578946" y="73.92631578947369"/>
      <point x="484.7157894736842" y="138.03157894736842"/>
      <point x="482.6421052631579" y="219.56842105263158" type="curve"/>
      <point x="482.6421052631579" y="247.8947368421053"/>
      <point x="484.35789473684207" y="285.5052631578947"/>
      <point x="484.35789473684207" y="328.6842105263158" type="curve" smooth="yes"/>
      <point x="484.35789473684207" y="348.93684210526317"/>
      <point x="483.0" y="367.1894736842105"/>
      <point x="479.6421052631579" y="384.7263157894737" type="curve"/>
      <point x="475.6" y="388.01052631578943" type="line"/>
      <point x="462.34736842105264" y="465.9368421052631"/>
      <point x="417.8105263157895" y="506.5052631578947"/>
      <point x="337.56842105263155" y="506.5052631578947" type="curve" smooth="yes"/>
      <point x="282.2210526315789" y="506.5052631578947"/>
      <point x="209.7263157894737" y="445.7684210526316"/>
      <point x="165.50526315789472" y="406.5157894736842" type="curve"/>
      <point x="157.53684210526313" y="406.5157894736842" type="line"/>
      <point x="150.82105263157894" y="499.6842105263158" type="line"/>
      <point x="85.61052631578947" y="495.4315789473684" type="line"/>
      <point x="90.04210526315791" y="438.7052631578947"/>
      <point x="94.93684210526315" y="381.41052631578947"/>
      <point x="98.18947368421053" y="327.86315789473684" type="curve"/>
      <point x="98.18947368421053" y="219.56842105263158" type="line"/>
      <point x="96.11578947368422" y="138.03157894736842"/>
      <point x="95.22105263157894" y="74.10526315789474"/>
    </contour>
    <contour>
      <point x="729.9473684210526" y="0.0" type="curve"/>
      <point x="804.4947368421052" y="0.0" type="line"/>
      <point x="802.5999999999999" y="73.92631578947369"/>
      <point x="800.7052631578947" y="138.03157894736842"/>
      <point x="798.6315789473684" y="219.56842105263158" type="curve"/>
      <point x="798.6315789473684" y="247.8947368421053"/>
      <point x="800.3473684210526" y="285.5052631578947"/>
      <point x="800.3473684210526" y="328.6842105263158" type="curve" smooth="yes"/>
      <point x="800.3473684210526" y="443.7578947368421"/>
      <point x="754.9473684210526" y="506.5052631578947"/>
      <point x="653.5578947368422" y="506.5052631578947" type="curve" smooth="yes"/>
      <point x="598.0315789473684" y="506.5052631578947"/>
      <point x="525.1789473684212" y="447.2315789473684"/>
      <point x="478.3157894736842" y="403.5157894736842" type="curve"/>
      <point x="469.9894736842105" y="403.5157894736842" type="line"/>
      <point x="478.35789473684207" y="340.2631578947368" type="line"/>
      <point x="536.3368421052631" y="399.8842105263158"/>
      <point x="598.2842105263157" y="444.4421052631579"/>
      <point x="633.8421052631579" y="444.4421052631579" type="curve" smooth="yes"/>
      <point x="709.8526315789475" y="444.4421052631579"/>
      <point x="734.2736842105263" y="398.9157894736842"/>
      <point x="734.2736842105263" y="310.2526315789474" type="curve"/>
      <point x="734.2736842105263" y="217.2421052631579" type="line"/>
      <point x="732.5578947368421" y="138.03157894736842"/>
      <point x="731.6631578947367" y="73.92631578947369"/>
    </contour>
  </outline>
</glyph>
<glyph name="n" format="2">
  <advance width="579.0105263157895"/>
  <unicode hex="006E"/>
  <anchor x="294.89473684210526" y="0.0" name="bottom"/>
  <anchor x="294.89473684210526" y="495.4315789473684" name="top"/>
  <outline>
    <contour>
      <point x="93.32631578947368" y="0.0" type="curve"/>
      <point x="168.23157894736843" y="0.0" type="line"/>
      <point x="166.33684210526314" y="73.92631578947369"/>
      <point x="164.44210526315788" y="138.03157894736842"/>
      <point x="162.54736842105262" y="217.2421052631579" type="curve"/>
      <point x="162.54736842105262" y="340.2631578947368" type="line"/>
      <point x="220.52631578947367" y="399.8842105263158"/>
      <point x="290.86315789473684" y="444.4421052631579"/>
      <point x="327.06315789473683" y="444.4421052631579" type="curve" smooth="yes"/>
      <point x="407.7157894736842" y="444.4421052631579"/>
      <point x="433.77894736842103" y="398.9157894736842"/>
      <point x="433.77894736842103" y="310.2526315789474" type="curve"/>
      <point x="433.77894736842103" y="217.2421052631579" type="line"/>
      <point x="432.06315789473683" y="138.03157894736842"/>
      <point x="431.1684210526316" y="73.92631578947369"/>
      <point x="429.4526315789474" y="0.0" type="curve"/>
      <point x="504.0" y="0.0" type="line"/>
      <point x="502.10526315789474" y="73.92631578947369"/>
      <point x="500.2105263157895" y="138.03157894736842"/>
      <point x="498.13684210526316" y="219.56842105263158" type="curve"/>
      <point x="498.13684210526316" y="247.8947368421053"/>
      <point x="499.85263157894735" y="285.5052631578947"/>
      <point x="499.85263157894735" y="328.6842105263158" type="curve" smooth="yes"/>
      <point x="499.85263157894735" y="443.7578947368421"/>
      <point x="454.4526315789474" y="506.5052631578947"/>
      <point x="346.13684210526316" y="506.5052631578947" type="curve" smooth="yes"/>
      <point x="290.43157894736845" y="506.5052631578947"/>
      <point x="209.7263157894737" y="445.7684210526316"/>
      <point x="165.50526315789472" y="406.5157894736842" type="curve"/>
      <point x="157.53684210526313" y="406.5157894736842" type="line"/>
      <point x="150.82105263157894" y="499.6842105263158" type="line"/>
      <point x="85.61052631578947" y="495.4315789473684" type="line"/>
      <point x="90.04210526315791" y="438.7052631578947"/>
      <point x="94.93684210526315" y="381.41052631578947"/>
      <point x="98.18947368421053" y="327.86315789473684" type="curve"/>
      <point x="98.18947368421053" y="219.56842105263158" type="line"/>
      <point x="96.11578947368422" y="138.03157894736842"/>
      <point x="95.22105263157894" y="74.10526315789474"/>
    </contour>
  </outline>
</glyph>
<glyph name="p" format="2">
  <advance width="597.0736842105264"/>
  <unicode hex="0070"/>
  <outline>
    <contour>
      <point x="92.50526315789473" y="-194.7157894736842" type="curve"/>
      <point x="169.1263157894737" y="-192.0" type="line"/>
      <point x="166.87368421052633" y="-118.07368421052631"/>
      <point x="164.97894736842105" y="-53.96842105263158"/>
      <point x="162.54736842105262" y="25.242105263157896" type="curve"/>
      <point x="162.54736842105262" y="65.27368421052633" type="line"/>
      <point x="169.4421052631579" y="65.27368421052633" type="line"/>
      <point x="219.97894736842105" y="23.45263157894737"/>
      <point x="282.89473684210526" y="-10.25263157894737"/>
      <point x="327.4947368421052" y="-10.25263157894737" type="curve" smooth="yes"/>
      <point x="470.81052631578945" y="-10.25263157894737"/>
      <point x="542.5894736842106" y="110.3578947368421"/>
      <point x="542.5894736842106" y="249.3578947368421" type="curve" smooth="yes"/>
      <point x="542.5894736842106" y="396.7157894736842"/>
      <point x="462.7052631578947" y="506.5052631578947"/>
      <point x="325.6736842105263" y="506.5052631578947" type="curve" smooth="yes"/>
      <point x="271.4" y="506.5052631578947"/>
      <point x="212.1157894736842" y="467.4736842105263"/>
      <point x="165.11578947368423" y="430.86315789473684" type="curve"/>
      <point x="157.32631578947368" y="430.86315789473684" type="line"/>
      <point x="152.2526315789474" y="499.6842105263158" type="line"/>
      <point x="85.61052631578947" y="495.4315789473684" type="line"/>
      <point x="90.04210526315791" y="438.7052631578947"/>
      <point x="94.93684210526315" y="381.41052631578947"/>
      <point x="98.18947368421053" y="327.86315789473684" type="curve"/>
      <point x="98.18947368421053" y="27.568421052631578" type="line"/>
      <point x="96.11578947368422" y="-53.96842105263158"/>
      <point x="94.39999999999999" y="-120.78947368421052"/>
    </contour>
    <contour>
      <point x="311.2105263157895" y="49.12631578947368" type="curve"/>
      <point x="263.9052631578948" y="51.30526315789473"/>
      <point x="204.38947368421054" y="89.22105263157894"/>
      <point x="162.54736842105262" y="130.49473684210525" type="curve"/>
      <point x="162.54736842105262" y="371.11578947368423" type="line"/>
      <point x="212.60000000000002" y="419.34736842105264"/>
      <point x="271.9368421052631" y="445.2315789473684"/>
      <point x="309.56842105263155" y="446.58947368421053" type="curve"/>
      <point x="422.4947368421053" y="443.58947368421053"/>
      <point x="476.5157894736842" y="357.6842105263158"/>
      <point x="476.5157894736842" y="249.0" type="curve" smooth="yes"/>
      <point x="476.5157894736842" y="144.9578947368421"/>
      <point x="426.77894736842103" y="52.12631578947368"/>
    </contour>
  </outline>
</glyph>
<glyph name="q" format="2">
  <advance width="586.7157894736841"/>
  <unicode hex="0071"/>
  <outline>
    <contour>
      <point x="428.8421052631579" y="-194.7157894736842" type="curve"/>
      <point x="504.56842105263155" y="-192.0" type="line"/>
      <point x="502.6736842105263" y="-117.89473684210526"/>
      <point x="500.9578947368421" y="-53.96842105263158"/>
      <point x="498.88421052631577" y="27.568421052631578" type="curve"/>
      <point x="498.88421052631577" y="327.86315789473684" type="line"/>
      <point x="501.9578947368421" y="382.7684210526316"/>
      <point x="506.4947368421052" y="441.6"/>
      <point x="510.56842105263155" y="499.6842105263158" type="curve"/>
      <point x="444.82105263157894" y="495.4315789473684" type="line"/>
      <point x="439.7473684210526" y="430.86315789473684" type="line"/>
      <point x="431.9578947368421" y="430.86315789473684" type="line"/>
      <point x="384.9578947368421" y="467.4736842105263"/>
      <point x="325.6736842105263" y="506.5052631578947"/>
      <point x="271.4" y="506.5052631578947" type="curve" smooth="yes"/>
      <point x="134.3684210526316" y="506.5052631578947"/>
      <point x="54.48421052631579" y="396.7157894736842"/>
      <point x="54.48421052631579" y="249.3578947368421" type="curve" smooth="yes"/>
      <point x="54.48421052631579" y="110.3578947368421"/>
      <point x="126.26315789473685" y="-10.25263157894737"/>
      <point x="269.57894736842104" y="-10.25263157894737" type="curve" smooth="yes"/>
      <point x="314.17894736842106" y="-10.25263157894737"/>
      <point x="377.0947368421053" y="23.45263157894737"/>
      <point x="427.63157894736844" y="65.27368421052633" type="curve"/>
      <point x="434.5263157894737" y="65.27368421052633" type="line"/>
      <point x="434.5263157894737" y="25.242105263157896" type="line"/>
      <point x="432.63157894736844" y="-53.96842105263158"/>
      <point x="430.7368421052632" y="-120.78947368421052"/>
    </contour>
    <contour>
      <point x="285.86315789473684" y="49.12631578947368" type="curve"/>
      <point x="170.29473684210527" y="52.12631578947368"/>
      <point x="120.5578947368421" y="144.9578947368421"/>
      <point x="120.5578947368421" y="249.0" type="curve" smooth="yes"/>
      <point x="120.5578947368421" y="357.6842105263158"/>
      <point x="174.57894736842104" y="443.58947368421053"/>
      <point x="287.5052631578947" y="446.58947368421053" type="curve"/>
      <point x="325.13684210526316" y="445.2315789473684"/>
      <point x="384.4736842105263" y="419.34736842105264"/>
      <point x="434.5263157894737" y="371.11578947368423" type="curve"/>
      <point x="434.5263157894737" y="130.49473684210525" type="line"/>
      <point x="392.6842105263158" y="89.22105263157894"/>
      <point x="333.1684210526316" y="51.30526315789473"/>
    </contour>
  </outline>
</glyph>
<glyph name="r" format="2">
  <advance width="401.87368421052633"/>
  <unicode hex="0072"/>
  <anchor x="124.65263157894736" y="0.0" name="bottom"/>
  <anchor x="232.89473684210526" y="495.4315789473684" name="top"/>
  <outline>
    <contour>
      <point x="93.32631578947368" y="0.0" type="curve"/>
      <point x="168.23157894736843" y="0.0" type="line"/>
      <point x="166.33684210526314" y="73.92631578947369"/>
      <point x="164.44210526315788" y="138.03157894736842"/>
      <point x="162.54736842105262" y="217.2421052631579" type="curve"/>
      <point x="162.54736842105262" y="325.2947368421053" type="line"/>
      <point x="239.20000000000002" y="412.5473684210527"/>
      <point x="280.4842105263158" y="440.3263157894737"/>
      <point x="310.8315789473684" y="440.3263157894737" type="curve" smooth="yes"/>
      <point x="317.6526315789473" y="440.3263157894737"/>
      <point x="341.7263157894737" y="434.14736842105265"/>
      <point x="369.58947368421053" y="427.43157894736845" type="curve"/>
      <point x="375.4526315789474" y="498.9684210526316" type="line"/>
      <point x="357.63157894736844" y="502.5052631578947"/>
      <point x="329.06315789473683" y="506.5052631578947"/>
      <point x="318.06315789473683" y="506.5052631578947" type="curve" smooth="yes"/>
      <point x="282.38947368421054" y="506.5052631578947"/>
      <point x="234.53684210526316" y="476.8315789473684"/>
      <point x="163.0421052631579" y="395.8421052631579" type="curve"/>
      <point x="155.89473684210526" y="395.8421052631579" type="line"/>
      <point x="150.0" y="499.6842105263158" type="line"/>
      <point x="85.61052631578947" y="495.4315789473684" type="line"/>
      <point x="90.04210526315791" y="438.7052631578947"/>
      <point x="94.93684210526315" y="381.41052631578947"/>
      <point x="98.18947368421053" y="327.86315789473684" type="curve"/>
      <point x="98.18947368421053" y="219.56842105263158" type="line"/>
      <point x="96.11578947368422" y="138.03157894736842"/>
      <point x="95.22105263157894" y="74.10526315789474"/>
    </contour>
  </outline>
</glyph>
<glyph name="s" format="2">
  <advance width="451.86206896551727"/>
  <unicode hex="0073"/>
  <anchor x="225.90804597701148" y="0.0" name="bottom"/>
  <anchor x="225.90804597701148" y="495.5632183908046" name="top"/>
  <outline>
    <contour>
      <point x="228.60919540229884" y="-10.172413793103448" type="curve" smooth="yes"/>
      <point x="350.7701149425287" y="-10.172413793103448"/>
      <point x="402.67816091954023" y="54.827586206896555"/>
      <point x="402.67816091954023" y="137.0344827586207" type="curve" smooth="yes"/>
      <point x="402.67816091954023" y="225.98850574712642"/>
      <point x="340.7586206896552" y="249.3793103448276"/>
      <point x="244.45977011494253" y="277.7701149425287" type="curve" smooth="yes"/>
      <point x="158.75862068965517" y="302.81609195402297"/>
      <point x="130.57471264367817" y="322.08045977011494"/>
      <point x="130.57471264367817" y="368.5287356321839" type="curve" smooth="yes"/>
      <point x="130.57471264367817" y="434.55172413793105"/>
      <point x="189.06896551724137" y="446.55172413793105"/>
      <point x="230.16091954022988" y="448.55172413793105" type="curve"/>
      <point x="245.37931034482756" y="448.55172413793105"/>
      <point x="307.94252873563215" y="429.55172413793105"/>
      <point x="366.5057471264368" y="407.1609195402299" type="curve"/>
      <point x="372.0689655172414" y="471.2988505747127" type="line"/>
      <point x="330.9885057471264" y="483.2988505747126"/>
      <point x="253.4712643678161" y="506.3448275862069"/>
      <point x="221.5632183908046" y="506.3448275862069" type="curve" smooth="yes"/>
      <point x="125.48275862068965" y="506.3448275862069"/>
      <point x="64.40229885057471" y="451.7816091954023"/>
      <point x="64.40229885057471" y="366.7931034482759" type="curve" smooth="yes"/>
      <point x="64.40229885057471" y="281.2758620689655"/>
      <point x="125.32183908045977" y="251.32183908045977"/>
      <point x="201.4022988505747" y="229.32183908045977" type="curve" smooth="yes"/>
      <point x="303.02298850574715" y="199.6206896551724"/>
      <point x="336.8965517241379" y="183.7471264367816"/>
      <point x="336.8965517241379" y="136.51724137931035" type="curve" smooth="yes"/>
      <point x="336.8965517241379" y="64.75862068965517"/>
      <point x="285.71264367816093" y="49.62068965517241"/>
      <point x="225.48275862068965" y="47.62068965517241" type="curve"/>
      <point x="193.39080459770113" y="47.62068965517241"/>
      <point x="133.09195402298852" y="67.40229885057471"/>
      <point x="66.13793103448276" y="91.79310344827586" type="curve"/>
      <point x="59.96551724137931" y="26.482758620689655" type="line"/>
      <point x="121.3103448275862" y="8.045977011494253"/>
      <point x="192.21839080459773" y="-10.172413793103448"/>
    </contour>
  </outline>
</glyph>
<glyph name="u" format="2">
  <advance width="557.2315789473685"/>
  <unicode hex="0075"/>
  <anchor x="278.04210526315785" y="0.0" name="bottom"/>
  <anchor x="480.0736842105263" y="0.0" name="ogonek"/>
  <anchor x="278.04210526315785" y="495.4315789473684" name="top"/>
  <anchor x="528.2" y="495.4315789473684" name="topright"/>
  <outline>
    <contour>
      <point x="231.62105263157895" y="-10.25263157894737" type="curve" smooth="yes"/>
      <point x="285.5473684210526" y="-10.25263157894737"/>
      <point x="365.89473684210526" y="50.66315789473685"/>
      <point x="407.2526315789474" y="91.52631578947368" type="curve"/>
      <point x="415.22105263157897" y="91.52631578947368" type="line"/>
      <point x="419.4736842105263" y="0.0" type="line"/>
      <point x="481.14736842105265" y="0.0" type="line"/>
      <point x="479.25263157894733" y="74.10526315789474"/>
      <point x="477.5368421052632" y="138.03157894736842"/>
      <point x="475.46315789473687" y="219.56842105263158" type="curve"/>
      <point x="475.46315789473687" y="271.3578947368421" type="line"/>
      <point x="477.71578947368425" y="356.57894736842104"/>
      <point x="479.61052631578946" y="420.6842105263158"/>
      <point x="481.5052631578947" y="495.4315789473684" type="curve"/>
      <point x="405.77894736842103" y="495.4315789473684" type="line"/>
      <point x="407.6736842105263" y="421.5052631578947"/>
      <point x="409.38947368421054" y="356.57894736842104"/>
      <point x="411.10526315789474" y="276.7263157894737" type="curve"/>
      <point x="411.10526315789474" y="155.09473684210528" type="line"/>
      <point x="353.3052631578948" y="95.47368421052632"/>
      <point x="283.5052631578947" y="50.915789473684214"/>
      <point x="250.69473684210524" y="50.915789473684214" type="curve" smooth="yes"/>
      <point x="170.04210526315788" y="50.915789473684214"/>
      <point x="143.97894736842105" y="96.4421052631579"/>
      <point x="143.97894736842105" y="185.10526315789474" type="curve"/>
      <point x="143.97894736842105" y="276.7263157894737" type="line"/>
      <point x="145.69473684210524" y="357.4"/>
      <point x="147.41052631578947" y="423.40000000000003"/>
      <point x="149.12631578947367" y="498.14736842105265" type="curve"/>
      <point x="73.57894736842105" y="495.4315789473684" type="line"/>
      <point x="75.65263157894738" y="421.5052631578947"/>
      <point x="77.36842105263158" y="356.57894736842104"/>
      <point x="79.62105263157895" y="271.3578947368421" type="curve"/>
      <point x="79.62105263157895" y="240.56842105263158"/>
      <point x="78.26315789473685" y="210.74736842105264"/>
      <point x="78.26315789473685" y="167.56842105263158" type="curve" smooth="yes"/>
      <point x="78.26315789473685" y="52.49473684210526"/>
      <point x="123.30526315789473" y="-10.25263157894737"/>
    </contour>
  </outline>
</glyph>
<glyph name="v" format="2">
  <advance width="511.5684210526316"/>
  <unicode hex="0076"/>
  <outline>
    <contour>
      <point x="214.26315789473685" y="0.0" type="curve"/>
      <point x="295.8421052631579" y="0.0" type="line"/>
      <point x="318.76842105263154" y="62.17894736842105"/>
      <point x="340.6947368421053" y="123.35789473684211"/>
      <point x="362.8" y="185.7157894736842" type="curve"/>
      <point x="396.0842105263158" y="274.0736842105263" type="line"/>
      <point x="425.90526315789475" y="347.2526315789474"/>
      <point x="454.9052631578947" y="420.6105263157895"/>
      <point x="485.36842105263156" y="495.4315789473684" type="curve"/>
      <point x="407.53684210526313" y="495.4315789473684" type="line"/>
      <point x="377.90526315789475" y="410.30526315789473"/>
      <point x="349.09473684210525" y="325.7473684210526"/>
      <point x="318.64210526315793" y="237.7263157894737" type="curve"/>
      <point x="259.3052631578948" y="71.32631578947368" type="line"/>
      <point x="251.5157894736842" y="71.32631578947368" type="line"/>
      <point x="192.17894736842103" y="237.7263157894737" type="line"/>
      <point x="161.72631578947366" y="325.7473684210526"/>
      <point x="133.5578947368421" y="409.4842105263158"/>
      <point x="103.28421052631579" y="498.14736842105265" type="curve"/>
      <point x="26.2" y="495.4315789473684" type="line"/>
      <point x="55.2" y="423.0736842105263"/>
      <point x="84.19999999999999" y="348.0736842105263"/>
      <point x="113.19999999999999" y="275.7157894736842" type="curve"/>
      <point x="146.4842105263158" y="187.53684210526316" type="line"/>
      <point x="168.5894736842105" y="126.82105263157895"/>
      <point x="191.33684210526317" y="62.3578947368421"/>
    </contour>
  </outline>
</glyph>
<glyph name="w" format="2">
  <advance width="799.3157894736843"/>
  <unicode hex="0077"/>
  <anchor x="400.62105263157895" y="0.0" name="bottom"/>
  <anchor x="400.62105263157895" y="495.4315789473684" name="top"/>
  <outline>
    <contour>
      <point x="192.44210526315788" y="0.0" type="curve"/>
      <point x="273.4842105263158" y="0.0" type="line"/>
      <point x="297.8315789473684" y="82.23157894736842"/>
      <point x="324.0" y="171.74736842105264"/>
      <point x="346.70526315789476" y="248.8736842105263" type="curve"/>
      <point x="394.0105263157895" y="403.58947368421053" type="line"/>
      <point x="401.4421052631579" y="403.58947368421053" type="line"/>
      <point x="448.9263157894737" y="250.69473684210527" type="line"/>
      <point x="472.81052631578945" y="171.92631578947368"/>
      <point x="500.8" y="81.41052631578947"/>
      <point x="525.5052631578948" y="0.0" type="curve"/>
      <point x="609.3368421052631" y="0.0" type="line"/>
      <point x="628.4421052631579" y="61.0"/>
      <point x="647.7263157894737" y="124.53684210526315"/>
      <point x="667.8315789473684" y="189.53684210526316" type="curve"/>
      <point x="696.4736842105264" y="276.7157894736842" type="line"/>
      <point x="721.6526315789474" y="349.0736842105263"/>
      <point x="747.6526315789474" y="422.0736842105263"/>
      <point x="773.8315789473684" y="495.4315789473684" type="curve"/>
      <point x="695.7473684210527" y="495.4315789473684" type="line"/>
      <point x="673.0421052631579" y="418.33684210526314"/>
      <point x="645.4105263157894" y="322.6736842105263"/>
      <point x="620.0631578947368" y="237.29473684210527" type="curve"/>
      <point x="569.1157894736842" y="70.17894736842106" type="line"/>
      <point x="562.3263157894737" y="70.17894736842106" type="line"/>
      <point x="511.37894736842105" y="236.1157894736842" type="line"/>
      <point x="485.8526315789474" y="323.31578947368416"/>
      <point x="459.5052631578948" y="411.87368421052633"/>
      <point x="434.8" y="495.4315789473684" type="curve"/>
      <point x="364.7684210526316" y="495.4315789473684" type="line"/>
      <point x="339.24210526315784" y="407.41052631578947"/>
      <point x="313.7157894736842" y="320.2105263157895"/>
      <point x="289.0105263157895" y="234.4736842105263" type="curve"/>
      <point x="239.70526315789473" y="70.17894736842106" type="line"/>
      <point x="232.9157894736842" y="70.17894736842106" type="line"/>
      <point x="182.61052631578949" y="230.3684210526316" type="line"/>
      <point x="157.0842105263158" y="315.9263157894737"/>
      <point x="128.2736842105263" y="412.58947368421053"/>
      <point x="102.74736842105263" y="498.14736842105265" type="curve"/>
      <point x="25.48421052631579" y="495.4315789473684" type="line"/>
      <point x="51.66315789473685" y="421.2526315789474"/>
      <point x="76.84210526315789" y="350.0736842105263"/>
      <point x="103.02105263157895" y="276.7157894736842" type="curve"/>
      <point x="132.30526315789473" y="188.53684210526316" type="line"/>
      <point x="152.41052631578947" y="125.17894736842106"/>
      <point x="172.33684210526317" y="62.17894736842105"/>
    </contour>
  </outline>
</glyph>
<glyph name="x" format="2">
  <advance width="528.4315789473684"/>
  <unicode hex="0078"/>
  <outline>
    <contour>
      <point x="28.736842105263158" y="0.0" type="curve"/>
      <point x="112.28421052631579" y="0.0" type="line"/>
      <point x="142.5578947368421" y="46.136842105263156"/>
      <point x="164.4421052631579" y="79.63157894736842"/>
      <point x="194.7157894736842" y="125.58947368421053" type="curve"/>
      <point x="254.69473684210527" y="212.68421052631578" type="line"/>
      <point x="261.12631578947367" y="212.68421052631578" type="line"/>
      <point x="327.38947368421054" y="121.58947368421053" type="line"/>
      <point x="358.6631578947368" y="77.81052631578947"/>
      <point x="383.1894736842105" y="42.315789473684205"/>
      <point x="412.82105263157894" y="0.0" type="curve"/>
      <point x="500.58947368421053" y="0.0" type="line"/>
      <point x="449.8421052631579" y="63.89473684210526"/>
      <point x="418.55789473684206" y="103.61052631578947"/>
      <point x="381.4526315789474" y="150.32631578947368" type="curve"/>
      <point x="295.6736842105263" y="264.29473684210524" type="line"/>
      <point x="298.6421052631579" y="245.10526315789474" type="line"/>
      <point x="374.9578947368421" y="351.0" type="line"/>
      <point x="411.8842105263158" y="400.53684210526313"/>
      <point x="435.34736842105264" y="430.89473684210526"/>
      <point x="483.91578947368424" y="495.4315789473684" type="curve"/>
      <point x="399.36842105263156" y="495.4315789473684" type="line"/>
      <point x="368.91578947368424" y="449.11578947368423"/>
      <point x="346.85263157894735" y="415.2631578947368"/>
      <point x="318.6842105263158" y="372.41052631578947" type="curve"/>
      <point x="261.63157894736844" y="289.77894736842103" type="line"/>
      <point x="255.66315789473686" y="289.77894736842103" type="line"/>
      <point x="198.25263157894736" y="371.94736842105266" type="line"/>
      <point x="170.0842105263158" y="414.4421052631579"/>
      <point x="146.8421052631579" y="449.36842105263156"/>
      <point x="114.38947368421053" y="498.14736842105265" type="curve"/>
      <point x="31.126315789473683" y="495.4315789473684" type="line"/>
      <point x="78.33684210526316" y="433.2526315789474"/>
      <point x="105.62105263157895" y="396.7157894736842"/>
      <point x="143.18947368421053" y="347.53684210526313" type="curve"/>
      <point x="218.61052631578949" y="241.82105263157894" type="line"/>
      <point x="217.78947368421052" y="262.65263157894736" type="line"/>
      <point x="140.26315789473685" y="151.68421052631578" type="line"/>
      <point x="103.69473684210526" y="101.78947368421052"/>
      <point x="76.94736842105263" y="65.43157894736842"/>
    </contour>
  </outline>
</glyph>
<glyph name="y" format="2">
  <advance width="514.8526315789475"/>
  <unicode hex="0079"/>
  <anchor x="375.7684210526316" y="0.0" name="bottom"/>
  <anchor x="257.87368421052633" y="495.4315789473684" name="top"/>
  <outline>
    <contour>
      <point x="136.04210526315788" y="-194.7157894736842" type="curve"/>
      <point x="214.94736842105263" y="-192.0" type="line"/>
      <point x="243.05263157894737" y="-120.0"/>
      <point x="274.33684210526314" y="-38.46315789473684"/>
      <point x="323.0842105263158" y="88.71578947368421" type="curve"/>
      <point x="378.5473684210526" y="228.07368421052632" type="line"/>
      <point x="430.18947368421055" y="353.2526315789474"/>
      <point x="455.0105263157895" y="414.4315789473684"/>
      <point x="488.65263157894736" y="495.4315789473684" type="curve"/>
      <point x="411.17894736842106" y="495.4315789473684" type="line"/>
      <point x="380.7263157894737" y="408.2315789473684"/>
      <point x="351.09473684210525" y="324.85263157894735"/>
      <point x="319.6421052631579" y="236.83157894736843" type="curve"/>
      <point x="256.66315789473686" y="69.89473684210526" type="line"/>
      <point x="248.8736842105263" y="69.89473684210526" type="line"/>
      <point x="191.17894736842106" y="236.18947368421053" type="line"/>
      <point x="161.54736842105262" y="325.38947368421054"/>
      <point x="132.73684210526315" y="408.94736842105266"/>
      <point x="103.10526315789474" y="498.14736842105265" type="curve"/>
      <point x="26.2" y="495.4315789473684" type="line"/>
      <point x="54.02105263157895" y="424.43157894736845"/>
      <point x="84.02105263157895" y="348.43157894736845"/>
      <point x="112.02105263157895" y="277.0736842105263" type="curve"/>
      <point x="145.30526315789473" y="187.07368421052632" type="line"/>
      <point x="169.23157894736843" y="121.07368421052631"/>
      <point x="195.1578947368421" y="50.07368421052631"/>
      <point x="218.44210526315788" y="-18.28421052631579" type="curve"/>
      <point x="221.8736842105263" y="0.47368421052631593" type="line"/>
      <point x="193.44210526315788" y="-63.136842105263156"/>
      <point x="164.47368421052633" y="-130.2842105263158"/>
    </contour>
  </outline>
</glyph>
<glyph name="z" format="2">
  <advance width="491.66315789473686"/>
  <unicode hex="007A"/>
  <anchor x="244.01052631578946" y="0.0" name="bottom"/>
  <anchor x="244.01052631578946" y="247.7157894736842" name="center"/>
  <anchor x="244.01052631578946" y="495.4315789473684" name="top"/>
  <outline>
    <contour>
      <point x="40.421052631578945" y="0.0" type="line"/>
      <point x="454.5263157894737" y="0.0" type="line"/>
      <point x="454.5263157894737" y="58.55789473684211" type="line"/>
      <point x="384.2842105263158" y="56.12631578947368"/>
      <point x="290.90526315789475" y="53.51578947368421"/>
      <point x="234.66315789473686" y="51.62105263157895" type="curve"/>
      <point x="109.71578947368421" y="51.62105263157895" type="line"/>
      <point x="117.7578947368421" y="35.82105263157895" type="line"/>
      <point x="283.0842105263158" y="252.31578947368422" type="line"/>
      <point x="334.5052631578947" y="317.2315789473684"/>
      <point x="397.21052631578954" y="396.71578947368425"/>
      <point x="438.2421052631579" y="448.7789473684211" type="curve"/>
      <point x="438.2421052631579" y="495.4315789473684" type="line"/>
      <point x="41.67368421052632" y="495.4315789473684" type="line"/>
      <point x="41.67368421052632" y="435.9789473684211" type="line"/>
      <point x="116.37894736842105" y="438.5894736842106"/>
      <point x="212.29473684210527" y="441.5578947368421"/>
      <point x="267.89473684210526" y="443.63157894736844" type="curve"/>
      <point x="381.09473684210525" y="443.63157894736844" type="line"/>
      <point x="370.5157894736842" y="468.2526315789474" type="line"/>
      <point x="204.22105263157894" y="249.89473684210526" type="line"/>
      <point x="155.26315789473688" y="188.0842105263158"/>
      <point x="99.02105263157894" y="116.52631578947368"/>
      <point x="40.421052631578945" y="41.78947368421053" type="curve"/>
    </contour>
  </outline>
</glyph>
<glyph name="braceleft" format="2">
  <advance width="393.11578947368423"/>
  <unicode hex="007B"/>
  <outline>
    <contour>
      <point x="295.7368421052632" y="-115.22105263157894" type="curve" smooth="yes"/>
      <point x="379.53684210526313" y="-115.22105263157894" type="line"/>
      <point x="379.53684210526313" y="-57.915789473684214" type="line"/>
      <point x="353.7473684210526" y="-58.273684210526326"/>
      <point x="319.3578947368421" y="-59.452631578947376"/>
      <point x="302.3578947368421" y="-59.631578947368425" type="curve"/>
      <point x="235.69473684210527" y="-58.09473684210527"/>
      <point x="202.9894736842105" y="-28.957894736842107"/>
      <point x="202.6315789473684" y="28.568421052631578" type="curve" smooth="yes"/>
      <point x="200.37894736842105" y="239.42105263157893" type="line" smooth="yes"/>
      <point x="200.2" y="249.03157894736844"/>
      <point x="153.2315789473684" y="299.6736842105263"/>
      <point x="127.29473684210527" y="320.6421052631579" type="curve"/>
      <point x="127.29473684210527" y="328.2526315789474" type="line"/>
      <point x="153.2315789473684" y="348.57894736842104"/>
      <point x="200.2" y="399.3263157894737"/>
      <point x="200.37894736842105" y="408.65263157894736" type="curve" smooth="yes"/>
      <point x="202.6315789473684" y="620.3263157894737" type="line" smooth="yes"/>
      <point x="202.9894736842105" y="677.8526315789474"/>
      <point x="235.69473684210527" y="706.9894736842105"/>
      <point x="302.3578947368421" y="708.5263157894736" type="curve"/>
      <point x="320.17894736842106" y="708.3473684210526"/>
      <point x="355.2105263157895" y="707.1684210526315"/>
      <point x="378.6421052631579" y="706.8105263157894" type="curve"/>
      <point x="378.6421052631579" y="764.1157894736842" type="line"/>
      <point x="295.7368421052632" y="764.1157894736842" type="line" smooth="yes"/>
      <point x="198.68421052631578" y="764.1157894736842"/>
      <point x="137.95789473684212" y="715.1789473684211"/>
      <point x="137.95789473684212" y="628.021052631579" type="curve"/>
      <point x="137.95789473684212" y="618.9157894736842"/>
      <point x="139.85263157894738" y="461.1894736842105"/>
      <point x="139.85263157894738" y="452.0842105263158" type="curve"/>
      <point x="139.85263157894738" y="393.87368421052633"/>
      <point x="88.93684210526315" y="349.63157894736844"/>
      <point x="51.22105263157895" y="349.63157894736844" type="curve" smooth="yes"/>
      <point x="11.789473684210526" y="349.63157894736844" type="line"/>
      <point x="11.789473684210526" y="298.4421052631579" type="line"/>
      <point x="51.22105263157895" y="298.4421052631579" type="line" smooth="yes"/>
      <point x="88.93684210526315" y="298.4421052631579"/>
      <point x="139.85263157894738" y="254.2"/>
      <point x="139.85263157894738" y="195.98947368421054" type="curve"/>
      <point x="139.85263157894738" y="186.8842105263158"/>
      <point x="137.95789473684212" y="29.978947368421053"/>
      <point x="137.95789473684212" y="20.873684210526314" type="curve"/>
      <point x="137.95789473684212" y="-66.28421052631579"/>
      <point x="198.68421052631578" y="-115.22105263157894"/>
    </contour>
  </outline>
</glyph>
<glyph name="cent" format="2">
  <advance width="496.9894736842105"/>
  <unicode hex="00A2"/>
  <anchor x="287.13684210526316" y="0.0" name="bottom"/>
  <anchor x="279.7473684210526" y="495.4315789473684" name="top"/>
  <outline>
    <contour>
      <point x="250.8" y="-137.0" type="curve"/>
      <point x="309.0315789473684" y="-137.0" type="line"/>
      <point x="307.3157894736842" y="0.9999999999999997"/>
      <point x="305.42105263157896" y="154.0"/>
      <point x="305.2421052631579" y="192.0" type="curve"/>
      <point x="305.2421052631579" y="294.89473684210526" type="line"/>
      <point x="305.42105263157896" y="332.89473684210526"/>
      <point x="307.3157894736842" y="485.89473684210526"/>
      <point x="309.0315789473684" y="623.8947368421053" type="curve"/>
      <point x="250.8" y="623.8947368421053" type="line"/>
      <point x="252.5157894736842" y="485.89473684210526"/>
      <point x="254.41052631578947" y="332.89473684210526"/>
      <point x="254.58947368421053" y="294.89473684210526" type="curve"/>
      <point x="254.58947368421053" y="192.0" type="line"/>
      <point x="254.41052631578947" y="154.0"/>
      <point x="252.5157894736842" y="1.0"/>
    </contour>
    <contour>
      <point x="302.0315789473684" y="-9.536842105263158" type="curve" smooth="yes"/>
      <point x="333.7789473684211" y="-9.536842105263158"/>
      <point x="406.7157894736842" y="8.673684210526316"/>
      <point x="449.3578947368421" y="23.42105263157895" type="curve"/>
      <point x="442.17894736842106" y="85.72631578947369" type="line"/>
      <point x="395.7578947368421" y="65.05263157894737"/>
      <point x="332.8" y="48.58947368421053"/>
      <point x="312.7684210526316" y="48.58947368421053" type="curve" smooth="yes"/>
      <point x="184.54736842105262" y="51.231578947368426"/>
      <point x="120.02105263157895" y="135.6"/>
      <point x="120.02105263157895" y="249.43157894736842" type="curve" smooth="yes"/>
      <point x="120.02105263157895" y="370.3263157894737"/>
      <point x="190.71578947368423" y="444.12631578947367"/>
      <point x="298.1473684210526" y="447.12631578947367" type="curve"/>
      <point x="314.8947368421053" y="447.12631578947367"/>
      <point x="379.7157894736842" y="429.30526315789473"/>
      <point x="440.6421052631579" y="406.8421052631579" type="curve"/>
      <point x="447.4315789473684" y="469.86315789473684" type="line"/>
      <point x="405.3157894736842" y="482.93684210526317"/>
      <point x="322.77894736842103" y="506.3263157894737"/>
      <point x="292.4947368421053" y="506.3263157894737" type="curve" smooth="yes"/>
      <point x="141.7684210526316" y="506.3263157894737"/>
      <point x="54.126315789473686" y="394.9684210526316"/>
      <point x="54.126315789473686" y="248.17894736842106" type="curve" smooth="yes"/>
      <point x="54.126315789473686" y="102.38947368421053"/>
      <point x="143.81052631578947" y="-9.536842105263158"/>
    </contour>
  </outline>
</glyph>
<glyph name="sterling" format="2">
  <advance width="586.8736842105263"/>
  <unicode hex="00A3"/>
  <outline>
    <contour>
      <point x="67.84210526315789" y="0.0" type="line"/>
      <point x="552.7684210526315" y="0.0" type="line"/>
      <point x="552.7684210526315" y="66.64210526315789" type="line"/>
      <point x="474.2" y="64.74736842105263"/>
      <point x="348.3894736842105" y="62.49473684210526"/>
      <point x="259.9263157894737" y="60.421052631578945" type="curve"/>
      <point x="115.6842105263158" y="60.421052631578945" type="line"/>
      <point x="127.84210526315789" y="39.45263157894737" type="line"/>
      <point x="198.2" y="163.90526315789475"/>
      <point x="213.37894736842105" y="200.47368421052633"/>
      <point x="213.37894736842105" y="238.86315789473684" type="curve" smooth="yes"/>
      <point x="213.37894736842105" y="451.0210526315789" type="line" smooth="yes"/>
      <point x="213.37894736842105" y="578.8842105263158"/>
      <point x="266.7263157894737" y="635.4421052631578"/>
      <point x="373.7368421052632" y="636.978947368421" type="curve"/>
      <point x="392.4526315789473" y="636.978947368421"/>
      <point x="453.8736842105263" y="620.2315789473683"/>
      <point x="515.8736842105263" y="596.5157894736842" type="curve"/>
      <point x="523.7368421052631" y="660.6842105263158" type="line"/>
      <point x="485.0210526315789" y="674.042105263158"/>
      <point x="406.59999999999997" y="697.7894736842105"/>
      <point x="369.33684210526314" y="697.7894736842105" type="curve" smooth="yes"/>
      <point x="229.1263157894737" y="697.7894736842105"/>
      <point x="144.33684210526314" y="618.7789473684211"/>
      <point x="144.33684210526314" y="455.5578947368421" type="curve" smooth="yes"/>
      <point x="144.33684210526314" y="378.6736842105263"/>
      <point x="145.8736842105263" y="302.7894736842105"/>
      <point x="145.8736842105263" y="226.0842105263158" type="curve"/>
      <point x="145.8736842105263" y="197.69473684210527"/>
      <point x="132.23157894736843" y="159.02105263157898"/>
      <point x="67.84210526315789" y="43.642105263157895" type="curve"/>
    </contour>
    <contour>
      <point x="61.88421052631579" y="350.35789473684207" type="line"/>
      <point x="122.92631578947369" y="351.7157894736842"/>
      <point x="191.53684210526316" y="353.07368421052627"/>
      <point x="230.47368421052633" y="353.4315789473684" type="curve"/>
      <point x="262.9789473684211" y="353.4315789473684" type="line"/>
      <point x="301.91578947368424" y="353.07368421052627"/>
      <point x="370.5263157894737" y="351.7157894736842"/>
      <point x="431.5684210526316" y="350.35789473684207" type="curve"/>
      <point x="431.5684210526316" y="406.33684210526314" type="line"/>
      <point x="370.5263157894737" y="404.978947368421"/>
      <point x="301.91578947368424" y="403.62105263157895"/>
      <point x="262.9789473684211" y="403.2631578947368" type="curve"/>
      <point x="230.47368421052633" y="403.2631578947368" type="line"/>
      <point x="191.53684210526316" y="403.62105263157895"/>
      <point x="122.92631578947369" y="404.978947368421"/>
      <point x="61.88421052631579" y="406.33684210526314" type="curve"/>
    </contour>
  </outline>
</glyph>
<glyph name="currency" format="2">
  <advance width="615.0315789473684"/>
  <unicode hex="00A4"/>
  <outline>
    <contour>
      <point x="305.69473684210527" y="120.51578947368421" type="curve" smooth="yes"/>
      <point x="422.10526315789474" y="120.51578947368421"/>
      <point x="507.7578947368421" y="195.94736842105263"/>
      <point x="507.7578947368421" y="320.3578947368421" type="curve" smooth="yes"/>
      <point x="507.7578947368421" y="438.36842105263156"/>
      <point x="422.9263157894737" y="520.3052631578947"/>
      <point x="307.69473684210527" y="520.3052631578947" type="curve" smooth="yes"/>
      <point x="190.46315789473684" y="520.3052631578947"/>
      <point x="105.63157894736842" y="438.4421052631579"/>
      <point x="105.63157894736842" y="320.3578947368421" type="curve" smooth="yes"/>
      <point x="105.63157894736842" y="196.1263157894737"/>
      <point x="190.46315789473684" y="120.51578947368421"/>
    </contour>
    <contour>
      <point x="93.3157894736842" y="60.07368421052632" type="line"/>
      <point x="135.2842105263158" y="103.57894736842105"/>
      <point x="183.0" y="153.01052631578946"/>
      <point x="209.68421052631578" y="181.05263157894737" type="curve"/>
      <point x="167.74736842105264" y="222.98947368421054" type="line"/>
      <point x="139.70526315789473" y="196.30526315789476"/>
      <point x="90.27368421052633" y="148.58947368421053"/>
      <point x="46.76842105263158" y="106.62105263157895" type="curve"/>
    </contour>
    <contour>
      <point x="305.87368421052633" y="178.2842105263158" type="curve"/>
      <point x="228.2842105263158" y="181.0"/>
      <point x="166.62105263157895" y="224.3473684210526"/>
      <point x="166.62105263157895" y="320.17894736842106" type="curve" smooth="yes"/>
      <point x="166.62105263157895" y="410.0105263157895"/>
      <point x="229.10526315789474" y="460.0"/>
      <point x="307.5157894736842" y="462.7157894736842" type="curve"/>
      <point x="385.2842105263158" y="460.0"/>
      <point x="446.7684210526316" y="409.65263157894736"/>
      <point x="446.7684210526316" y="320.17894736842106" type="curve" smooth="yes"/>
      <point x="446.7684210526316" y="224.3473684210526"/>
      <point x="385.10526315789474" y="181.0"/>
    </contour>
    <contour>
      <point x="168.10526315789474" y="419.0105263157895" type="curve"/>
      <point x="209.32631578947368" y="460.2315789473684" type="line"/>
      <point x="182.6421052631579" y="488.2736842105263"/>
      <point x="134.92631578947368" y="537.7052631578948"/>
      <point x="92.9578947368421" y="581.2105263157895" type="curve"/>
      <point x="47.126315789473686" y="535.378947368421" type="line"/>
      <point x="90.63157894736842" y="493.41052631578947"/>
      <point x="140.06315789473683" y="445.69473684210527"/>
    </contour>
    <contour>
      <point x="522.0736842105263" y="60.43157894736842" type="curve"/>
      <point x="567.9052631578948" y="106.26315789473684" type="line"/>
      <point x="524.4" y="148.23157894736843"/>
      <point x="474.9684210526316" y="195.94736842105266"/>
      <point x="446.9263157894737" y="222.6315789473684" type="curve"/>
      <point x="405.70526315789476" y="181.41052631578947" type="line"/>
      <point x="432.3894736842105" y="153.3684210526316"/>
      <point x="480.1052631578947" y="103.93684210526317"/>
    </contour>
    <contour>
      <point x="447.2842105263158" y="418.65263157894736" type="line"/>
      <point x="475.3263157894737" y="445.33684210526314"/>
      <point x="524.7578947368421" y="493.05263157894734"/>
      <point x="568.2631578947369" y="535.0210526315789" type="curve"/>
      <point x="521.7157894736841" y="581.5684210526316" type="line"/>
      <point x="479.7473684210526" y="538.0631578947368"/>
      <point x="432.0315789473684" y="488.63157894736844"/>
      <point x="405.34736842105264" y="460.58947368421053" type="curve"/>
    </contour>
  </outline>
</glyph>
<glyph name="yen" format="2">
  <advance width="617.3157894736843"/>
  <unicode hex="00A5"/>
  <outline>
    <contour>
      <point x="276.9789473684211" y="275.8315789473684" type="line"/>
      <point x="341.0526315789474" y="275.8315789473684" type="line"/>
      <point x="490.5789473684211" y="524.0631578947368" type="line"/>
      <point x="523.7578947368421" y="576.0315789473684"/>
      <point x="560.4" y="633.1052631578947"/>
      <point x="593.578947368421" y="685.0736842105263" type="curve"/>
      <point x="507.0210526315789" y="685.0736842105263" type="line"/>
      <point x="453.5052631578947" y="591.1578947368421"/>
      <point x="426.51578947368426" y="545.4526315789474"/>
      <point x="384.8526315789474" y="471.9263157894737" type="curve"/>
      <point x="312.7684210526316" y="349.9789473684211" type="line"/>
      <point x="304.62105263157895" y="349.9789473684211" type="line"/>
      <point x="233.7157894736842" y="470.9263157894737" type="line"/>
      <point x="191.5894736842105" y="545.0210526315789"/>
      <point x="166.2421052631579" y="589.978947368421"/>
      <point x="112.08421052631579" y="685.0736842105263" type="curve"/>
      <point x="23.378947368421052" y="685.0736842105263" type="line"/>
      <point x="74.9157894736842" y="604.3894736842105"/>
      <point x="96.91578947368421" y="570.4947368421052"/>
      <point x="127.09473684210525" y="523.8842105263158" type="curve"/>
    </contour>
    <contour>
      <point x="270.5789473684211" y="0.0" type="curve"/>
      <point x="348.4526315789474" y="0.0" type="line"/>
      <point x="346.55789473684206" y="76.92631578947368"/>
      <point x="344.8421052631579" y="142.85263157894738"/>
      <point x="342.7684210526316" y="226.56842105263158" type="curve"/>
      <point x="342.7684210526316" y="330.53684210526313" type="line"/>
      <point x="275.44210526315794" y="330.53684210526313" type="line"/>
      <point x="275.44210526315794" y="226.56842105263158" type="line"/>
      <point x="273.3684210526316" y="142.85263157894738"/>
      <point x="272.47368421052636" y="76.92631578947368"/>
    </contour>
    <contour>
      <point x="82.70526315789473" y="144.01052631578946" type="line"/>
      <point x="143.7473684210526" y="145.36842105263156"/>
      <point x="212.3578947368421" y="146.7263157894737"/>
      <point x="251.29473684210527" y="147.0842105263158" type="curve"/>
      <point x="367.37894736842105" y="147.0842105263158" type="line"/>
      <point x="406.3157894736843" y="146.7263157894737"/>
      <point x="474.92631578947373" y="145.36842105263156"/>
      <point x="535.9684210526316" y="144.01052631578946" type="curve"/>
      <point x="535.9684210526316" y="195.5157894736842" type="line"/>
      <point x="474.92631578947373" y="194.5157894736842"/>
      <point x="406.3157894736843" y="193.5157894736842"/>
      <point x="367.37894736842105" y="193.33684210526314" type="curve"/>
      <point x="251.29473684210527" y="193.33684210526314" type="line"/>
      <point x="212.3578947368421" y="193.5157894736842"/>
      <point x="143.7473684210526" y="194.5157894736842"/>
      <point x="82.70526315789473" y="195.5157894736842" type="curve"/>
    </contour>
    <contour>
      <point x="82.70526315789473" y="283.6736842105263" type="line"/>
      <point x="143.7473684210526" y="284.6736842105263"/>
      <point x="212.3578947368421" y="285.6736842105263"/>
      <point x="251.29473684210527" y="285.85263157894735" type="curve"/>
      <point x="367.37894736842105" y="285.85263157894735" type="line"/>
      <point x="406.3157894736843" y="285.6736842105263"/>
      <point x="474.92631578947373" y="284.6736842105263"/>
      <point x="535.9684210526316" y="283.6736842105263" type="curve"/>
      <point x="535.9684210526316" y="335.17894736842106" type="line"/>
      <point x="474.92631578947373" y="333.82105263157894"/>
      <point x="406.3157894736843" y="332.46315789473687"/>
      <point x="367.37894736842105" y="332.10526315789474" type="curve"/>
      <point x="251.29473684210527" y="332.10526315789474" type="line"/>
      <point x="212.3578947368421" y="332.46315789473687"/>
      <point x="143.7473684210526" y="333.82105263157894"/>
      <point x="82.70526315789473" y="335.17894736842106" type="curve"/>
    </contour>
  </outline>
</glyph>
<glyph name="brokenbar" format="2">
  <advance width="259.30526315789473"/>
  <unicode hex="00A6"/>
  <outline>
    <contour>
      <point x="100.33684210526316" y="364.2105263157895" type="line"/>
      <point x="158.96842105263158" y="364.2105263157895" type="line"/>
      <point x="158.96842105263158" y="455.2105263157895" type="line"/>
      <point x="159.14736842105265" y="493.2105263157895"/>
      <point x="161.0421052631579" y="646.2105263157895"/>
      <point x="162.7578947368421" y="784.2105263157895" type="curve"/>
      <point x="96.54736842105264" y="784.2105263157895" type="line"/>
      <point x="98.26315789473685" y="646.2105263157895"/>
      <point x="100.15789473684211" y="493.2105263157895"/>
      <point x="100.33684210526316" y="455.2105263157895" type="curve"/>
    </contour>
    <contour>
      <point x="96.54736842105264" y="-155.78947368421052" type="curve"/>
      <point x="162.7578947368421" y="-155.78947368421052" type="line"/>
      <point x="161.0421052631579" y="-17.789473684210527"/>
      <point x="159.14736842105265" y="135.21052631578948"/>
      <point x="158.96842105263158" y="173.21052631578948" type="curve"/>
      <point x="158.96842105263158" y="264.2105263157895" type="line"/>
      <point x="100.33684210526316" y="264.2105263157895" type="line"/>
      <point x="100.33684210526316" y="173.21052631578948" type="line"/>
      <point x="100.15789473684211" y="135.21052631578948"/>
      <point x="98.26315789473685" y="-17.789473684210527"/>
    </contour>
  </outline>
</glyph>
<glyph name="copyright" format="2">
  <advance width="821.4842105263158"/>
  <unicode hex="00A9"/>
  <outline>
    <contour>
      <point x="414.2421052631579" y="-10.25263157894737" type="curve" smooth="yes"/>
      <point x="633.8947368421053" y="-10.25263157894737"/>
      <point x="767.9263157894737" y="141.10526315789474"/>
      <point x="767.9263157894737" y="344.17894736842106" type="curve" smooth="yes"/>
      <point x="767.9263157894737" y="540.7157894736843"/>
      <point x="640.0736842105263" y="697.7894736842105"/>
      <point x="411.5263157894737" y="697.7894736842105" type="curve" smooth="yes"/>
      <point x="186.8" y="697.7894736842105"/>
      <point x="53.5578947368421" y="543.3578947368421"/>
      <point x="53.5578947368421" y="344.0" type="curve" smooth="yes"/>
      <point x="53.5578947368421" y="151.89473684210526"/>
      <point x="175.69473684210527" y="-10.25263157894737"/>
    </contour>
    <contour>
      <point x="421.7789473684211" y="155.82105263157894" type="curve" smooth="yes"/>
      <point x="460.4842105263158" y="155.82105263157894"/>
      <point x="503.3157894736842" y="170.21052631578948"/>
      <point x="529.8526315789474" y="179.67368421052632" type="curve"/>
      <point x="523.8526315789474" y="231.6736842105263" type="line"/>
      <point x="490.5368421052632" y="214.82105263157897"/>
      <point x="456.3578947368421" y="204.0"/>
      <point x="429.4736842105263" y="204.0" type="curve"/>
      <point x="342.2421052631579" y="205.82105263157894"/>
      <point x="294.82105263157894" y="259.0210526315789"/>
      <point x="294.82105263157894" y="345.3578947368421" type="curve" smooth="yes"/>
      <point x="294.82105263157894" y="435.8315789473684"/>
      <point x="346.84210526315786" y="481.9263157894737"/>
      <point x="418.82105263157894" y="484.10526315789474" type="curve"/>
      <point x="435.85263157894735" y="484.10526315789474"/>
      <point x="477.5684210526316" y="474.38947368421054"/>
      <point x="523.3157894736842" y="452.99999999999994" type="curve"/>
      <point x="528.5684210526316" y="505.7157894736842" type="line"/>
      <point x="497.7052631578947" y="517.0736842105264"/>
      <point x="449.19999999999993" y="533.0"/>
      <point x="415.2421052631579" y="533.0" type="curve" smooth="yes"/>
      <point x="304.8421052631579" y="533.0"/>
      <point x="240.55789473684212" y="451.17894736842106"/>
      <point x="240.55789473684212" y="344.46315789473687" type="curve" smooth="yes"/>
      <point x="240.55789473684212" y="237.74736842105264"/>
      <point x="305.9894736842105" y="155.82105263157894"/>
    </contour>
    <contour>
      <point x="414.06315789473683" y="36.242105263157896" type="curve"/>
      <point x="218.74736842105264" y="40.95789473684211"/>
      <point x="101.48421052631579" y="154.16842105263157"/>
      <point x="101.48421052631579" y="344.0" type="curve" smooth="yes"/>
      <point x="101.48421052631579" y="531.5157894736842"/>
      <point x="222.92631578947368" y="646.578947368421"/>
      <point x="411.70526315789476" y="651.2947368421053" type="curve"/>
      <point x="601.6631578947369" y="646.578947368421"/>
      <point x="720.0" y="532.9789473684211"/>
      <point x="720.0" y="344.17894736842106" type="curve" smooth="yes"/>
      <point x="720.0" y="153.66315789473683"/>
      <point x="599.9473684210526" y="40.95789473684211"/>
    </contour>
  </outline>
</glyph>
<glyph name="ordfeminine" format="2">
  <advance width="392.6896551724138"/>
  <unicode hex="00AA"/>
  <outline>
    <contour>
      <point x="153.13793103448276" y="333.4367816091954" type="curve" smooth="yes"/>
      <point x="189.18390804597698" y="333.4367816091954"/>
      <point x="242.01149425287358" y="366.65517241379314"/>
      <point x="285.0574712643678" y="400.8735632183908" type="curve"/>
      <point x="291.2298850574713" y="400.8735632183908" type="line"/>
      <point x="305.8390804597701" y="340.82758620689657" type="line"/>
      <point x="357.9425287356322" y="340.82758620689657" type="line"/>
      <point x="348.5517241379311" y="380.12643678160924"/>
      <point x="340.9425287356322" y="412.9080459770115"/>
      <point x="333.9425287356322" y="443.42528735632186" type="curve"/>
      <point x="333.9425287356322" y="501.2183908045977" type="line" smooth="yes"/>
      <point x="333.9425287356322" y="534.264367816092"/>
      <point x="335.9425287356322" y="572.0459770114943"/>
      <point x="335.9425287356322" y="594.8275862068966" type="curve" smooth="yes"/>
      <point x="335.9425287356322" y="687.0"/>
      <point x="283.98850574712645" y="725.7816091954023"/>
      <point x="203.68965517241378" y="725.7816091954023" type="curve" smooth="yes"/>
      <point x="177.86206896551724" y="725.7816091954023"/>
      <point x="94.26436781609195" y="707.7816091954023"/>
      <point x="58.48275862068966" y="697.7816091954023" type="curve"/>
      <point x="61.264367816091955" y="643.6781609195402" type="line"/>
      <point x="120.65517241379311" y="663.2413793103448"/>
      <point x="181.2183908045977" y="677.8045977011494"/>
      <point x="194.6551724137931" y="677.8045977011494" type="curve" smooth="yes"/>
      <point x="245.13793103448276" y="677.8045977011494"/>
      <point x="288.8390804597701" y="663.5862068965517"/>
      <point x="285.2298850574713" y="584.5632183908046" type="curve"/>
      <point x="160.70114942528735" y="559.1264367816092" type="line" smooth="yes"/>
      <point x="111.52873563218391" y="549.1264367816092"/>
      <point x="41.48275862068965" y="520.7816091954023"/>
      <point x="41.48275862068965" y="436.82758620689657" type="curve" smooth="yes"/>
      <point x="41.48275862068965" y="376.60919540229884"/>
      <point x="81.91954022988506" y="333.4367816091954"/>
    </contour>
    <contour>
      <point x="169.64367816091954" y="379.85057471264366" type="curve" smooth="yes"/>
      <point x="125.06896551724138" y="379.85057471264366"/>
      <point x="92.97701149425288" y="398.5057471264368"/>
      <point x="92.97701149425288" y="446.08045977011494" type="curve" smooth="yes"/>
      <point x="92.97701149425288" y="496.8735632183908"/>
      <point x="136.72413793103448" y="514.919540229885"/>
      <point x="181.68965517241378" y="523.7471264367816" type="curve" smooth="yes"/>
      <point x="252.7471264367816" y="538.183908045977"/>
      <point x="271.01149425287355" y="545.4022988505748"/>
      <point x="284.44827586206895" y="551.7931034482758" type="curve"/>
      <point x="283.8390804597701" y="442.86206896551727" type="line"/>
      <point x="245.91954022988506" y="406.94252873563215"/>
      <point x="195.95402298850576" y="379.85057471264366"/>
    </contour>
  </outline>
</glyph>
<glyph name="logicalnot" format="2">
  <advance width="565.3684210526316"/>
  <unicode hex="00AC"/>
  <outline>
    <contour>
      <point x="437.9578947368421" y="61.242105263157896" type="curve"/>
      <point x="503.8105263157895" y="61.242105263157896" type="line"/>
      <point x="502.4526315789474" y="122.28421052631579"/>
      <point x="501.0947368421053" y="190.89473684210526"/>
      <point x="500.7368421052632" y="229.83157894736843" type="curve"/>
      <point x="500.7368421052632" y="329.89473684210526" type="line"/>
      <point x="439.69473684210527" y="328.53684210526313"/>
      <point x="371.0842105263158" y="327.17894736842106"/>
      <point x="332.14736842105265" y="326.82105263157894" type="curve"/>
      <point x="233.22105263157894" y="326.82105263157894" type="line"/>
      <point x="194.2842105263158" y="327.17894736842106"/>
      <point x="125.67368421052632" y="328.53684210526313"/>
      <point x="64.63157894736842" y="329.89473684210526" type="curve"/>
      <point x="64.63157894736842" y="265.1157894736842" type="line"/>
      <point x="125.67368421052632" y="266.4736842105263"/>
      <point x="194.2842105263158" y="267.83157894736837"/>
      <point x="233.22105263157894" y="268.1894736842105" type="curve"/>
      <point x="332.14736842105265" y="268.1894736842105" type="line"/>
      <point x="368.0105263157895" y="267.83157894736837"/>
      <point x="431.36842105263156" y="266.4736842105263"/>
      <point x="487.1578947368421" y="265.1157894736842" type="curve"/>
      <point x="441.0315789473684" y="308.94736842105266" type="line"/>
      <point x="441.0315789473684" y="229.83157894736843" type="line"/>
      <point x="440.6736842105263" y="190.89473684210526"/>
      <point x="439.3157894736842" y="122.28421052631579"/>
    </contour>
  </outline>
</glyph>
<glyph name="registered" format="2">
  <advance width="566.6526315789474"/>
  <unicode hex="00AE"/>
  <outline>
    <contour>
      <point x="285.5052631578947" y="258.66315789473686" type="curve" smooth="yes"/>
      <point x="437.87368421052633" y="258.66315789473686"/>
      <point x="529.3368421052631" y="362.4526315789474"/>
      <point x="529.3368421052631" y="501.9578947368421" type="curve" smooth="yes"/>
      <point x="529.3368421052631" y="636.7473684210527"/>
      <point x="442.41052631578947" y="744.8947368421053"/>
      <point x="283.61052631578946" y="744.8947368421053" type="curve" smooth="yes"/>
      <point x="126.34736842105264" y="744.8947368421053"/>
      <point x="37.31578947368421" y="638.5684210526316"/>
      <point x="37.31578947368421" y="501.77894736842103" type="curve" smooth="yes"/>
      <point x="37.31578947368421" y="370.88421052631577"/>
      <point x="119.88421052631578" y="258.66315789473686"/>
    </contour>
    <contour>
      <point x="184.49473684210525" y="365.4947368421053" type="curve"/>
      <point x="228.8421052631579" y="365.4947368421053" type="line"/>
      <point x="227.48421052631576" y="405.8842105263158"/>
      <point x="227.12631578947367" y="416.2842105263158"/>
      <point x="225.76842105263157" y="459.4947368421053" type="curve"/>
      <point x="225.76842105263157" y="551.4947368421052" type="line"/>
      <point x="227.12631578947367" y="594.0631578947368"/>
      <point x="227.48421052631576" y="606.1052631578947"/>
      <point x="228.66315789473683" y="644.7052631578947" type="curve"/>
      <point x="183.9578947368421" y="650.4947368421052" type="line"/>
      <point x="185.3157894736842" y="609.7473684210526"/>
      <point x="185.67368421052632" y="597.8842105263158"/>
      <point x="187.03157894736842" y="555.4947368421052" type="curve"/>
      <point x="187.03157894736842" y="459.4947368421053" type="line"/>
      <point x="185.85263157894735" y="415.9263157894737"/>
      <point x="185.6736842105263" y="406.42105263157896"/>
    </contour>
    <contour>
      <point x="285.3263157894737" y="293.85263157894735" type="curve"/>
      <point x="149.13684210526316" y="296.3894736842105"/>
      <point x="73.7578947368421" y="376.1473684210526"/>
      <point x="73.7578947368421" y="501.77894736842103" type="curve" smooth="yes"/>
      <point x="73.7578947368421" y="627.0947368421052"/>
      <point x="151.67368421052632" y="707.3473684210526"/>
      <point x="283.7894736842105" y="709.8842105263158" type="curve"/>
      <point x="416.2631578947368" y="707.3473684210526"/>
      <point x="492.0736842105263" y="628.2"/>
      <point x="492.0736842105263" y="501.9578947368421" type="curve" smooth="yes"/>
      <point x="492.0736842105263" y="375.28421052631575"/>
      <point x="414.8315789473684" y="296.3894736842105"/>
    </contour>
    <contour>
      <point x="357.37894736842105" y="365.4947368421053" type="curve"/>
      <point x="412.2631578947369" y="365.4947368421053" type="line"/>
      <point x="393.62105263157895" y="388.2105263157895"/>
      <point x="368.2315789473684" y="419.4947368421052"/>
      <point x="345.12631578947367" y="447.85263157894735" type="curve"/>
      <point x="301.2736842105263" y="504.2105263157895" type="line"/>
      <point x="286.62105263157895" y="486.88421052631577" type="line"/>
      <point x="357.1578947368421" y="486.88421052631577"/>
      <point x="383.62105263157895" y="525.0631578947368"/>
      <point x="383.62105263157895" y="571.6" type="curve" smooth="yes"/>
      <point x="383.62105263157895" y="628.1368421052632"/>
      <point x="344.62105263157895" y="651.8526315789474"/>
      <point x="284.5052631578947" y="651.8526315789474" type="curve"/>
      <point x="242.53684210526316" y="651.8526315789474"/>
      <point x="209.10526315789474" y="650.4947368421052"/>
      <point x="183.9578947368421" y="650.4947368421052" type="curve"/>
      <point x="213.3684210526316" y="616.3368421052631" type="line"/>
      <point x="282.9684210526316" y="616.3368421052631" type="line" smooth="yes"/>
      <point x="305.46315789473687" y="616.3368421052631"/>
      <point x="343.34736842105264" y="614.5157894736842"/>
      <point x="343.34736842105264" y="569.4526315789474" type="curve" smooth="yes"/>
      <point x="343.34736842105264" y="527.2105263157895"/>
      <point x="314.38947368421054" y="514.2842105263157"/>
      <point x="271.22105263157897" y="514.2842105263157" type="curve" smooth="yes"/>
      <point x="218.44210526315788" y="514.2842105263157" type="line"/>
      <point x="218.44210526315788" y="483.4526315789474" type="line"/>
      <point x="284.1578947368421" y="483.4526315789474" type="line"/>
      <point x="259.89473684210526" y="499.0315789473684" type="line"/>
      <point x="308.85263157894735" y="434.6736842105263" type="line"/>
      <point x="324.42105263157896" y="412.4947368421052"/>
      <point x="338.9894736842105" y="391.67368421052635"/>
    </contour>
  </outline>
</glyph>
<glyph name="degree" format="2">
  <advance width="469.9263157894737"/>
  <unicode hex="00B0"/>
  <outline>
    <contour>
      <point x="234.8736842105263" y="319.58947368421053" type="curve" smooth="yes"/>
      <point x="350.56842105263155" y="319.58947368421053"/>
      <point x="431.7157894736842" y="393.4842105263158"/>
      <point x="431.7157894736842" y="507.4947368421053" type="curve" smooth="yes"/>
      <point x="431.7157894736842" y="615.8210526315789"/>
      <point x="350.56842105263155" y="697.7894736842105"/>
      <point x="235.8736842105263" y="697.7894736842105" type="curve" smooth="yes"/>
      <point x="120.17894736842105" y="697.7894736842105"/>
      <point x="38.21052631578947" y="615.8210526315789"/>
      <point x="38.21052631578947" y="507.4947368421053" type="curve" smooth="yes"/>
      <point x="38.21052631578947" y="393.4842105263158"/>
      <point x="120.17894736842105" y="319.58947368421053"/>
    </contour>
    <contour>
      <point x="234.8736842105263" y="371.70526315789476" type="curve"/>
      <point x="150.78947368421052" y="374.42105263157896"/>
      <point x="96.05263157894737" y="423.5157894736842"/>
      <point x="96.05263157894737" y="507.13684210526316" type="curve" smooth="yes"/>
      <point x="96.05263157894737" y="587.578947368421"/>
      <point x="150.61052631578949" y="642.957894736842"/>
      <point x="235.8736842105263" y="645.6736842105263" type="curve"/>
      <point x="320.31578947368416" y="642.778947368421"/>
      <point x="373.87368421052633" y="587.0421052631579"/>
      <point x="373.87368421052633" y="507.13684210526316" type="curve" smooth="yes"/>
      <point x="373.87368421052633" y="423.5157894736842"/>
      <point x="319.9578947368421" y="374.42105263157896"/>
    </contour>
  </outline>
</glyph>
<glyph name="plusminus" format="2">
  <advance width="565.3684210526316"/>
  <unicode hex="00B1"/>
  <outline>
    <contour>
      <point x="64.63157894736842" y="-3.0736842105263156" type="line"/>
      <point x="125.67368421052632" y="-1.7157894736842105"/>
      <point x="194.2842105263158" y="-0.35789473684210527"/>
      <point x="233.22105263157894" y="0.0" type="curve"/>
      <point x="332.14736842105265" y="0.0" type="line"/>
      <point x="371.0842105263158" y="-0.35789473684210527"/>
      <point x="439.69473684210527" y="-1.7157894736842105"/>
      <point x="500.7368421052632" y="-3.0736842105263156" type="curve"/>
      <point x="500.7368421052632" y="61.70526315789474" type="line"/>
      <point x="439.69473684210527" y="60.34736842105263"/>
      <point x="371.0842105263158" y="58.98947368421053"/>
      <point x="332.14736842105265" y="58.631578947368425" type="curve"/>
      <point x="233.22105263157894" y="58.631578947368425" type="line"/>
      <point x="194.2842105263158" y="58.98947368421053"/>
      <point x="125.67368421052632" y="60.34736842105263"/>
      <point x="64.63157894736842" y="61.70526315789474" type="curve"/>
    </contour>
    <contour>
      <point x="64.63157894736842" y="353.6842105263158" type="line"/>
      <point x="125.67368421052632" y="355.0421052631579"/>
      <point x="194.2842105263158" y="356.4"/>
      <point x="233.22105263157894" y="356.7578947368421" type="curve"/>
      <point x="332.14736842105265" y="356.7578947368421" type="line"/>
      <point x="371.0842105263158" y="356.4"/>
      <point x="439.69473684210527" y="355.0421052631579"/>
      <point x="500.7368421052632" y="353.6842105263158" type="curve"/>
      <point x="500.7368421052632" y="418.46315789473687" type="line"/>
      <point x="439.69473684210527" y="417.10526315789474"/>
      <point x="371.0842105263158" y="415.74736842105267"/>
      <point x="332.14736842105265" y="415.38947368421054" type="curve"/>
      <point x="233.22105263157894" y="415.38947368421054" type="line"/>
      <point x="194.2842105263158" y="415.74736842105267"/>
      <point x="125.67368421052632" y="417.10526315789474"/>
      <point x="64.63157894736842" y="418.46315789473687" type="curve"/>
    </contour>
    <contour>
      <point x="249.7578947368421" y="153.38947368421051" type="curve"/>
      <point x="315.61052631578946" y="153.38947368421051" type="line"/>
      <point x="314.25263157894733" y="214.43157894736842"/>
      <point x="312.89473684210526" y="283.04210526315785"/>
      <point x="312.53684210526313" y="321.9789473684211" type="curve"/>
      <point x="312.53684210526313" y="450.1684210526316" type="line"/>
      <point x="312.89473684210526" y="489.10526315789474"/>
      <point x="314.25263157894733" y="557.7157894736843"/>
      <point x="315.61052631578946" y="618.7578947368421" type="curve"/>
      <point x="249.7578947368421" y="618.7578947368421" type="line"/>
      <point x="251.1157894736842" y="557.7157894736843"/>
      <point x="252.47368421052633" y="489.10526315789474"/>
      <point x="252.83157894736843" y="450.1684210526316" type="curve"/>
      <point x="252.83157894736843" y="321.9789473684211" type="line"/>
      <point x="252.47368421052633" y="283.04210526315785"/>
      <point x="251.1157894736842" y="214.43157894736842"/>
    </contour>
  </outline>
</glyph>
<glyph name="micro" format="2">
  <advance width="556.5157894736842"/>
  <unicode hex="00B5"/>
  <outline>
    <contour>
      <point x="73.93684210526317" y="-194.7157894736842" type="curve"/>
      <point x="150.55789473684212" y="-192.0" type="line"/>
      <point x="148.30526315789473" y="-118.07368421052631"/>
      <point x="146.41052631578947" y="-53.96842105263158"/>
      <point x="143.97894736842105" y="25.242105263157896" type="curve" smooth="yes"/>
      <point x="143.97894736842105" y="43.631578947368425" type="line"/>
      <point x="123.08421052631579" y="43.631578947368425" type="line"/>
      <point x="146.18947368421053" y="7.957894736842105"/>
      <point x="182.86315789473684" y="-10.25263157894737"/>
      <point x="239.13684210526316" y="-10.25263157894737" type="curve" smooth="yes"/>
      <point x="291.27368421052626" y="-10.25263157894737"/>
      <point x="372.75789473684216" y="50.84210526315789"/>
      <point x="412.5052631578947" y="91.88421052631578" type="curve"/>
      <point x="419.93684210526317" y="91.88421052631578" type="line"/>
      <point x="442.86315789473684" y="0.0" type="line"/>
      <point x="506.6421052631579" y="0.0" type="line"/>
      <point x="493.82105263157894" y="50.473684210526315"/>
      <point x="485.46315789473687" y="88.30526315789474"/>
      <point x="475.46315789473687" y="133.34736842105264" type="curve"/>
      <point x="476.2842105263158" y="271.3578947368421" type="line"/>
      <point x="476.64210526315793" y="355.7578947368421"/>
      <point x="477.6421052631579" y="419.53684210526313"/>
      <point x="478.0" y="495.4315789473684" type="curve"/>
      <point x="405.77894736842103" y="495.4315789473684" type="line"/>
      <point x="407.6736842105263" y="421.5052631578947"/>
      <point x="409.38947368421054" y="356.2210526315789"/>
      <point x="411.10526315789474" y="276.7263157894737" type="curve"/>
      <point x="411.10526315789474" y="150.1684210526316" type="line"/>
      <point x="353.3052631578948" y="95.47368421052632"/>
      <point x="283.5052631578947" y="50.915789473684214"/>
      <point x="250.69473684210527" y="50.915789473684214" type="curve" smooth="yes"/>
      <point x="170.04210526315788" y="50.915789473684214"/>
      <point x="143.97894736842105" y="96.4421052631579"/>
      <point x="143.97894736842105" y="185.10526315789474" type="curve"/>
      <point x="144.79999999999998" y="276.7263157894737" type="line"/>
      <point x="145.1578947368421" y="354.14736842105265"/>
      <point x="145.69473684210527" y="426.90526315789475"/>
      <point x="146.8736842105263" y="498.14736842105265" type="curve"/>
      <point x="73.57894736842105" y="495.4315789473684" type="line"/>
      <point x="75.65263157894738" y="421.5052631578947"/>
      <point x="77.36842105263158" y="356.57894736842104"/>
      <point x="79.62105263157895" y="271.3578947368421" type="curve"/>
      <point x="79.62105263157895" y="27.568421052631578" type="line"/>
      <point x="77.54736842105264" y="-53.96842105263158"/>
      <point x="75.83157894736843" y="-120.78947368421052"/>
    </contour>
  </outline>
</glyph>
